<?xml version="1.0" encoding="UTF-8"?>
<svg xmlns="http://www.w3.org/2000/svg" xmlns:xlink="http://www.w3.org/1999/xlink" version="1.2" >
<font id="Harman Sans">
<font-face  font-family="Harman" units-per-em="1000" ascent="750" descent="-250" font-style="normal" font-weight="400" font-stretch="normal" cap-height="707" x-height="707" underline-position="-75" underline-thickness="50" />
<missing-glyph  horiz-adv-x="500" d="" />
<glyph glyph-name="space" unicode="&#x20;" horiz-adv-x="300" d="" />
<glyph glyph-name="exclam" unicode="&#x21;" horiz-adv-x="264" d="M190 244 Q191 228 187 208.5 Q183 189 167 183 Q159 181 157 181 Q141 180 125.5 180.5 Q110 181 94 183 L86 185 Q79 189 74 194.5 Q69 200 69 211 Q68 213 68 220 L68 256 Q68 282 67.5 308.5 Q67 335 66 361 L66 398 Q65 420 65 441.5 Q65 463 63 485 Q63 488 63 491.5 Q63 495 64 499 L64 513 Q63 518 63 522.5 Q63 527 63 532 L63 627 Q62 636 61 647 Q60 658 61 668 Q62 678 67 686.5 Q72 695 82 700 L90 702 Q92 702 94.5 702.5 Q97 703 99 703 Q122 704 143.5 704.5 Q165 705 188 701 Q191 700 194 697 Q197 696 199 691 Q208 675 203 656 Q204 655 204 648 L204 637 Q204 632 204 627 Q204 622 203 617 L203 602 Q200 580 199.5 558 Q199 536 200 514 Q200 509 199 508 L197 476 L197 467 Q197 460 198 458 Q197 455 197 448 L197 418 Q196 416 196 407 Q195 405 195 398 Q195 391 194 389 Q193 364 191.5 339.5 Q190 315 190 289 L190 244 Z M125 123 Q148 123 165 110 L173 104 Q182 96 190 82 L192 70 Q192 68 192.5 66.5 Q193 65 193 63 Q196 49 188 33 Q186 31 185 28.5 Q184 26 182 24 Q172 8 149 0 Q141 -2 140 -2 Q135 -4 130 -4 Q125 -4 120 -4 L110 -4 L101 -1 L94 2 L79 14 L75 19 Q68 31 63 46 Q63 48 62.5 50.5 Q62 53 62 55 Q61 75 72.5 93 Q84 111 103 119 L113 122 Q116 123 125 123 Z " />
<glyph glyph-name="quotedbl" unicode="&#x22;" horiz-adv-x="377" d="M334 683 Q338 678 336.5 670 Q335 662 333 656 Q333 650 332 648 Q332 642 331.5 636.5 Q331 631 330 626 Q326 611 325 595 Q324 579 322 563 L320 553 Q320 551 318 543 Q316 526 312.5 509.5 Q309 493 307 476 Q307 470 306 468 Q301 445 270 445 Q256 443 244 447 Q232 451 225 463 Q223 471 223 472 Q220 492 219 510.5 Q218 529 216 548 L214 568 Q214 570 213.5 571.5 Q213 573 213 575 L213 582 L209 618 Q209 621 208.5 623.5 Q208 626 208 629 Q207 637 207 645 Q207 653 207 661 L207 675 Q208 689 217.5 696.5 Q227 704 239 704 L293 704 L320 701 Q323 700 326 697 Q329 696 331 691 Q332 690 334 683 Z M168 676 Q169 675 169 669 Q168 668 168 662 L166 656 Q166 650 165 648 Q165 642 164.5 636.5 Q164 631 163 626 Q159 611 158 595 Q157 579 155 563 L153 553 Q153 551 151 543 Q149 526 145.5 509.5 Q142 493 140 476 Q140 470 139 468 Q137 459 131 452 Q125 445 114 447 Q111 446 108.5 445.5 Q106 445 103 445 Q89 443 77 447 Q65 451 58 463 Q56 471 56 472 Q53 492 52 510.5 Q51 529 49 548 L47 568 Q47 570 46.5 571.5 Q46 573 46 575 L46 582 L42 618 Q42 621 41.5 623.5 Q41 626 41 629 Q40 637 40 645 Q40 653 40 661 L40 675 Q41 689 50.5 696.5 Q60 704 72 704 L126 704 L153 701 Q156 700 159 697 Q162 696 164 691 Q165 690 167 683 Q168 682 168 676 Z " />
<glyph glyph-name="numbersign" unicode="&#x23;" horiz-adv-x="607" d="M529 286 Q531 277 531.5 268.5 Q532 260 531 251 Q530 249 530 241 Q529 226 524.5 213 Q520 200 503 197 Q501 197 498 196.5 Q495 196 493 196 Q481 194 468 195 Q455 196 444 197 L429 197 L416 96 L412 77 L411 68 Q409 59 409.5 48.5 Q410 38 408.5 28.5 Q407 19 402.5 11 Q398 3 387 -1 Q376 -6 362.5 -5 Q349 -4 335 -5 Q329 -5 328 -4 Q313 -1 311 11 Q309 23 312 35.5 Q315 48 317 60 L334 198 L223 200 L210 96 L206 77 L205 68 Q203 59 203 48.5 Q203 38 201.5 28.5 Q200 19 196 11 Q192 3 181 -1 Q166 -6 147 -6 L139 -6 Q126 -7 118.5 -1.5 Q111 4 108 13 Q105 22 105.5 32.5 Q106 43 110 53 Q110 55 110.5 56.5 Q111 58 111 60 L128 200 L101 200 Q89 201 76 198.5 Q63 196 55 209 Q50 216 50 226 Q50 231 50.5 236 Q51 241 52 246 Q54 257 56.5 266.5 Q59 276 61 284 L65 289 Q70 294 80 295 Q90 296 99 296 L141 296 Q150 356 156 405 L114 405 Q97 400 84 409.5 Q71 419 77 437 L79 446 Q79 448 79.5 450 Q80 452 80 454 Q80 456 79.5 459 Q79 462 80 465 Q81 483 92.5 493.5 Q104 504 124 502 L167 502 L182 615 L185 651 Q184 659 187 672 Q188 675 189 681 Q190 687 190 689 Q195 699 202 699.5 Q209 700 218 702 L237 704 Q255 706 273 701 L278 697 Q282 696 282 691 Q287 682 285.5 671 Q284 660 282 648 L281 637 Q280 632 279.5 627 Q279 622 277 617 L276 609 L268 537 L264 499 Q285 500 306.5 499 Q328 498 350 498 L373 498 Q375 521 379 552 Q383 583 388 615 L390 633 Q390 636 390.5 639.5 Q391 643 391 645 Q391 656 392.5 667 Q394 678 398.5 686.5 Q403 695 411.5 700 Q420 705 433 703 Q435 704 443 704 Q461 706 479 701 L484 697 Q488 696 488 691 Q493 682 491.5 671 Q490 660 488 648 L487 637 Q486 632 485.5 627 Q485 622 483 617 L482 609 L474 537 L470 498 L531 498 Q542 500 547.5 496 Q553 492 555 485 Q557 478 556 469.5 Q555 461 554 453 Q554 446 553 444 L553 440 Q555 415 542.5 407.5 Q530 400 510 403 L455 403 L455 399 Q453 377 449 355 Q445 333 443 311 L440 292 L497 292 Q505 291 513 291 Q521 291 529 286 Z M235 293 L237 293 Q259 295 280.5 293.5 Q302 292 324 292 L346 292 L362 404 L250 406 Q249 404 249 399 Q247 377 243 355 Q239 333 237 311 L235 293 Z " />
<glyph glyph-name="dollar" unicode="&#x24;" horiz-adv-x="586" d="M525 236 Q526 233 526 226 Q530 213 530 194 Q530 191 529.5 188.5 Q529 186 529 183 Q525 161 519 139.5 Q513 118 503 98 L500 91 L496 84 Q492 76 487 69 Q482 62 477 55 L469 46 Q457 32 441.5 23 Q426 14 409 6 L396 1 Q384 -4 371.5 -6 Q359 -8 346 -10 Q346 -14 345.5 -17.5 Q345 -21 345 -25 L345 -34 Q343 -51 346 -67.5 Q349 -84 343 -97 Q338 -106 332.5 -108 Q327 -110 320.5 -109 Q314 -108 305.5 -106.5 Q297 -105 287 -107 L277 -107 Q267 -108 263.5 -107 Q260 -106 251 -103 L244 -98 Q236 -91 238.5 -74 Q241 -57 241 -42 L241 -11 Q219 -6 197.5 -0.5 Q176 5 156 17 L148 23 Q130 35 113 52 L106 59 Q97 71 85 91 Q83 93 82.5 95 Q82 97 80 99 L76 107 L73 115 Q64 132 60.5 150 Q57 168 54 187 Q53 188 53 191 L53 198 Q50 211 51 225.5 Q52 240 67 245 Q73 248 77 248 Q90 250 103.5 249.5 Q117 249 129 251 Q131 250 138 250 Q159 250 174 246 Q177 245 179.5 244 Q182 243 184 242 L190 236 L194 229 Q198 222 198 210 Q198 208 198.5 206.5 Q199 205 199 203 L201 193 Q203 184 206.5 175 Q210 166 217 158 Q219 154 221.5 151.5 Q224 149 226 146 L232 141 L238 137 Q239 137 239.5 136.5 Q240 136 241 136 Q240 190 240 236 Q240 282 240 301 Q221 308 202 315.5 Q183 323 166 334 L159 337 L153 340 Q124 358 100 385 L93 392 Q85 400 80 409 Q78 412 77 414 Q76 416 75 418 Q64 440 63 463.5 Q62 487 60 510 Q60 513 60.5 515.5 Q61 518 61 520 Q62 534 65 546 Q68 558 73 570 L78 586 Q82 599 92 615 Q96 623 101 630 Q106 637 111 644 L119 653 Q131 667 146.5 676 Q162 685 179 693 L192 698 Q205 703 217.5 705 Q230 707 244 709 L244 736 Q241 749 242 757 Q242 760 242.5 762.5 Q243 765 243 767 Q247 777 253 781 Q259 785 267 787 Q269 787 271.5 787.5 Q274 788 276 788 Q287 788 293.5 788.5 Q300 789 305.5 789 Q311 789 317.5 788.5 Q324 788 335 786 Q338 785 341 782 Q344 781 346 776 Q355 760 350 741 Q351 740 351 733 L351 709 Q372 705 392.5 699 Q413 693 432 682 L440 676 Q458 664 475 647 L482 640 Q498 621 505 604 Q507 600 510 595 Q513 590 515 585 Q521 575 524 565 Q527 555 529 544 L531 536 L535 505 Q536 503 536 495 Q535 479 523.5 470 Q512 461 497 461 Q495 462 488 462 Q467 464 444.5 462.5 Q422 461 402 468 Q395 475 392 485 Q390 490 389 495.5 Q388 501 387 506 L385 515 Q380 529 371 541 Q369 545 366.5 547.5 Q364 550 362 553 L356 558 L351 561 L351 449 Q350 438 349.5 428.5 Q349 419 349 409 Q349 403 348 402 Q359 398 369 395 Q379 392 390 387 Q393 386 395 385 Q397 384 399 383 Q415 377 430.5 370.5 Q446 364 460 353 L469 345 L485 327 L490 321 Q522 284 525 236 Z M243 459 Q243 462 244 463 L244 568 Q235 564 224 553 L217 546 Q215 543 214 541 Q213 539 212 537 Q210 535 208 530 Q200 516 200.5 498 Q201 480 212 468 L219 460 Q224 455 230 451 Q236 447 242 443 Q243 444 243 449 L243 459 Z M386 212 L384 220 L381 229 Q378 232 377 235 Q374 239 371 242.5 Q368 246 364 248 Q361 252 356 253 L347 258 L347 133 Q349 133 351 135 L358 140 Q372 152 378.5 168 Q385 184 386 202 L386 212 Z " />
<glyph glyph-name="percent" unicode="&#x25;" horiz-adv-x="988" d="M411 475 Q411 470 411 465 Q411 460 410 455 Q409 435 406.5 415.5 Q404 396 398 376 Q396 370 396 370 L390 358 L383 346 L380 340 Q377 337 376 334 Q359 317 339.5 302.5 Q320 288 298 278 L291 275 Q287 274 281.5 273 Q276 272 269 271 Q267 270 259 270 Q257 269 251 269 Q249 269 246.5 268.5 Q244 268 242 268 Q223 266 204 269 Q185 272 167 277 L156 280 Q134 291 114 306 Q94 321 80 341 L76 349 Q74 355 71 361 Q68 367 66 374 Q61 388 59 402.5 Q57 417 55 432 Q54 433 54 438 Q54 440 53.5 441 Q53 442 53 444 Q51 454 51 463.5 Q51 473 51 483 L51 491 Q49 515 52 538.5 Q55 562 61 585 L63 594 L66 604 Q72 621 82 635.5 Q92 650 104 663 L110 669 Q120 677 129.5 683.5 Q139 690 149 694 L158 697 Q179 707 201 706.5 Q223 706 245 708 L264 708 Q275 706 285.5 703.5 Q296 701 307 697 L315 694 Q317 693 319 692 Q321 691 324 689 Q341 678 356 665 Q371 652 382 634 L388 625 Q395 613 400 597 L403 588 Q403 586 403.5 585 Q404 584 404 582 Q404 580 404.5 579 Q405 578 405 576 Q409 560 408.5 544 Q408 528 410 512 L411 512 L411 475 Z M938 200 Q938 195 938 190 Q938 185 937 180 Q936 160 933.5 140.5 Q931 121 925 101 Q923 95 923 95 L917 83 L910 71 L907 65 Q904 62 903 59 Q886 42 866.5 27.5 Q847 13 825 3 L818 0 Q814 -1 808.5 -2 Q803 -3 796 -4 Q794 -5 786 -5 Q784 -6 778 -6 Q776 -6 773.5 -6.5 Q771 -7 769 -7 Q750 -9 731 -6 Q712 -3 694 2 L683 5 Q661 16 641 31 Q621 46 607 66 L603 74 Q601 80 598 86 Q595 92 593 99 Q588 113 586 127.5 Q584 142 582 157 Q581 158 581 163 Q581 165 580.5 166 Q580 167 580 169 Q578 179 578 188.5 Q578 198 578 208 L578 216 Q576 240 579 263.5 Q582 287 588 310 L590 319 L593 329 Q599 346 609 360.5 Q619 375 631 388 L637 394 Q647 402 656.5 408.5 Q666 415 676 419 L685 422 Q706 432 728 431.5 Q750 431 772 433 L791 433 Q802 431 812.5 428.5 Q823 426 834 422 L842 419 Q844 418 846 417 Q848 416 851 414 Q868 403 883 390 Q898 377 909 359 L915 350 Q922 338 927 322 L930 313 Q930 311 930.5 310 Q931 309 931 307 Q931 305 931.5 304 Q932 303 932 301 Q936 285 935.5 269 Q935 253 937 237 L938 237 L938 200 Z M467 177 L466 176 Q466 173 465 171 L463 165 L451 142 L445 130 L400 43 L397 35 L388 17 Q383 6 375 1.5 Q367 -3 357 -4.5 Q347 -6 336 -5.5 Q325 -5 315 -5 Q309 -5 307 -6 Q299 -5 290.5 -2.5 Q282 0 279 9 Q276 18 279 26.5 Q282 35 287 43 L293 51 L297 60 Q304 73 310 86 Q316 99 321 112 Q323 118 323 118 L361 200 L366 209 L387 254 L392 264 L422 326 Q423 328 428 337 L433 344 Q441 369 454 391.5 Q467 414 478 438 L481 443 L484 449 Q491 460 496.5 471 Q502 482 507 493 L553 585 L559 595 L567 613 L570 619 Q576 629 580 640 Q584 651 588.5 661.5 Q593 672 599.5 681 Q606 690 617 696 Q622 699 626 699 Q628 700 636 700 Q635 700 635 700.5 Q635 701 634 701 Q644 699 658.5 701 Q673 703 686 702.5 Q699 702 707 696.5 Q715 691 712 675 L710 666 L698 641 L695 633 Q691 623 686 617 Q682 612 680 606.5 Q678 601 676 596 L673 590 Q664 570 656.5 555 Q649 540 647 537 L644 530 Q642 526 640 521.5 Q638 517 636 512 L633 506 L613 462 L609 454 Q598 431 584 409.5 Q570 388 561 364 L556 355 L535 311 Q532 304 529 297.5 Q526 291 522 284 Q516 272 508.5 258 Q501 244 494 230 L487 216 Q481 207 476.5 197 Q472 187 467 177 Z M282 445 Q283 456 284 466.5 Q285 477 283 488 Q283 490 283.5 492.5 Q284 495 284 497 L284 505 Q283 507 283 515 Q283 517 282.5 519.5 Q282 522 282 525 Q280 537 276.5 550.5 Q273 564 264 572 Q258 579 250 580 Q236 585 221 583 Q206 581 195 570 Q187 560 184 547.5 Q181 535 179 522 L177 504 Q177 499 177 495.5 Q177 492 176 487 L176 480 Q176 465 177 462 L177 459 Q178 458 178 453 Q180 443 182 433 Q184 423 189 414 Q191 410 194 406 Q197 402 201 398 Q203 397 205 396 Q207 395 210 394 Q215 391 219 391 Q233 388 249 395 Q251 396 253 397 Q255 398 258 400 Q274 411 279 435 L282 445 Z M809 170 Q810 181 811 191.5 Q812 202 810 213 Q810 215 810.5 217.5 Q811 220 811 222 L811 230 Q810 232 810 240 Q810 242 809.5 244.5 Q809 247 809 250 Q807 262 803.5 275.5 Q800 289 791 297 Q785 304 777 305 Q763 310 748 308 Q733 306 722 295 Q714 285 711 272.5 Q708 260 706 247 L704 229 Q704 224 704 220.5 Q704 217 703 212 L703 205 Q703 190 704 187 L704 184 Q705 183 705 178 Q707 168 709 158 Q711 148 716 139 Q718 135 721 131 Q724 127 728 123 Q730 122 732 121 Q734 120 737 119 Q742 116 746 116 Q760 113 776 120 Q778 121 780 122 Q782 123 785 125 Q801 136 806 160 L809 170 Z " />
<glyph glyph-name="ampersand" unicode="&#x26;" horiz-adv-x="718" d="M675 112 Q678 103 677.5 93 Q677 83 677 73 Q677 69 677 65 Q677 61 676 57 Q675 49 676 42 Q677 35 673 27 Q671 23 667 19 L661 12 L653 7 Q633 -2 609.5 -2 Q586 -2 564 -1 Q558 -1 557 0 Q553 0 549 0 Q545 0 541 1 L531 1 Q521 1 512 4 Q503 5 494 9 Q485 13 476.5 17 Q468 21 460 26 L445 37 Q442 34 438.5 31.5 Q435 29 431 27 L423 21 Q410 13 396.5 8.5 Q383 4 369 0 Q361 -2 360 -2 Q351 -4 342.5 -6 Q334 -8 324 -8 L317 -8 Q283 -6 249 -6.5 Q215 -7 183 5 L170 10 Q153 18 137.5 27 Q122 36 110 50 L102 59 L99 64 Q83 81 73.5 102 Q64 123 59 145 L57 155 L54 169 Q52 179 52 183 Q52 188 51.5 193 Q51 198 51 203 L51 209 Q50 252 69 288 L74 295 Q85 314 99 329 Q113 344 134 351 Q126 355 120 360 Q114 365 106 370 L101 374 L96 380 L90 386 Q83 394 77 403 Q71 412 67 422 Q66 424 65 426 Q64 428 63 431 Q59 442 56.5 453.5 Q54 465 52 476 L52 491 Q51 495 51 499 Q51 503 51 507 L51 514 Q52 566 77 610 Q79 613 80 615 Q81 617 82 619 L88 627 L100 641 L107 649 Q124 667 145 681 L153 685 L170 693 L183 698 Q209 708 235 709 Q261 710 288 710 L298 710 Q321 711 343.5 707 Q366 703 388 698 L397 695 Q404 692 410.5 689 Q417 686 423 682 L431 676 Q449 664 466 647 L473 640 Q489 621 496 604 Q498 600 501 595 Q504 590 506 585 Q512 575 515 565 Q518 555 520 544 L522 536 L522 535 Q522 532 523 531 Q523 523 524 520 Q526 510 524 499 Q520 477 500.5 468.5 Q481 460 461 462 L443 462 Q441 463 434 463 L425 463 Q405 461 392 473.5 Q379 486 378 506 L376 515 Q371 529 362 541 Q360 545 357.5 547.5 Q355 550 353 553 L347 558 L341 562 Q321 572 298 574 Q275 576 253 574 L243 571 Q227 567 215 553 L208 546 Q206 543 205 541 Q204 539 203 537 Q201 535 199 530 Q194 522 193 513 Q192 512 192 507 Q189 483 197.5 459 Q206 435 228 422 L236 417 Q248 411 261 408 Q263 408 264.5 407.5 Q266 407 268 407 Q273 405 277 405 Q281 405 286 404 L292 404 Q298 402 330 402 Q362 402 405 403 L421 403 Q433 405 445 404 Q457 403 469 404 L565 404 Q573 406 583 406 Q593 406 601.5 403 Q610 400 615 393 Q620 386 618 375 L618 365 Q619 357 619 350 Q619 343 619 336 Q618 333 618 326 Q619 310 611 303 Q603 296 591 294 Q579 292 565.5 293 Q552 294 541 294 Q539 294 537.5 293.5 Q536 293 534 293 L528 293 Q526 288 526.5 282 Q527 276 527 271 L527 252 Q527 233 527 214.5 Q527 196 530 177 L533 167 Q534 164 535 162 Q536 160 537 158 L542 152 L549 146 L560 141 Q566 138 572 138 Q592 134 609 136.5 Q626 139 646 135 Q652 133 656.5 131 Q661 129 664 127 L670 121 Q672 118 673 116 Q674 114 675 112 Z M388 291 L315 291 Q301 291 287 291 Q273 291 259 289 Q254 288 250 287.5 Q246 287 241 285 L224 277 L217 271 Q202 259 197 239 Q195 233 195 231 Q192 222 192 213 Q192 208 191 206 Q191 198 192 195 Q192 190 193 189 Q193 184 195.5 180.5 Q198 177 200 173 Q202 167 204 166 Q210 156 217.5 148 Q225 140 236 135 L243 132 L253 129 Q258 128 262 128 Q266 128 271 128 L280 128 Q292 127 304.5 128 Q317 129 328 134 L335 137 Q348 144 359 154.5 Q370 165 375 179 Q377 181 377.5 184 Q378 187 379 189 Q386 208 388 229 L388 291 Z " />
<glyph glyph-name="quotesingle" unicode="&#x27;" horiz-adv-x="209" d="M168 676 Q169 675 169 669 Q168 668 168 662 L166 656 Q166 650 165 648 Q165 642 164.5 636.5 Q164 631 163 626 Q159 611 158 595 Q157 579 155 563 L153 553 Q153 551 151 543 Q149 526 145.5 509.5 Q142 493 140 476 Q140 470 139 468 Q137 459 131 452 Q125 445 114 447 Q111 446 108.5 445.5 Q106 445 103 445 Q89 443 77 447 Q65 451 58 463 Q56 471 56 472 Q53 492 52 510.5 Q51 529 49 548 L47 568 Q47 570 46.5 571.5 Q46 573 46 575 L46 582 L42 618 Q42 621 41.5 623.5 Q41 626 41 629 Q40 637 40 645 Q40 653 40 661 L40 675 Q41 689 50.5 696.5 Q60 704 72 704 L126 704 L153 701 Q156 700 159 697 Q162 696 164 691 Q165 690 167 683 Q168 682 168 676 Z " />
<glyph glyph-name="parenleft" unicode="&#x28;" horiz-adv-x="326" d="M190 215 Q190 202 190.5 186.5 Q191 171 191 157 L191 146 Q190 132 191.5 117.5 Q193 103 191 89 L191 28 Q193 8 192 -16.5 Q191 -41 201 -60 L206 -66 L213 -72 L224 -77 Q230 -80 236 -80 Q245 -82 254.5 -82 Q264 -82 273 -83 L282 -83 Q298 -86 308 -93 L314 -100 Q319 -118 320 -140 Q321 -162 312 -181 Q309 -185 305 -188 L297 -194 L288 -198 Q265 -201 246 -201 Q227 -201 205 -199 L195 -199 Q168 -197 143.5 -184.5 Q119 -172 99 -155 L92 -147 L80 -132 Q77 -130 75 -124 Q74 -121 71 -118 Q64 -97 59 -75.5 Q54 -54 52 -32 L52 66 Q52 83 51 99 Q50 115 50 132 L50 162 Q51 175 51 188 Q51 201 51 215 L50 215 L50 373 Q50 411 50.5 447 Q51 483 51 507 Q51 521 51.5 529 Q52 537 52 539 L52 725 Q51 742 53.5 758.5 Q56 775 60 791 L63 801 Q68 816 75 826 Q77 831 80 834 L92 849 L99 857 Q119 874 143.5 886.5 Q168 899 195 901 L205 901 Q219 903 231.5 903.5 Q244 904 258 903 Q260 903 262.5 902.5 Q265 902 267 902 Q286 904 301.5 893 Q317 882 319 862 Q319 859 319.5 856.5 Q320 854 320 851 Q321 841 320.5 831 Q320 821 316 811 Q315 806 312 803 Q305 791 291 788 Q290 788 284 786 Q263 783 251 784 Q249 784 246.5 783.5 Q244 783 242 783 Q233 783 224 779 L213 774 L206 768 L201 762 Q191 743 192 718.5 Q193 694 191 674 L191 636 Q189 614 189.5 593 Q190 572 190 550 L188 453 L190 400 L190 215 Z " />
<glyph glyph-name="parenright" unicode="&#x29;" horiz-adv-x="326" d="M138 453 L136 550 Q136 572 136.5 593 Q137 614 135 636 L135 674 Q133 694 134 718.5 Q135 743 125 762 L120 768 L113 774 L102 779 Q93 783 84 783 Q82 783 79.5 783.5 Q77 784 75 784 Q63 783 42 786 Q36 788 35 788 Q22 791 14 803 Q11 806 10 811 Q6 821 5.5 831 Q5 841 6 851 Q6 854 6.5 856.5 Q7 859 7 862 Q9 882 24.5 893 Q40 904 59 902 Q61 902 63.5 902.5 Q66 903 68 903 Q82 904 94.5 903.5 Q107 903 121 901 L131 901 Q158 899 182.5 886.5 Q207 874 227 857 L234 849 L246 834 Q248 832 249 830 Q250 828 251 826 Q258 816 263 801 L266 791 Q270 775 272.5 758.5 Q275 742 274 725 L274 539 Q274 537 274.5 529 Q275 521 275 507 Q275 483 275.5 447 Q276 411 276 373 L276 215 L275 215 Q275 201 275 188 Q275 175 276 162 L276 132 Q276 115 275 99 Q274 83 274 66 L274 -32 Q272 -54 267 -75.5 Q262 -97 255 -118 Q252 -121 251 -124 Q250 -129 246 -132 L234 -147 L227 -155 Q207 -172 182.5 -184.5 Q158 -197 131 -199 L121 -199 Q99 -201 80 -201 Q61 -201 38 -198 L29 -194 L21 -188 Q17 -185 14 -181 Q5 -162 6 -140 Q7 -118 12 -100 L18 -93 Q28 -86 44 -83 L53 -83 Q62 -82 71.5 -82 Q81 -82 90 -80 Q96 -80 102 -77 L113 -72 L120 -66 L125 -60 Q135 -41 134 -16.5 Q133 8 135 28 L135 89 Q133 103 134.5 117.5 Q136 132 135 146 L135 157 Q135 171 135.5 186.5 Q136 202 136 215 L136 400 L138 453 Z " />
<glyph glyph-name="asterisk" unicode="&#x2a;" horiz-adv-x="474" d="M322 495 L317 492 L322 489 Q328 486 334.5 482.5 Q341 479 348 477 L352 474 Q358 469 362 468 Q364 466 366 466 Q376 461 384 457.5 Q392 454 399 449 Q400 449 402 447 Q411 441 420 433.5 Q429 426 432 415 L432 411 Q432 410 430 402 Q428 400 430 401.5 Q432 403 430 401 L417 376 Q417 375 414 373 Q414 371 413 370 Q412 369 411 367 L407 363 Q396 356 382.5 358.5 Q369 361 358 369 L353 371 L341 378 L336 381 L324 389 L275 417 Q275 402 274.5 388.5 Q274 375 274 364 Q277 332 276 313 Q275 294 266 285 L263 282 Q261 280 256 278 L252 278 Q246 276 246 276 Q241 276 236 275.5 Q231 275 226 275 L218 275 Q217 276 211 276 L205 278 Q191 283 188 297 Q185 311 187 323 Q186 324 186 327 L186 342 Q186 347 186 352 Q186 357 187 362 L187 370 Q187 383 186.5 394 Q186 405 186 415 L162 401 Q157 399 152.5 397.5 Q148 396 144 394 Q144 393 143 393 L140 391 Q139 390 138 390 Q137 390 137 389 Q131 387 125 383 Q119 379 114 375 Q112 374 111 373 Q110 372 109 371 Q92 360 81 359 L74 359 Q67 362 63 367 Q59 372 56 377 L53 382 Q51 390 46.5 397 Q42 404 41 413 Q41 415 40.5 416.5 Q40 418 40 420 L40 428 Q42 437 55.5 443 Q69 449 82 456 L87 459 L116 475 Q118 477 119 477 L137 487 Q139 489 141 490 Q143 491 145 492 L118 508 L110 514 Q109 516 108 516.5 Q107 517 105 519 Q97 522 91 526.5 Q85 531 77 534 Q71 536 72 536 L69 538 L65 540 Q51 544 45 559 Q39 574 46 587 L50 592 L57 606 L63 616 L66 619 Q76 627 87.5 625.5 Q99 624 108 617 L113 613 Q118 610 122.5 606.5 Q127 603 132 601 L136 598 L157 585 L162 582 Q172 575 187 569 L187 600 Q188 605 188.5 609.5 Q189 614 189 619 L189 628 Q190 639 188.5 651 Q187 663 187 674 Q187 676 187.5 677 Q188 678 188 680 Q188 692 198 697.5 Q208 703 219 701 Q224 701 225 700 Q234 700 236 701 L242 701 Q246 701 249 700.5 Q252 700 255 700 Q257 700 259.5 698.5 Q262 697 264 697 Q264 696 265 696 L267 694 L271 692 Q278 686 276.5 671 Q275 656 274 642 L274 592 Q273 591 273 587 Q273 583 272.5 579.5 Q272 576 272 572 L272 566 Q274 566 276 568 Q281 570 285.5 573.5 Q290 577 295 579 L300 582 L323 595 Q358 619 377.5 626.5 Q397 634 410 619 Q411 617 410.5 618.5 Q410 620 411 618 Q417 608 419.5 604 Q422 600 423.5 597.5 Q425 595 427 590.5 Q429 586 433 575 Q435 573 433 568 Q433 564 430 561 L427 557 Q419 546 406.5 540.5 Q394 535 383 528 Q380 527 377 524 L371 521 Q370 520 368 520 L361 516 L355 513 L350 510 L322 495 Z " />
<glyph glyph-name="plus" unicode="&#x2b;" horiz-adv-x="530" d="M477 230 Q478 220 477 216.5 Q476 213 473 204 L468 197 Q461 189 444 191.5 Q427 194 412 194 L323 194 Q323 171 322.5 151 Q322 131 322 115 Q326 73 322.5 52.5 Q319 32 299 28 Q297 28 294.5 27.5 Q292 27 290 27 Q279 27 272.5 26.5 Q266 26 260.5 26 Q255 26 248.5 26.5 Q242 27 231 29 Q228 30 225 33 Q222 34 220 39 Q211 55 216 74 Q215 75 215 82 L215 93 Q215 98 215 103 Q215 108 216 113 L216 121 Q216 147 215.5 168 Q215 189 215 193 Q193 193 174 193 Q155 193 140 194 Q98 190 77.5 193.5 Q57 197 53 217 Q53 219 52.5 221.5 Q52 224 52 226 Q52 237 51.5 243.5 Q51 250 51 255.5 Q51 261 51.5 267.5 Q52 274 54 285 Q55 288 58 291 Q59 294 64 296 Q80 305 99 300 Q100 301 107 301 L118 301 Q123 301 128 301 Q133 301 138 300 L146 300 Q169 300 189 300.5 Q209 301 216 301 L216 351 Q217 356 217.5 360.5 Q218 365 218 370 L218 379 Q220 396 217 412.5 Q214 429 220 442 Q224 451 230 453 Q236 455 243 454 Q250 453 258.5 451.5 Q267 450 276 452 L286 452 Q296 453 299.5 452 Q303 451 312 448 L319 443 Q327 436 324.5 419 Q322 402 322 387 L322 300 L376 300 Q381 299 385.5 298.5 Q390 298 395 298 L404 298 Q421 296 437.5 299 Q454 302 467 296 Q476 291 478 285.5 Q480 280 479 273.5 Q478 267 476.5 258.5 Q475 250 477 240 L477 230 Z " />
<glyph glyph-name="comma" unicode="&#x2c;" horiz-adv-x="219" d="M177 62 Q178 61 178 58 Q180 54 179 51 Q178 48 177 44 L177 37 Q177 29 175.5 22 Q174 15 172 7 Q167 -7 162 -20.5 Q157 -34 151 -47 Q140 -70 129 -83 L126 -87 Q116 -98 106.5 -111 Q97 -124 81 -127 L76 -127 Q62 -123 48 -111 L45 -107 Q40 -97 44 -91 Q44 -91 46 -85 Q50 -80 54 -75.5 Q58 -71 61 -66 Q63 -64 64 -61 Q68 -57 70 -51 L73 -45 Q75 -40 77.5 -34.5 Q80 -29 84 -24 Q84 -23 84.5 -22.5 Q85 -22 85 -20 Q88 -17 88 -12 Q89 -10 89 -6 L82 -4 L74 -1 L59 12 L54 17 Q47 27 42 45 Q42 47 41.5 50 Q41 53 41 55 Q40 76 52 95 Q64 114 84 122 L94 125 Q97 126 100.5 126 Q104 126 107 126 Q130 126 149 113 L157 106 L161 103 Q169 95 172.5 84 Q176 73 177 62 Z " />
<glyph glyph-name="hyphen" unicode="&#x2d;" horiz-adv-x="530" d="M146 300 Q172 300 193 300.5 Q214 301 218 301 L315 301 L315 300 L376 300 Q381 299 385.5 298.5 Q390 298 395 298 L404 298 Q421 296 437.5 299 Q454 302 467 296 Q476 291 478 285.5 Q480 280 479 273.5 Q478 267 476.5 258.5 Q475 250 477 240 L477 230 Q478 220 477 216.5 Q476 213 473 204 L468 197 Q461 189 444 191.5 Q427 194 412 194 L315 194 L315 193 Q294 193 270 193 Q246 193 222.5 193.5 Q199 194 177.5 194 Q156 194 140 194 Q98 190 77.5 193.5 Q57 197 53 217 Q53 219 52.5 221.5 Q52 224 52 226 Q52 237 51.5 243.5 Q51 250 51 255.5 Q51 261 51.5 267.5 Q52 274 54 285 Q55 288 58 291 Q59 294 64 296 Q80 305 99 300 Q100 301 107 301 L118 301 Q123 301 128 301 Q133 301 138 300 L146 300 Z " />
<glyph glyph-name="period" unicode="&#x2e;" horiz-adv-x="219" d="M107 126 Q130 126 149 113 L157 106 Q169 97 175 83 L177 71 Q177 69 177.5 67 Q178 65 178 63 Q181 48 173 32 Q171 30 170 27 Q169 24 167 22 Q154 5 132 -3 Q124 -5 123 -5 Q117 -7 112 -7 Q107 -7 102 -7 L91 -7 L82 -4 L74 -1 L59 12 L54 17 Q47 27 42 45 Q42 47 41.5 50 Q41 53 41 55 Q40 76 52 95 Q64 114 84 122 L94 125 Q97 126 100.5 126 Q104 126 107 126 Z " />
<glyph glyph-name="slash" unicode="&#x2f;" horiz-adv-x="456" d="M200 177 L199 176 Q199 173 198 171 L196 165 L184 142 L178 130 L133 43 L130 35 L121 17 Q116 6 108 1.5 Q100 -3 90 -4.5 Q80 -6 69 -5.5 Q58 -5 48 -5 Q42 -5 40 -6 Q32 -5 23.5 -2.5 Q15 0 12 9 Q9 18 12 26.5 Q15 35 20 43 L26 51 L30 60 Q37 73 43 86 Q49 99 54 112 Q56 118 56 118 L94 200 L99 209 L120 254 L125 264 L155 326 Q156 328 161 337 L166 344 Q174 369 187 391.5 Q200 414 211 438 L214 443 L217 449 Q224 460 229.5 471 Q235 482 240 493 L286 585 L292 595 L300 613 L303 619 Q309 629 313 640 Q317 651 321.5 661.5 Q326 672 332.5 681 Q339 690 350 696 Q355 699 359 699 Q361 700 369 700 Q368 700 368 700.5 Q368 701 367 701 Q377 699 391.5 701 Q406 703 419 702.5 Q432 702 440 696.5 Q448 691 445 675 L443 666 L431 641 L428 633 Q424 623 419 617 Q415 612 413 606.5 Q411 601 409 596 L406 590 Q397 570 389.5 555 Q382 540 380 537 L377 530 Q375 526 373 521.5 Q371 517 369 512 L366 506 L346 462 L342 454 Q331 431 317 409.5 Q303 388 294 364 L289 355 L268 311 Q265 304 262 297.5 Q259 291 255 284 Q249 272 241.5 258 Q234 244 227 230 L220 216 Q214 207 209.5 197 Q205 187 200 177 Z " />
<glyph glyph-name="zero" unicode="0" horiz-adv-x="568" d="M194 698 Q213 705 233 707 Q253 709 273 710 Q280 710 287 710 Q294 710 302 711 L317 711 Q340 706 363.5 700.5 Q387 695 408 682 L416 676 Q434 664 451 647 L458 640 Q474 621 481 604 Q483 600 486 595 Q489 590 491 585 Q503 565 505.5 543 Q508 521 512 499 L514 480 L514 473 L516 453 Q518 428 517.5 403.5 Q517 379 516 355 L516 344 Q517 320 517.5 295.5 Q518 271 516 246 Q515 236 514.5 226 Q514 216 512 205 Q511 202 511 198.5 Q511 195 511 192 L506 161 Q506 159 505.5 156 Q505 153 505 151 Q505 149 504.5 146.5 Q504 144 504 142 Q494 120 483.5 99 Q473 78 458 59 L451 52 Q434 35 416 23 L408 17 Q387 4 363.5 -1.5 Q340 -7 317 -12 L302 -12 Q297 -11 291.5 -11 Q286 -11 281 -11 Q258 -11 236.5 -9 Q215 -7 194 1 L181 6 Q164 14 148.5 23 Q133 32 121 46 L113 55 Q108 62 103 69 Q98 76 94 84 Q89 94 84 105 Q79 116 75 129 Q68 148 64.5 168 Q61 188 59 208 Q57 220 56 232 Q55 244 54 256 L54 265 Q53 285 53 304.5 Q53 324 51 344 L51 353 Q50 372 50.5 390 Q51 408 53 427 Q53 429 53.5 431.5 Q54 434 54 436 L56 463 Q56 465 56.5 467.5 Q57 470 57 472 L59 491 Q61 511 64.5 531 Q68 551 75 570 Q79 583 84 594 Q89 605 94 615 Q98 623 103 630 Q108 637 113 644 L121 653 Q133 667 148.5 676 Q164 685 181 693 L194 698 Z M264 125 Q265 124 273 124 Q299 125 326 137 L332 141 L338 146 Q340 149 342.5 151.5 Q345 154 347 158 Q357 170 360.5 184 Q364 198 366 213 Q369 219 370 227 Q371 235 371 241 L373 252 Q372 255 372 265 Q372 294 373 312 Q374 330 374 353 Q374 376 372 399.5 Q370 423 373 447 L371 458 Q371 464 370 472 Q369 480 366 486 Q364 501 360.5 515 Q357 529 347 541 Q345 545 342.5 547.5 Q340 550 338 553 L332 558 L326 562 Q305 572 276 575 Q273 574 264 574 L254 571 Q238 567 226 553 L219 546 Q217 543 216 541 Q215 539 214 537 Q212 533 210 530 Q208 527 206 523 Q204 515 202 507 Q200 499 199 490 Q199 488 198.5 485.5 Q198 483 198 481 Q195 465 195 449 Q194 438 193.5 428.5 Q193 419 193 409 Q193 406 192.5 403.5 Q192 401 192 399 Q194 377 192.5 355 Q191 333 191 311 Q191 308 191.5 305.5 Q192 303 192 300 Q192 298 192.5 295.5 Q193 293 193 290 Q193 280 193.5 270.5 Q194 261 195 250 Q195 235 198 218 Q198 216 198.5 213.5 Q199 211 199 209 Q200 200 202 192 Q204 184 206 176 Q208 172 210 169 Q212 166 214 162 Q215 160 216 158 Q217 156 219 153 L226 146 Q238 132 254 128 L264 125 Z " />
<glyph glyph-name="one" unicode="1" horiz-adv-x="322" d="M101 700 Q106 700 110.5 700.5 Q115 701 120 702 L155 702 L156 703 Q179 704 200.5 704.5 Q222 705 245 701 Q248 700 251 697 Q254 696 256 691 Q265 675 260 656 Q261 655 261 648 L261 637 Q261 632 261 627 Q261 622 260 617 L260 609 Q260 583 260.5 562 Q261 541 261 537 L261 449 Q260 438 259.5 428.5 Q259 419 259 409 Q259 406 258.5 403.5 Q258 401 258 399 Q260 377 258.5 355 Q257 333 257 311 L257 96 Q256 91 255.5 86.5 Q255 82 255 77 L255 68 Q253 51 256 34.5 Q259 18 253 5 Q248 -4 239.5 -6 Q231 -8 220.5 -7 Q210 -6 199 -4.5 Q188 -3 177 -5 L167 -5 Q144 -7 129 -1 L122 4 Q114 11 116.5 28 Q119 45 119 60 L119 67 Q119 99 119 136 Q119 173 118.5 207.5 Q118 242 118 269 Q118 296 118 307 L118 353 Q117 375 118 396.5 Q119 418 120 440 Q120 442 120.5 444.5 Q121 447 121 449 L121 459 Q121 462 122 463 Q121 466 121 471 L121 490 L120 564 L84 564 Q69 564 54 561.5 Q39 559 32 567 L27 574 Q26 578 25 582.5 Q24 587 23 593 L23 599 Q22 613 23.5 626.5 Q25 640 22 654 Q22 657 21.5 660 Q21 663 21 665 Q20 676 22 684.5 Q24 693 33 698 Q46 704 60.5 701 Q75 698 92 700 L101 700 Z " />
<glyph glyph-name="two" unicode="2" horiz-adv-x="576" d="M508 134 Q520 127 520 112 L520 102 Q519 97 518 91.5 Q517 86 518 81 Q518 64 518 45.5 Q518 27 514 10 L509 3 Q502 -4 485 -2 Q475 -5 463.5 -5.5 Q452 -6 440 -5 L428 -5 Q393 -4 357.5 -2.5 Q322 -1 286 -2 L242 -2 Q234 -2 227 -2 Q220 -2 213 -1 L167 -1 Q156 1 144.5 0 Q133 -1 121 -2 Q117 -2 113.5 -2.5 Q110 -3 106 -3 Q87 -6 75 0.5 Q63 7 57 18.5 Q51 30 51 45.5 Q51 61 55 76 Q55 80 55.5 83.5 Q56 87 56 91 L58 106 Q63 136 73.5 164 Q84 192 103 216 L112 228 L118 235 Q142 263 171.5 283 Q201 303 230 325 L242 334 Q264 349 277 361 L289 370 Q297 377 305.5 383.5 Q314 390 322 398 L332 407 Q347 419 360 437 L368 448 Q373 456 377.5 465 Q382 474 384 485 Q386 498 385 500 Q385 517 378 530 Q377 532 376 533.5 Q375 535 374 537 Q373 539 372 541 Q371 543 369 546 L362 553 Q350 567 334 571 L324 574 Q302 576 279 574 Q256 572 236 562 L230 558 L224 553 Q215 544 209.5 533 Q204 522 200 510 L193 486 Q185 472 172 467.5 Q159 463 143 463 Q139 462 135.5 462.5 Q132 463 128 463 Q109 467 88.5 468 Q68 469 55 488 Q50 496 50.5 504 Q51 512 53 520 L55 533 Q60 562 74 589 Q88 616 106 639 L117 651 L129 662 L141 671 Q162 687 193 698 L204 702 Q210 704 216 705 Q222 706 229 707 Q239 709 242 709 Q256 711 269 711.5 Q282 712 296 710 L309 710 Q330 710 352 708 Q374 706 394 698 L407 693 Q424 685 439.5 676 Q455 667 467 653 L475 644 Q480 637 485 630 Q490 623 494 615 L501 601 Q503 597 504.5 593.5 Q506 590 508 586 L514 571 L518 555 Q528 522 525 487 Q522 452 510 420 L504 407 Q490 378 466 349 L455 337 Q444 322 430.5 309 Q417 296 403 285 L391 276 Q386 271 380.5 267.5 Q375 264 370 260 Q368 258 365 256 Q362 254 359 252 L349 244 Q346 242 343 240 Q340 238 338 236 Q309 216 278 198 Q247 180 227 151 L218 138 L402 138 Q424 137 445.5 136 Q467 135 489 137 L499 137 L508 134 Z " />
<glyph glyph-name="three" unicode="3" horiz-adv-x="576" d="M522 253 Q525 240 525 227 Q525 214 525 201 Q525 199 525.5 197 Q526 195 526 193 Q526 190 525.5 187.5 Q525 185 525 183 Q524 175 523 168.5 Q522 162 520 155 L518 145 Q513 123 503.5 102 Q494 81 478 64 L475 59 L467 50 Q455 36 439.5 27 Q424 18 407 10 L394 5 Q362 -7 328 -6.5 Q294 -6 260 -8 L245 -8 Q222 -3 198.5 2.5 Q175 8 154 21 L146 27 Q128 39 111 56 L104 63 Q88 82 81 99 Q79 103 76 108 Q73 113 71 118 Q65 128 62 138 Q59 148 57 159 L55 167 L51 198 Q50 200 50 208 Q51 226 68 237 L75 240 Q98 243 120.5 241.5 Q143 240 166 242 Q172 242 174 241 Q195 234 196 213 L198 204 Q198 202 198.5 200.5 Q199 199 199 197 L201 188 Q206 174 215 162 Q217 158 219 156 Q233 138 254.5 132 Q276 126 297 128 L306 128 Q311 128 315 128 Q319 128 324 129 L334 132 L341 135 Q352 140 359.5 148 Q367 156 373 166 Q376 169 377 173 Q379 177 381.5 180.5 Q384 184 384 189 Q385 190 385 195 Q386 198 386 206 Q385 208 385 213 Q385 222 382 231 Q382 233 380 239 Q375 259 360 271 L353 277 Q345 282 336.5 284.5 Q328 287 320 289 L311 289 Q306 291 301.5 291 Q297 291 292 291 Q291 290 285 290 Q276 292 265.5 291.5 Q255 291 245 291.5 Q235 292 227 296 Q219 300 215 310 Q214 311 214 319 L214 327 Q214 335 214.5 344 Q215 353 214 361 L214 382 Q214 385 214.5 387 Q215 389 216 391 Q217 395 221 397 Q228 403 236 404 Q244 405 252 404.5 Q260 404 268.5 403 Q277 402 285 404 L291 404 Q296 405 300 405 Q304 405 309 407 Q311 407 312.5 407.5 Q314 408 316 408 Q329 411 341 417 L349 422 Q371 435 379.5 459 Q388 483 385 507 Q385 512 384 513 Q383 522 378 530 Q377 532 376 533.5 Q375 535 374 537 Q373 539 372 541 Q371 543 369 546 L362 553 Q350 567 334 571 L324 574 Q302 576 279 574 Q256 572 236 562 L230 558 L224 553 Q222 550 219.5 547.5 Q217 545 215 541 Q206 529 201 515 L199 506 Q198 501 197 495.5 Q196 490 194 485 Q193 482 192 479.5 Q191 477 190 475 Q183 465 170 465 Q169 464 165 464 Q160 464 159 463 L113 463 Q98 462 80.5 463.5 Q63 465 54 481 L51 487 Q50 489 50 495 Q50 503 51 505 L55 536 L57 544 Q59 555 62 565 Q65 575 71 585 Q73 590 76 595 Q79 600 81 604 Q88 621 104 640 L111 647 Q128 664 146 676 L154 682 Q160 686 166.5 689 Q173 692 180 695 L189 698 Q211 703 233.5 707 Q256 711 279 710 L289 710 Q316 710 342 709 Q368 708 394 698 L407 693 L424 685 L432 681 Q467 660 488 625 L494 615 Q504 599 508 586 L513 570 Q518 558 521 546 Q524 534 525 520 Q525 518 525.5 515.5 Q526 513 526 510 Q525 504 525 497.5 Q525 491 525 485 L525 476 Q523 465 520.5 453.5 Q518 442 514 431 Q513 428 512 426 Q511 424 510 422 Q506 412 500 403 Q494 394 487 386 L481 380 L476 374 L470 369 Q465 364 458.5 359.5 Q452 355 445 350 Q454 345 463 341 Q472 337 479 329 L485 322 Q502 304 511 285 L515 277 Q517 272 518 268.5 Q519 265 520 261 Q522 253 522 253 Z " />
<glyph glyph-name="four" unicode="4" horiz-adv-x="512" d="M480 102 Q479 97 478.5 92.5 Q478 88 478 83 L478 74 Q476 57 479 40.5 Q482 24 476 11 Q471 2 462.5 0 Q454 -2 443.5 -1 Q433 0 422 1.5 Q411 3 400 1 L390 1 Q367 -1 352 5 L345 10 Q337 17 339.5 34 Q342 51 342 66 L342 139 L235 139 Q228 139 227 138 Q214 137 201.5 136.5 Q189 136 175 137 L128 137 Q118 137 109 137.5 Q100 138 90 138 Q88 139 82 139 Q80 139 78 138.5 Q76 138 74 138 Q72 138 70.5 138.5 Q69 139 67 139 Q59 138 53 140.5 Q47 143 40 146 L35 152 L31 166 L31 174 Q29 209 44 234 L47 242 Q56 264 65 286 Q74 308 85 330 Q87 335 89 337 L93 348 Q94 350 94 353 L96 357 Q97 359 97 361.5 Q97 364 99 366 L110 393 L113 402 Q115 404 115 406.5 Q115 409 117 411 L120 420 Q132 446 143 475 L146 483 Q151 497 160 518.5 Q169 540 178 562 Q187 584 195 603.5 Q203 623 206 633 Q206 635 207 636 L209 642 L215 658 Q216 660 217 661.5 Q218 663 219 665 Q226 691 247.5 700.5 Q269 710 294 705 Q296 705 298 704.5 Q300 704 302 704 Q311 703 321.5 703.5 Q332 704 341 703 Q350 702 357 698 Q364 694 366 683 Q366 678 365 677 Q364 672 360 666 L355 656 L347 633 L345 627 L338 609 Q338 609 336 604 L328 584 L306 519 Q304 517 303.5 514 Q303 511 302 509 Q301 506 300 504 Q299 502 298 500 Q296 490 292 481 Q288 472 285 462 L281 452 Q276 441 271.5 429.5 Q267 418 262 406 L259 398 L251 375 L247 367 L244 359 L240 351 L230 327 L218 295 Q216 289 216 289 Q214 285 212.5 281 Q211 277 209 273 Q218 275 227.5 274 Q237 273 246 274 Q253 274 254 275 L258 275 Q278 275 299.5 275 Q321 275 341 274 Q341 281 341.5 287.5 Q342 294 342 302 L342 338 Q339 351 340 359 Q340 362 340.5 364.5 Q341 367 341 369 Q345 379 352 383 Q359 387 367 389 Q369 389 371.5 389.5 Q374 390 376 390 Q399 391 420.5 391.5 Q442 392 465 388 Q468 387 471 384 Q474 383 476 378 Q485 362 480 343 Q481 342 481 335 L481 324 Q481 319 481 314 Q481 309 480 304 L480 265 Q480 223 481 184 Q482 145 480 102 Z " />
<glyph glyph-name="five" unicode="5" horiz-adv-x="577" d="M524 274 Q527 256 526.5 237.5 Q526 219 525 201 Q525 199 525.5 197.5 Q526 196 526 194 Q525 192 525 185 Q525 178 524 177 Q524 175 523.5 173.5 Q523 172 523 170 L520 156 L518 146 Q516 138 513.5 131.5 Q511 125 507 117 L503 108 Q499 102 495.5 95.5 Q492 89 487 83 Q486 79 482 75 Q477 67 471.5 61 Q466 55 460 50 L451 43 Q445 39 439 35 Q433 31 426 27 L418 22 Q406 14 390 10 Q388 8 385 7.5 Q382 7 380 6 Q340 -8 296 -6 L287 -6 Q280 -7 273.5 -7 Q267 -7 260 -7 L245 -7 Q222 -2 198.5 3.5 Q175 9 154 22 L146 28 Q128 40 111 57 L104 64 Q88 83 81 100 Q79 104 76 109 Q73 114 71 119 Q65 129 62 139 Q59 149 57 160 L55 168 L51 199 Q50 201 50 209 Q51 227 68 238 L75 241 Q98 244 120.5 242.5 Q143 241 166 243 Q172 243 174 242 Q195 235 196 214 L198 205 Q198 203 198.5 201.5 Q199 200 199 198 L201 189 Q206 175 215 163 Q217 159 219 157 Q231 141 249 135 Q267 129 286 129 L297 129 Q319 128 339.5 138.5 Q360 149 373 167 Q376 170 377 174 Q388 194 389.5 217 Q391 240 385 262 L382 271 L377 281 Q350 320 301 322 Q299 322 296 322.5 Q293 323 291 323 Q276 323 261 322 Q246 321 231 323 L181 323 Q166 325 152 323 L141 323 Q125 324 113 330 Q101 336 96 354 Q96 356 95.5 358.5 Q95 361 95 364 Q93 379 94 395 Q95 411 95 427 L95 436 Q94 454 94 471.5 Q94 489 94 507 L94 514 Q95 516 95 525 L95 532 Q94 546 94.5 561.5 Q95 577 95 593 L95 614 Q96 616 96 624 Q96 632 95 635 Q95 643 94.5 652.5 Q94 662 95 671 Q96 680 99.5 687.5 Q103 695 112 699 L120 701 Q143 702 166 703 Q189 704 212 701 L411 701 Q416 700 420.5 699.5 Q425 699 430 699 L439 699 Q456 697 472.5 700 Q489 703 502 697 Q511 692 513 683.5 Q515 675 514 664 Q514 662 513.5 659 Q513 656 513 653 Q510 639 511.5 625.5 Q513 612 512 598 L512 592 L510 582 Q509 571 502.5 567 Q496 563 487.5 562.5 Q479 562 469.5 562.5 Q460 563 452 562 Q450 562 448 562.5 Q446 563 444 563 L392 563 Q347 563 304.5 562.5 Q262 562 233 562 Q233 552 233.5 545 Q234 538 234 536 L234 520 Q233 503 233.5 487.5 Q234 472 232 455 Q232 452 231.5 448.5 Q231 445 233 443 Q234 442 237 442.5 Q240 443 243 443 Q245 443 248 442.5 Q251 442 254 442 Q256 442 258.5 441.5 Q261 441 263 441 L296 441 Q304 441 306 440 L328 440 Q330 439 338 439 L347 437 Q355 437 357 436 Q359 436 362 435.5 Q365 435 367 435 L377 433 Q380 433 382.5 432.5 Q385 432 388 431 Q398 429 408 425 L417 422 Q435 412 452.5 400.5 Q470 389 483 372 L489 364 Q499 349 505 332 Q511 315 518 298 Q518 298 520 290 L522 283 Q522 282 524 274 Z " />
<glyph glyph-name="six" unicode="6" horiz-adv-x="557" d="M502 257 Q508 235 506.5 214 Q505 193 502 171 L500 162 Q498 151 495.5 141 Q493 131 488 122 L485 115 L481 107 Q478 104 477 99 Q471 88 465 78 Q459 68 451 59 L444 52 Q427 35 409 23 L401 17 Q393 12 384 8 Q375 4 366 1 Q358 -2 347 -4 Q324 -12 301.5 -11.5 Q279 -11 256 -11 Q251 -11 247 -10.5 Q243 -10 238 -10 Q225 -8 212.5 -6 Q200 -4 187 1 L174 6 Q157 14 141.5 23 Q126 32 114 46 L106 55 Q101 62 96 69 Q91 76 87 84 Q77 100 73 113 Q71 121 71 121 Q64 138 59 155.5 Q54 173 52 191 Q52 198 51 200 Q51 202 50.5 204.5 Q50 207 50 209 L50 225 Q50 230 51 231 L51 346 L54 384 L54 416 Q55 418 55 424 Q53 444 54.5 462.5 Q56 481 59 501 Q59 507 60 509 L63 531 L65 538 Q68 557 74 572 Q78 585 83 596 Q88 607 93 617 Q97 625 102 632 Q107 639 112 646 L120 655 Q132 669 147.5 678 Q163 687 180 695 L193 700 Q212 707 232 709 Q252 711 272 712 Q279 712 286 712 Q293 712 301 713 L316 713 Q339 708 362.5 702.5 Q386 697 407 684 L415 678 Q433 666 450 649 L457 642 Q473 623 480 606 Q482 602 485 597 Q488 592 490 587 Q492 583 493.5 579.5 Q495 576 497 572 Q499 566 499 566 Q503 559 503 550 Q505 542 503 534 Q502 514 485.5 509 Q469 504 453 506 L399 506 Q381 506 366.5 515.5 Q352 525 346 542 L341 549 L337 555 L331 560 L325 564 Q304 574 275 577 Q272 576 263 576 L253 573 Q237 569 225 555 L218 548 Q216 545 215 543 Q214 541 213 539 Q211 535 209 532 Q207 529 205 525 L203 519 Q201 511 201 510 L198 501 L196 492 Q194 484 194 483 Q192 475 192 474 Q190 462 190 450.5 Q190 439 189 427 Q196 431 203 434.5 Q210 438 218 442 Q219 442 225 444 Q226 444 232 446 L240 446 L257 448 L266 448 Q286 449 306.5 448.5 Q327 448 347 441 Q355 439 357 439 Q379 432 401 420 L409 414 Q427 402 444 385 L451 378 Q467 359 474 342 Q476 338 479 333 Q482 328 484 323 Q490 313 493.5 302.5 Q497 292 499 281 Q499 279 499.5 276.5 Q500 274 500 272 Q500 270 500.5 268.5 Q501 267 501 265 Q501 263 501.5 261 Q502 259 502 257 Z M340 158 Q349 169 356 188.5 Q363 208 359 224 Q357 239 353.5 253 Q350 267 340 279 Q338 283 335.5 285.5 Q333 288 331 291 L325 296 Q308 306 287.5 310.5 Q267 315 247 309 L239 306 L234 303 Q215 292 203 273.5 Q191 255 191 233 Q191 231 190.5 229 Q190 227 190 225 Q190 222 190.5 218 Q191 214 192 209 Q192 202 193 200 Q193 198 193.5 196 Q194 194 194 192 L196 186 L199 176 Q201 172 203 169 Q205 166 207 162 Q208 160 209 158 Q210 156 212 153 L219 146 Q233 132 253 127 Q273 122 293 128 L302 130 L319 137 L325 141 L331 146 Q333 149 335.5 151.5 Q338 154 340 158 Z " />
<glyph glyph-name="seven" unicode="7" horiz-adv-x="514" d="M483 664 Q485 629 470 604 L467 596 Q458 574 449 552 Q440 530 429 508 Q428 504 425 501 L421 490 Q420 488 420 485 L418 481 Q417 479 417 476.5 Q417 474 415 472 L404 445 L401 436 Q399 434 399 431.5 Q399 429 397 427 L394 418 Q382 392 371 363 L368 355 Q360 334 350 314 Q340 294 334 272 Q333 270 332 268 Q331 266 330 263 Q321 241 309.5 211 Q298 181 287.5 152.5 Q277 124 268 101 Q259 78 255 70 Q255 68 254 67 Q252 61 252 61 L249 53 Q248 52 246 45 Q245 43 244 41.5 Q243 40 242 38 Q235 12 213.5 2.5 Q192 -7 167 -2 Q165 -2 163 -1.5 Q161 -1 159 -1 Q150 0 139.5 -0.5 Q129 -1 119.5 0 Q110 1 103 5.5 Q96 10 95 20 Q95 25 96 26 Q101 43 109 59.5 Q117 76 123 94 Q124 95 125 99 Q131 116 139 138 Q147 160 155 180 Q160 191 164 203 Q168 215 172 227 Q182 250 191 273 Q200 296 208 319 Q210 321 210.5 324 Q211 327 212 329 Q213 332 214 334 Q215 336 216 338 Q218 348 222 357 Q226 366 229 376 Q230 379 231 381.5 Q232 384 233 386 Q238 397 242.5 408.5 Q247 420 252 432 L255 440 L263 463 L267 471 Q269 478 270 479 L274 487 L284 511 L296 543 Q298 549 298 549 Q300 553 301.5 557 Q303 561 305 565 Q296 563 286.5 564 Q277 565 268 564 Q261 564 260 563 L256 563 Q216 563 174.5 563.5 Q133 564 104 564 L97 564 Q83 566 66.5 563 Q50 560 39 568 Q36 570 33 574 Q32 579 31.5 583.5 Q31 588 31 593 Q30 607 31 620.5 Q32 634 31 648 L31 658 Q30 660 30 667 L30 675 Q32 691 44 695 Q52 697 52 697 Q70 699 88.5 698 Q107 697 125 699 L142 699 Q149 699 151 700 Q176 698 201 698.5 Q226 699 251 699 L279 699 Q286 699 287 700 Q300 701 312.5 701.5 Q325 702 339 701 L386 701 Q396 701 405 700.5 Q414 700 424 700 Q426 699 432 699 Q434 699 436 699.5 Q438 700 440 700 Q442 700 443.5 699.5 Q445 699 447 699 Q455 700 461 697.5 Q467 695 474 692 L479 686 L483 672 L483 664 Z " />
<glyph glyph-name="eight" unicode="8" horiz-adv-x="563" d="M297 -7 Q286 -7 274.5 -6.5 Q263 -6 252 -7 L252 -6 Q234 -5 216.5 -3 Q199 -1 182 5 L169 10 Q152 18 136.5 27 Q121 36 109 50 L101 59 L98 64 Q82 81 72.5 102 Q63 123 58 145 L56 155 Q55 160 54 165 Q53 170 52 176 Q52 178 51.5 179.5 Q51 181 51 183 Q50 205 54 226.5 Q58 248 64 269 L68 277 L75 292 L81 299 Q87 309 95 317 Q103 325 111 333 L118 338 L134 349 L122 359 Q117 363 112 366.5 Q107 370 102 375 L96 381 L90 386 L85 393 L79 400 L74 408 Q63 427 57.5 448 Q52 469 51 491 L51 501 Q51 503 50.5 505.5 Q50 508 50 510 Q50 513 50.5 515.5 Q51 518 51 520 Q52 534 55 546 Q58 558 63 570 L68 586 Q72 599 82 615 L88 625 Q109 660 144 681 L152 685 L169 693 L182 698 Q199 705 216.5 707 Q234 709 252 710 L276 710 Q303 710 329 709 Q355 708 381 698 L394 693 L411 685 L419 681 Q434 672 447 659 Q454 653 460 646 Q470 633 479 620 Q488 607 494 592 L500 574 Q503 565 505.5 556 Q508 547 510 537 Q510 535 510.5 533 Q511 531 511 529 Q512 527 512 520 Q512 518 512.5 515.5 Q513 513 513 510 Q512 504 512 497.5 Q512 491 512 485 L512 476 L507 451 L505 445 Q495 418 477 394 L472 387 Q453 362 427 349 Q439 341 451.5 334.5 Q464 328 472 315 L477 308 Q495 284 505 255 Q505 255 507 247 Q507 245 507.5 242.5 Q508 240 508 238 Q511 217 511.5 196 Q512 175 507 155 L505 145 Q500 123 490.5 102 Q481 81 465 64 L462 59 L454 50 Q442 36 426.5 27 Q411 18 394 10 L381 5 Q364 -1 346 -3 Q328 -5 311 -6 L311 -7 L297 -7 Z M321 571 Q306 573 297.5 574 Q289 575 281 575 Q273 575 264.5 574 Q256 573 242 571 Q226 567 214 553 L207 546 Q205 543 204 541 Q203 539 202 537 Q200 535 198 530 Q193 522 192 513 Q191 512 191 507 Q188 482 195 463 L198 456 Q209 424 241 413 Q243 412 245 411 Q247 410 250 409 L260 407 Q275 403 298 406 L306 408 Q332 414 351 434 L357 442 Q377 471 372 507 Q372 512 371 513 Q370 522 365 530 Q364 532 363 533.5 Q362 535 361 537 Q360 539 359 541 Q358 543 356 546 L349 553 Q337 567 321 571 Z M282 290 Q269 290 256.5 288.5 Q244 287 232 282 Q230 281 228 280 Q226 279 223 277 L216 271 Q201 259 196 239 Q194 233 194 231 Q191 222 191 213 Q191 208 190 206 Q190 198 191 195 Q191 190 192 189 Q192 184 194.5 180.5 Q197 177 199 173 Q201 167 203 166 Q209 156 216.5 148 Q224 140 235 135 L242 132 L252 129 Q257 128 261 128 Q265 128 270 128 L309 128 Q310 128 311 129 L321 132 L328 135 Q339 140 346.5 148 Q354 156 360 166 Q363 169 364 173 L370 184 Q371 185 371 189 Q374 198 374 206 Q374 213 373 215 Q373 226 369 236 Q365 246 360 257 L356 262 L347 271 L340 277 L332 281 L325 284 Q311 289 297 290 L282 290 Z " />
<glyph glyph-name="nine" unicode="9" horiz-adv-x="557" d="M55 444 Q49 466 50.5 487 Q52 508 55 530 L57 539 Q59 550 61.5 560 Q64 570 69 579 L72 586 L76 594 Q79 597 80 602 Q86 613 92 623 Q98 633 106 642 L113 649 Q130 666 148 678 L156 684 Q164 689 173 693 Q182 697 191 700 Q199 703 210 705 Q233 713 255.5 712.5 Q278 712 301 712 Q306 712 310 711.5 Q314 711 319 711 Q332 709 344.5 707 Q357 705 370 700 L383 695 Q400 687 415.5 678 Q431 669 443 655 L451 646 Q456 639 461 632 Q466 625 470 617 Q480 601 484 588 Q486 580 486 580 Q493 563 498 545.5 Q503 528 505 510 Q505 503 506 501 Q506 499 506.5 496.5 Q507 494 507 492 L507 476 Q507 471 506 470 L506 355 L503 317 L503 285 Q502 283 502 277 Q504 257 502.5 238.5 Q501 220 498 200 Q498 194 497 192 L494 170 L492 163 Q489 145 483 129 Q479 116 474 105 Q469 94 464 84 Q460 76 455 69 Q450 62 445 55 L437 46 Q425 32 409.5 23 Q394 14 377 6 L364 1 Q345 -6 325 -8 Q305 -10 285 -11 Q278 -11 271 -11 Q264 -11 256 -12 L241 -12 Q218 -7 194.5 -1.5 Q171 4 150 17 L142 23 Q124 35 107 52 L100 59 Q84 78 77 95 Q75 99 72 104 Q69 109 67 114 Q65 118 63.5 121.5 Q62 125 60 129 Q58 135 58 135 Q54 142 54 151 Q52 159 54 167 Q55 187 71.5 192 Q88 197 104 195 L158 195 Q176 195 190.5 185.5 Q205 176 211 159 L216 152 L220 146 L226 141 L232 137 Q253 127 282 124 Q285 125 294 125 L304 128 Q320 132 332 146 L339 153 Q341 156 342 158 Q343 160 344 162 Q346 166 348 169 Q350 172 352 176 L354 182 Q356 190 356 191 L359 200 L361 209 Q363 217 363 218 Q365 226 365 227 Q367 239 367 250.5 Q367 262 368 274 Q353 264 339 259 Q338 259 332 257 Q331 257 325 255 L317 255 L300 253 L291 253 Q271 252 250.5 252.5 Q230 253 210 260 Q202 262 200 262 Q178 269 156 281 L148 287 Q130 299 113 316 L106 323 Q90 342 83 359 Q81 363 78 368 Q75 373 73 378 Q67 388 63.5 398.5 Q60 409 58 420 Q58 422 57.5 424.5 Q57 427 57 429 Q57 431 56.5 432.5 Q56 434 56 436 Q56 438 55.5 440 Q55 442 55 444 Z M217 543 Q209 532 201 512 Q193 492 198 477 Q200 462 203.5 448 Q207 434 217 422 Q219 418 221.5 415.5 Q224 413 226 410 L232 405 Q249 395 269.5 390.5 Q290 386 310 392 L318 395 L323 398 Q342 409 354 427.5 Q366 446 366 468 Q366 470 366.5 472 Q367 474 367 476 Q367 479 366.5 483 Q366 487 365 492 Q365 499 364 501 Q364 503 363.5 505 Q363 507 363 509 L361 515 L358 525 Q356 529 354 532 Q352 535 350 539 Q349 541 348 543 Q347 545 345 548 L338 555 Q324 569 304 574 Q284 579 264 573 L255 571 L238 564 L232 560 L226 555 Q224 552 221.5 549.5 Q219 547 217 543 Z " />
<glyph glyph-name="colon" unicode="&#x3a;" horiz-adv-x="219" d="M107 126 Q130 126 149 113 L157 106 Q169 97 175 83 L177 71 Q177 69 177.5 67 Q178 65 178 63 Q181 48 173 32 Q171 30 170 27 Q169 24 167 22 Q154 5 132 -3 Q124 -5 123 -5 Q117 -7 112 -7 Q107 -7 102 -7 L91 -7 L82 -4 L74 -1 L59 12 L54 17 Q47 27 42 45 Q42 47 41.5 50 Q41 53 41 55 Q40 76 52 95 Q64 114 84 122 L94 125 Q97 126 100.5 126 Q104 126 107 126 Z M107 501 Q130 501 149 488 L157 481 Q169 472 175 458 L177 446 Q177 444 177.5 442 Q178 440 178 438 Q181 423 173 407 Q171 405 170 402 Q169 399 167 397 Q154 380 132 372 Q124 370 123 370 Q117 368 112 368 Q107 368 102 368 L91 368 L82 371 L74 374 L59 387 L54 392 Q47 402 42 420 Q42 422 41.5 425 Q41 428 41 430 Q40 451 52 470 Q64 489 84 497 L94 500 Q97 501 100.5 501 Q104 501 107 501 Z " />
<glyph glyph-name="semicolon" unicode="&#x3b;" horiz-adv-x="219" d="M107 501 Q130 501 149 488 L157 481 Q169 472 175 458 L177 446 Q177 444 177.5 442 Q178 440 178 438 Q181 423 173 407 Q171 405 170 402 Q169 399 167 397 Q154 380 132 372 Q124 370 123 370 Q117 368 112 368 Q107 368 102 368 L91 368 L82 371 L74 374 L59 387 L54 392 Q47 402 42 420 Q42 422 41.5 425 Q41 428 41 430 Q40 451 52 470 Q64 489 84 497 L94 500 Q97 501 100.5 501 Q104 501 107 501 Z M177 62 Q178 61 178 58 Q180 54 179 51 Q178 48 177 44 L177 37 Q177 29 175.5 22 Q174 15 172 7 Q167 -7 162 -20.5 Q157 -34 151 -47 Q140 -70 129 -83 L126 -87 Q116 -98 106.5 -111 Q97 -124 81 -127 L76 -127 Q62 -123 48 -111 L45 -107 Q40 -97 44 -91 Q44 -91 46 -85 Q50 -80 54 -75.5 Q58 -71 61 -66 Q63 -64 64 -61 Q68 -57 70 -51 L73 -45 Q75 -40 77.5 -34.5 Q80 -29 84 -24 Q84 -23 84.5 -22.5 Q85 -22 85 -20 Q88 -17 88 -12 Q89 -10 89 -6 L82 -4 L74 -1 L59 12 L54 17 Q47 27 42 45 Q42 47 41.5 50 Q41 53 41 55 Q40 76 52 95 Q64 114 84 122 L94 125 Q97 126 100.5 126 Q104 126 107 126 Q130 126 149 113 L157 106 L161 103 Q169 95 172.5 84 Q176 73 177 62 Z " />
<glyph glyph-name="less" unicode="&#x3c;" horiz-adv-x="417" d="M376 78 Q376 76 376.5 74.5 Q377 73 377 72 Q376 56 362 42 L358 37 L337 15 L332 11 Q330 10 329.5 9 Q329 8 327 7 Q318 0 308.5 3.5 Q299 7 292 13 Q291 15 290 15.5 Q289 16 288 18 Q283 23 278.5 27.5 Q274 32 269 36 L264 40 Q262 41 257 46 Q254 49 249.5 52 Q245 55 240 60 L229 69 Q221 76 213.5 82.5 Q206 89 198 95 Q193 99 189.5 102 Q186 105 182 108 Q171 116 161.5 125 Q152 134 141 142 L127 154 Q123 156 120 159 Q117 162 114 165 Q112 167 109.5 168.5 Q107 170 105 172 L96 178 L87 185 Q77 196 63 206 L58 210 Q48 220 44 232 L41 241 Q37 261 49.5 275.5 Q62 290 76 301 L84 309 L90 314 L109 329 L123 343 L131 350 L141 359 L145 362 L150 366 L163 377 Q165 378 165.5 379 Q166 380 168 381 Q174 386 180.5 390.5 Q187 395 193 400 L197 404 Q199 405 200 406 Q201 407 202 408 Q211 415 219.5 422 Q228 429 236 436 L239 439 Q251 446 255 450 L262 456 Q269 461 275 467 Q281 473 287 478 L293 484 Q301 494 309.5 495 Q318 496 326 492 Q334 488 341 480.5 Q348 473 354 466 Q357 462 361 459 Q369 451 373.5 441.5 Q378 432 376 420 Q376 419 374 413 Q369 405 357 397 Q345 389 335 381 L330 377 L321 369 Q317 365 311.5 361 Q306 357 301 352 Q299 351 298 350 Q297 349 295 348 Q277 334 261 318.5 Q245 303 227 289 L220 284 L213 278 L178 250 Q194 236 211 224 Q228 212 243 197 L251 190 Q263 178 276 167.5 Q289 157 302 146 L316 133 Q319 129 323 126 L330 120 Q338 112 347 106.5 Q356 101 364 94 Q366 93 366.5 92 Q367 91 368 90 Q371 88 372.5 84.5 Q374 81 376 78 Z " />
<glyph glyph-name="equal" unicode="&#x3d;" horiz-adv-x="530" d="M146 408 Q172 408 193 408.5 Q214 409 218 409 L315 409 L315 408 L376 408 Q381 407 385.5 406.5 Q390 406 395 406 L404 406 Q421 404 437.5 407 Q454 410 467 404 Q476 399 478 393.5 Q480 388 479 381.5 Q478 375 476.5 366.5 Q475 358 477 348 L477 338 Q478 328 477 324.5 Q476 321 473 312 L468 305 Q461 297 444 299.5 Q427 302 412 302 L315 302 L315 301 Q294 301 270 301 Q246 301 222.5 301.5 Q199 302 177.5 302 Q156 302 140 302 Q98 298 77.5 301.5 Q57 305 53 325 Q53 327 52.5 329.5 Q52 332 52 334 Q52 345 51.5 351.5 Q51 358 51 363.5 Q51 369 51.5 375.5 Q52 382 54 393 Q55 396 58 399 Q59 402 64 404 Q80 413 99 408 Q100 409 107 409 L118 409 Q123 409 128 409 Q133 409 138 408 L146 408 Z M146 201 Q172 201 193 201.5 Q214 202 218 202 L315 202 L315 201 L376 201 Q381 200 385.5 199.5 Q390 199 395 199 L404 199 Q421 197 437.5 200 Q454 203 467 197 Q476 192 478 186.5 Q480 181 479 174.5 Q478 168 476.5 159.5 Q475 151 477 141 L477 131 Q478 121 477 117.5 Q476 114 473 105 L468 98 Q461 90 444 92.5 Q427 95 412 95 L315 95 L315 94 Q294 94 270 94 Q246 94 222.5 94.5 Q199 95 177.5 95 Q156 95 140 95 Q98 91 77.5 94.5 Q57 98 53 118 Q53 120 52.5 122.5 Q52 125 52 127 Q52 138 51.5 144.5 Q51 151 51 156.5 Q51 162 51.5 168.5 Q52 175 54 186 Q55 189 58 192 Q59 195 64 197 Q80 206 99 201 Q100 202 107 202 L118 202 Q123 202 128 202 Q133 202 138 201 L146 201 Z " />
<glyph glyph-name="greater" unicode="&#x3e;" horiz-adv-x="417" d="M41 78 Q43 81 44.5 84.5 Q46 88 49 90 Q50 91 50.5 92 Q51 93 53 94 Q61 101 70 106.5 Q79 112 87 120 L94 126 Q98 129 101 133 L115 146 Q128 157 141 167.5 Q154 178 166 190 L174 197 Q189 212 206 224 Q223 236 239 250 L204 278 L197 284 L190 289 Q172 303 156 318.5 Q140 334 122 348 Q120 349 119 350 Q118 351 116 352 Q104 361 96 369 L87 377 L82 381 Q72 389 60 397 Q48 405 43 413 Q41 419 41 420 Q39 432 43.5 441.5 Q48 451 56 459 Q60 462 63 466 Q69 473 76 480.5 Q83 488 91 492 Q99 496 107.5 495 Q116 494 124 484 L130 478 Q136 473 142 467 Q148 461 155 456 L162 450 Q166 446 178 439 L181 436 Q189 429 197.5 422 Q206 415 215 408 Q216 407 217 406 Q218 405 220 404 L224 400 Q230 395 236.5 390.5 Q243 386 249 381 Q251 380 251.5 379 Q252 378 254 377 L267 366 L272 362 L276 359 L286 350 L294 343 L308 329 L327 314 L333 309 L341 301 Q355 290 367.5 275.5 Q380 261 376 241 L373 232 Q369 220 359 210 L354 206 Q341 196 330 185 L321 178 L312 172 Q310 170 307.5 168.5 Q305 167 303 165 Q300 162 297 159 Q294 156 290 154 L276 142 Q265 134 255.5 125 Q246 116 235 108 Q231 105 227.5 102 Q224 99 219 95 Q211 89 203.5 82.5 Q196 76 188 69 L177 60 Q172 55 167.5 52 Q163 49 160 46 Q155 41 153 40 L148 36 Q143 32 138.5 27.5 Q134 23 129 18 Q128 16 127 15.5 Q126 15 125 13 Q118 7 108.5 3.5 Q99 0 90 7 Q88 8 87.5 9 Q87 10 85 11 L80 15 L59 37 L55 42 Q42 56 40 72 Q40 73 40.5 74.5 Q41 76 41 78 Z " />
<glyph glyph-name="question" unicode="&#x3f;" horiz-adv-x="576" d="M518 555 Q528 522 525 487 Q522 452 510 420 L504 407 Q490 378 466 349 L460 343 L454 336 Q432 311 404 297 L395 294 Q390 290 384.5 287.5 Q379 285 373 282 L365 279 Q357 276 348 273 Q339 270 331 266 Q328 263 325 262 L320 258 Q318 256 317 255.5 Q316 255 315 253 L310 248 L304 236 Q300 225 299 208.5 Q298 192 289 184 Q286 182 284 181 Q282 180 280 179 Q263 174 245 173.5 Q227 173 209 173 Q201 173 198 174 Q196 174 193 174.5 Q190 175 188 175 L177 178 Q174 179 172 180 Q170 181 168 182 Q164 183 161 188 Q158 191 158 196 Q156 218 159 243.5 Q162 269 170 289 L174 296 Q182 309 189.5 320 Q197 331 208 341 L216 347 Q245 372 277 384 L285 388 L294 391 L303 395 Q325 403 344 418 Q363 433 374 454 L378 462 Q382 472 384 485 Q384 487 384.5 488.5 Q385 490 385 492 L385 500 Q385 517 378 530 Q377 532 376 533.5 Q375 535 374 537 Q373 539 372 541 Q371 543 369 546 L362 553 Q350 567 334 571 L324 574 Q302 576 279 574 Q256 572 236 562 L230 558 L224 553 Q215 544 209.5 533 Q204 522 200 510 L193 486 Q185 472 172 467.5 Q159 463 143 463 Q139 462 135.5 462.5 Q132 463 128 463 Q109 467 88.5 468 Q68 469 55 488 Q50 496 50.5 504 Q51 512 53 520 L55 533 Q60 562 74 589 Q88 616 106 639 L117 651 L129 662 L141 671 Q162 687 193 698 L204 702 Q215 704 226.5 705.5 Q238 707 250 709 Q252 709 254.5 709.5 Q257 710 259 710 Q279 712 300 711.5 Q321 711 341 709 Q344 709 346.5 708.5 Q349 708 352 708 Q376 705 394 698 L407 693 Q424 685 439.5 676 Q455 667 467 653 L475 644 Q480 637 485 630 Q490 623 494 615 L501 601 Q503 597 504.5 593.5 Q506 590 508 586 L514 571 L518 555 Z M217 123 Q240 123 257 110 L265 104 Q274 96 282 82 L284 70 Q284 68 284.5 66.5 Q285 65 285 63 Q288 49 280 33 Q278 31 277 28.5 Q276 26 274 24 Q264 8 241 0 Q233 -2 232 -2 Q227 -4 222 -4 Q217 -4 212 -4 L202 -4 L193 -1 L186 2 L171 14 L167 19 Q160 31 155 46 Q155 48 154.5 50.5 Q154 53 154 55 Q153 75 164.5 93 Q176 111 195 119 L205 122 Q208 123 217 123 Z " />
<glyph glyph-name="at" unicode="&#x40;" horiz-adv-x="806" d="M764 313 Q766 295 765.5 277.5 Q765 260 763 242 Q763 240 762.5 237.5 Q762 235 762 233 Q757 198 746 168 Q745 166 744.5 163 Q744 160 742 158 L740 152 L730 137 L723 130 L716 121 Q710 113 703 107.5 Q696 102 688 97 L689 97 Q690 97 691 98 Q678 89 664 82 Q650 75 634 74 L625 72 Q600 69 583 70 L573 72 Q549 77 527.5 90.5 Q506 104 495 127 L491 135 L483 153 Q478 159 471.5 152.5 Q465 146 457 144 L451 141 Q439 135 427 132 Q419 130 418 130 Q395 126 371.5 129 Q348 132 326 139 L312 145 Q300 150 290.5 157 Q281 164 272 173 L265 180 Q259 188 253 198 L250 204 Q228 249 241 298 Q241 300 243 308 Q254 354 289 383 L296 388 Q300 392 304 393 L312 397 L328 404 L336 407 Q359 412 383.5 412.5 Q408 413 430 404 L439 400 L448 394 Q452 392 456 388.5 Q460 385 464 382 L471 376 Q473 375 474.5 372.5 Q476 370 478 368 L480 380 L480 389 Q480 396 481 398 L484 404 Q498 414 515 411 Q532 408 548 405 Q553 403 555 397 Q557 391 557 390 Q558 385 557.5 379 Q557 373 557 368 Q557 366 556.5 364.5 Q556 363 556 361 Q557 349 555.5 336.5 Q554 324 554 312 L554 287 Q554 281 555 280 L555 274 Q555 267 556 264 L556 254 Q555 247 555 240 Q555 233 555 226 Q555 224 555.5 222.5 Q556 221 556 219 Q554 197 570.5 182.5 Q587 168 608 178 Q627 186 634 204.5 Q641 223 643 241 Q643 243 643.5 246 Q644 249 644 251 Q645 254 645 266 Q645 272 644 274 Q645 281 645.5 288 Q646 295 646 302 L646 311 Q646 334 638.5 355.5 Q631 377 622 398 L618 405 Q614 413 609 419.5 Q604 426 599 432 L594 438 L587 446 Q570 463 555 474 L547 481 Q534 490 512 502 Q509 503 506.5 504 Q504 505 502 506 Q469 520 431 523 Q429 524 421 524 Q387 528 351 516 L341 513 L330 510 L320 507 Q303 499 285 490.5 Q267 482 251 470 L235 456 Q227 448 219.5 440.5 Q212 433 206 424 L200 416 Q194 405 189 394.5 Q184 384 181 372 Q180 370 179 367.5 Q178 365 177 362 Q169 342 166 322 Q163 302 163 280 L163 266 Q162 258 162.5 251 Q163 244 164 237 Q164 234 164.5 231.5 Q165 229 165 227 Q172 181 195 143 L201 134 L207 126 Q237 90 278 67 L286 62 L294 58 L301 55 Q304 54 307 53 Q310 52 314 50 L323 47 L332 43 L341 40 Q357 33 379 30 Q386 30 387 29 Q405 26 423 26 Q441 26 458 21 Q461 20 463.5 19 Q466 18 468 17 Q475 10 477 -1.5 Q479 -13 478 -25 Q477 -37 473 -48.5 Q469 -60 463 -68 Q460 -72 455 -73 L448 -75 Q443 -77 437 -77 Q431 -77 426 -78 L416 -78 Q396 -79 377.5 -76.5 Q359 -74 340 -71 L331 -69 Q310 -67 290 -59.5 Q270 -52 250 -45 L242 -41 Q238 -39 235 -37 Q232 -35 228 -33 Q225 -31 223 -30 Q221 -29 219 -28 Q185 -15 159 10 L151 17 L137 32 L130 38 Q127 41 125 45 Q122 48 119.5 51.5 Q117 55 115 59 L110 67 Q96 87 84.5 108 Q73 129 66 152 Q65 155 64 157 Q63 159 62 161 Q51 183 49 207 Q47 231 42 254 Q42 256 41.5 258.5 Q41 261 41 263 Q40 281 42.5 299 Q45 317 47 335 L49 345 Q53 367 60 388.5 Q67 410 75 431 L78 440 Q87 462 101 480 Q115 498 129 516 L142 529 L155 541 Q158 546 163 549 Q182 567 204.5 580.5 Q227 594 251 605 Q254 608 259 609 Q265 612 271 614.5 Q277 617 283 619 Q283 619 291 621 Q293 621 294.5 621.5 Q296 622 298 622 Q306 624 306 624 Q318 626 330 629 Q342 632 354 635 Q356 635 364 637 Q369 637 371 638 Q392 642 413 638.5 Q434 635 455 637 Q457 637 459.5 636.5 Q462 636 464 636 Q471 636 473 635 Q475 635 476 634.5 Q477 634 479 634 L493 630 Q494 630 502 628 Q511 626 519.5 623 Q528 620 537 617 L554 610 Q562 607 568.5 603.5 Q575 600 582 596 L591 590 Q612 576 633 562 Q654 548 669 527 L675 520 Q682 510 689 501 Q696 492 702 482 L708 472 Q711 467 713.5 463 Q716 459 718 454 Q720 451 721 449 Q722 447 723 445 Q746 407 753 365 Q755 355 755 355 Q758 347 759.5 339 Q761 331 763 323 Q764 321 764 313 Z M446 266 Q448 274 446.5 282 Q445 290 441 298 Q440 301 437 304 L431 310 Q428 313 424 315 Q413 323 398 323 Q390 323 388 322 Q387 322 379 320 Q356 312 348 290 Q340 268 351 247 L355 239 L361 232 Q363 229 369 227 Q379 222 390 222 Q401 222 412 225 L420 228 Q440 239 445 260 Q445 262 445.5 263 Q446 264 446 266 Z M686 96 Q687 96 688 97 Q686 96 686 96 Z " />
<glyph glyph-name="A" unicode="A" horiz-adv-x="633" d="M579 -4 Q566 -6 552.5 -4.5 Q539 -3 525 -2 L516 -2 Q509 -2 502 -1.5 Q495 -1 488 0 Q486 0 480 2 Q466 10 457 29 L454 38 L447 64 L444 73 Q438 89 432 104 Q426 119 421 136 L328 136 Q306 135 284.5 136 Q263 137 241 138 Q239 138 236.5 138.5 Q234 139 232 139 L222 139 Q219 139 218 140 Q217 139 215 139 L209 139 L206 129 Q199 111 195.5 92 Q192 73 184 55 Q182 47 182 46 Q180 38 180 37 L177 27 Q176 24 175 21.5 Q174 19 173 17 Q168 7 159 3 Q157 2 155 1 Q153 0 150 -1 Q128 -5 106 -5 Q84 -5 61 -3 Q59 -3 57.5 -2.5 Q56 -2 54 -2 L41 1 Q37 3 34 6 Q30 11 30 18.5 Q30 26 31 32 Q33 40 33 41 L39 55 Q41 65 43.5 73.5 Q46 82 50 90 Q52 99 54.5 108 Q57 117 60 126 L63 134 L78 185 L81 195 Q86 206 89 217.5 Q92 229 96 241 Q96 242 98 250 L116 303 Q117 305 117.5 308 Q118 311 120 313 L129 341 L132 351 Q140 371 144 390 L147 399 L159 429 L162 439 Q167 451 170 463 Q173 475 177 488 L180 497 Q183 509 186.5 521.5 Q190 534 194 546 Q195 549 196 551 Q197 553 198 555 Q206 573 211 592 Q216 611 222 630 L225 639 Q228 647 230 658 L233 666 Q237 679 244 689.5 Q251 700 264 703 Q269 703 273.5 703 Q278 703 283 704 Q297 705 310.5 706 Q324 707 338 706 L347 706 Q354 706 356 705 Q358 705 366 703 Q373 696 379 687 Q384 681 389 669 L395 652 L410 613 L413 604 Q422 580 430 556 Q438 532 447 508 Q448 505 449 502.5 Q450 500 451 498 Q453 491 456 484 Q459 477 461 469 L464 460 Q467 451 470 442.5 Q473 434 475 425 L481 407 Q482 405 483 402.5 Q484 400 485 397 L491 379 Q495 367 499 355.5 Q503 344 508 333 L511 323 Q514 313 517 303.5 Q520 294 522 284 L524 275 Q529 255 537 232 L540 223 Q549 201 555 178 L557 169 Q562 145 571 128 L574 117 Q577 108 580.5 98.5 Q584 89 587 78 L592 64 Q592 62 594 56 L597 47 Q602 35 602.5 19 Q603 3 587 -2 L579 -4 Z M282 276 Q304 278 326 276.5 Q348 275 370 275 L380 275 L379 279 L376 290 Q370 311 363.5 330 Q357 349 349 367 L347 375 Q338 395 332 415.5 Q326 436 318 456 L315 465 Q314 467 313 470 Q312 473 311 478 Q309 468 307 460.5 Q305 453 303 446 Q303 446 301 438 Q301 436 299 428 Q299 427 297 421 Q295 411 291.5 402 Q288 393 285 384 L282 375 Q276 365 273 350 Q273 349 271 341 Q266 324 260.5 309 Q255 294 250 277 L272 277 Q275 277 277.5 276.5 Q280 276 282 276 Z " />
<glyph glyph-name="B" unicode="B" horiz-adv-x="586" d="M535 209 Q536 207 536 199 L536 190 Q535 153 521 121 L516 112 Q506 87 486 66 L479 59 Q468 48 456 39 L448 33 Q425 15 397 9 Q369 3 341 -2 L320 -2 Q310 -3 300.5 -3.5 Q291 -4 280 -4 L248 -4 Q226 -6 204 -4.5 Q182 -3 160 -2 L109 -2 Q85 -7 74.5 8 Q64 23 62 43 L62 54 Q62 74 63 95 Q64 116 63 136 L63 145 Q63 156 63.5 167.5 Q64 179 63 190 L63 200 Q65 223 63 247 Q63 249 63.5 251.5 Q64 254 64 256 L64 308 Q63 310 63 318 Q65 370 60 420 Q61 422 61 427 Q61 429 61.5 430.5 Q62 432 62 434 L62 442 Q62 444 62.5 447 Q63 450 63 452 Q63 460 64 463 Q62 470 62 477 Q62 484 61 491 L61 501 Q60 518 61.5 534 Q63 550 61 567 L61 577 Q60 590 61 602.5 Q62 615 63 628 L63 649 Q62 669 69 685 L73 693 L80 699 Q100 706 120 704.5 Q140 703 160 703 L170 703 Q182 703 194 702.5 Q206 702 218 703 L228 703 Q265 708 301 703 Q303 703 305 702.5 Q307 702 309 702 Q323 703 335.5 700.5 Q348 698 361 696 Q363 696 366 695.5 Q369 695 371 695 Q394 694 415 684 Q436 674 456 663 L466 658 L475 651 L483 644 Q511 615 523 573 L525 563 L527 556 Q527 554 528 553 Q535 528 536 502.5 Q537 477 525 453 L521 443 L518 437 Q517 436 517 434 Q515 429 512.5 425 Q510 421 507 416 Q502 409 500 408 Q492 397 483 387.5 Q474 378 464 370 L456 364 Q451 361 445.5 358 Q440 355 434 353 L427 350 L433 347 Q456 337 476 321 Q496 305 508 283 L514 275 Q517 271 519 265 Q531 243 534 219 Q535 216 535 209 Z M201 478 Q202 476 202 469 Q202 467 201.5 465 Q201 463 201 461 L201 460 L200 460 L200 452 Q199 450 199 443 Q199 435 200 433 L200 415 L223 415 Q231 415 238.5 414.5 Q246 414 254 414 L265 414 Q287 413 309 413 Q331 413 352 419 L361 423 Q377 431 381 444 Q383 446 383.5 448.5 Q384 451 385 453 L388 464 L390 472 Q392 485 389 494 Q389 496 388.5 497.5 Q388 499 388 501 L388 504 L386 513 Q384 518 381 523 Q378 528 376 532 Q373 538 370 541 Q361 558 341 564 Q321 570 302 572 Q300 571 293 571 Q273 571 254.5 572 Q236 573 217 571 L210 571 Q205 570 202 567 Q199 561 200 552 Q201 543 201 535 L201 525 Q201 513 202 501.5 Q203 490 202 478 L201 478 Z M391 212 L388 232 L386 241 L382 249 L379 256 Q370 268 356 273.5 Q342 279 326 281 Q319 281 317 282 L274 282 Q255 283 237 282 Q219 281 200 283 Q202 267 199.5 251.5 Q197 236 199 219 Q199 213 200 212 L200 176 Q201 169 200 161.5 Q199 154 201 149 Q201 146 204 144 Q226 134 251 136 Q276 138 299 137 Q306 137 308 138 Q322 140 334 144 L344 147 Q364 155 376 170 Q378 175 381 178 L385 185 Q386 187 387 189 Q388 191 389 194 L391 210 L391 212 Z " />
<glyph glyph-name="C" unicode="C" horiz-adv-x="590" d="M534 241 Q540 234 539.5 221.5 Q539 209 537 198 L537 192 L532 161 Q532 159 531.5 156 Q531 153 531 151 Q531 149 530.5 146.5 Q530 144 530 142 Q520 120 509.5 99 Q499 78 484 59 L477 52 Q460 35 442 23 L434 17 Q413 4 389.5 -1.5 Q366 -7 343 -12 L328 -12 Q294 -10 260 -10.5 Q226 -11 194 1 L181 6 Q164 14 148.5 23 Q133 32 121 46 L113 55 Q108 62 103 69 Q98 76 94 84 Q89 94 84 105 Q79 116 75 129 Q68 148 64.5 168 Q61 188 59 208 Q57 220 56 232 Q55 244 54 256 L54 265 Q53 285 53 304.5 Q53 324 51 344 L51 353 Q50 372 50.5 390 Q51 408 53 427 Q53 429 53.5 431.5 Q54 434 54 436 L56 463 Q56 465 56.5 467.5 Q57 470 57 472 L59 491 Q61 511 64.5 531 Q68 551 75 570 Q79 583 84 594 Q89 605 94 615 Q98 623 103 630 Q108 637 113 644 L121 653 Q133 667 148.5 676 Q164 685 181 693 L194 698 Q226 710 260 709.5 Q294 709 328 711 L343 711 Q366 706 389.5 700.5 Q413 695 434 682 L442 676 Q460 664 477 647 L484 640 Q500 621 507 604 Q509 600 512 595 Q515 590 517 585 Q523 575 526 565 Q529 555 531 544 L533 536 Q535 521 537.5 505 Q540 489 532 475 Q531 474 531 470 Q516 462 499.5 461.5 Q483 461 466 465 L432 465 Q424 465 415 464.5 Q406 464 401 469 Q395 476 393 486 Q391 496 389 506 L387 515 Q382 529 373 541 Q371 545 368.5 547.5 Q366 550 364 553 L358 558 L352 562 Q332 572 309 574 Q286 576 264 574 L254 571 Q238 567 226 553 L219 546 Q217 543 216 541 Q215 539 214 537 Q212 533 210 530 Q208 527 206 523 Q204 515 202 507 Q200 499 199 490 Q199 488 198.5 485.5 Q198 483 198 481 Q195 465 195 449 Q194 438 193.5 428.5 Q193 419 193 409 Q193 406 192.5 403.5 Q192 401 192 399 Q194 377 192.5 355 Q191 333 191 311 Q191 308 191.5 305.5 Q192 303 192 300 Q192 298 192.5 295.5 Q193 293 193 290 Q193 280 193.5 270.5 Q194 261 195 250 Q195 235 198 218 Q198 216 198.5 213.5 Q199 211 199 209 Q200 200 202 192 Q204 184 206 176 Q208 172 210 169 Q212 166 214 162 Q215 160 216 158 Q217 156 219 153 L226 146 Q238 132 254 128 L264 125 Q286 123 309 125 Q332 127 352 137 L358 141 L364 146 Q366 149 368.5 151.5 Q371 154 373 158 Q380 166 383.5 175 Q387 184 389 193 L391 203 Q391 205 391.5 206.5 Q392 208 392 210 Q392 222 396 229 Q400 238 406 242 Q418 248 430.5 249 Q443 250 456 249 Q469 248 482 247 Q495 246 508 248 Q520 248 523 247 Q531 244 534 241 Z " />
<glyph glyph-name="D" unicode="D" horiz-adv-x="596" d="M544 344 Q545 320 545.5 301 Q546 282 544 257 Q543 247 542.5 237 Q542 227 540 216 Q539 213 539 209.5 Q539 206 539 203 L534 172 Q534 170 533.5 167 Q533 164 533 162 Q533 160 532.5 157.5 Q532 155 532 153 Q522 131 511.5 110 Q501 89 486 70 L479 63 Q462 46 444 34 L436 28 Q415 15 391.5 9.5 Q368 4 345 -1 L320 -1 Q310 -2 300.5 -2.5 Q291 -3 280 -3 L270 -3 Q243 -5 215.5 -3 Q188 -1 160 -1 L109 -1 Q95 -4 86 0 Q77 4 71.5 12.5 Q66 21 64 32 Q62 43 62 55 L62 66 Q62 92 62 124.5 Q62 157 61.5 190 Q61 223 61 254 Q61 285 61 307 L61 316 Q62 339 60.5 362 Q59 385 61 408 L61 418 Q61 420 61.5 422.5 Q62 425 62 427 Q62 429 62.5 431.5 Q63 434 63 436 L65 463 Q65 464 65 483.5 Q65 503 65.5 531 Q66 559 66 590 Q66 621 66 645 L66 651 Q65 671 72 687 L76 695 L83 701 Q107 709 132.5 706 Q158 703 183 706 L193 706 Q217 705 240.5 708 Q264 711 288 706 Q290 705 296 705 L304 705 Q306 705 308 704.5 Q310 704 312 704 Q334 705 354 700 Q374 695 395 694 L405 690 Q422 684 436.5 674.5 Q451 665 468 657 Q470 656 470.5 655 Q471 654 473 652 L479 647 L486 640 Q502 621 509 604 Q511 600 514 595 Q517 590 519 585 Q531 565 533.5 543 Q536 521 540 499 L542 480 L542 473 L544 453 Q546 428 545.5 403.5 Q545 379 544 355 L544 344 Z M400 286 Q398 300 399.5 314 Q401 328 403 342 L402 351 L402 361 Q401 374 400 386 Q399 398 400 411 L400 421 Q400 428 400 434.5 Q400 441 401 447 L399 458 Q399 464 398 472 Q397 480 394 486 L391 506 L389 515 Q381 534 366 551 Q351 568 328 567 Q326 568 318 568 Q301 570 280 570.5 Q259 571 236 573 L236 574 L233 574 Q232 573 226 573 Q220 573 213.5 572.5 Q207 572 205 569 Q202 563 203 554 Q204 545 204 537 L204 449 Q203 438 202.5 428.5 Q202 419 202 409 Q202 406 201.5 403.5 Q201 401 201 399 Q203 377 201.5 355 Q200 333 200 311 L200 177 Q201 168 200 158 Q199 148 204 145 Q210 140 218.5 140 Q227 140 236 140 L236 141 L303 144 L314 144 Q337 142 356 154 Q375 166 385 186 Q386 188 387 190 Q388 192 389 195 Q391 202 392 209 Q393 216 394 224 Q397 230 398 238 Q399 246 399 252 L401 263 Q400 266 400 276 L400 286 Z " />
<glyph glyph-name="E" unicode="E" horiz-adv-x="537" d="M486 110 Q484 87 486 63 Q488 39 481 15 L479 9 L474 2 Q467 -6 450 -3.5 Q433 -1 418 -1 L411 -1 Q369 -1 321 -1.5 Q273 -2 235 -2 L213 -2 Q190 -3 167 -2 Q144 -1 121 -3 L111 -3 Q99 -4 88 -3 Q77 -2 66 4 Q63 7 62 10 Q59 19 61 33 Q63 47 63 60 L63 67 Q63 99 63 136 Q63 173 62.5 207.5 Q62 242 62 269 Q62 296 62 307 L62 353 Q61 367 61.5 380 Q62 393 63 407 L63 418 Q64 445 64 472 Q64 499 66 526 L66 533 Q65 552 65.5 573 Q66 594 66 615 L66 651 Q63 664 64 672 Q64 675 64.5 677.5 Q65 680 65 682 Q69 692 76 696 Q83 700 91 702 Q93 702 95.5 702.5 Q98 703 100 703 Q121 704 141.5 704.5 Q162 705 183 702 L382 702 Q387 701 391.5 700.5 Q396 700 401 700 L410 700 Q427 698 443.5 701 Q460 704 473 698 Q482 693 484 684.5 Q486 676 485 665 Q485 663 484.5 660 Q484 657 484 654 Q481 640 482.5 626.5 Q484 613 483 599 L483 593 Q482 587 481 582.5 Q480 578 479 574 L474 567 Q467 559 450 561.5 Q433 564 418 564 L411 564 Q385 564 356.5 564 Q328 564 300.5 563.5 Q273 563 248 563 Q223 563 204 563 Q204 553 204.5 546 Q205 539 205 537 L205 449 Q204 445 204 441.5 Q204 438 204 435 L382 435 Q387 434 391.5 433.5 Q396 433 401 433 L422 433 Q435 431 447.5 433.5 Q460 436 471 429 Q482 421 480 407 L480 400 L477 367 L477 356 Q476 351 476 346 Q476 341 476 336 L476 326 Q478 311 471.5 305 Q465 299 454.5 297.5 Q444 296 432 297 Q420 298 411 297 L399 297 Q373 297 345.5 297 Q318 297 291.5 296.5 Q265 296 241.5 296 Q218 296 201 296 L201 287 Q202 264 201.5 242 Q201 220 201 197 L201 137 L382 137 Q387 136 391.5 135.5 Q396 135 401 135 L410 135 Q427 133 443.5 136 Q460 139 473 133 Q482 128 484 120 L486 110 Z " />
<glyph glyph-name="F" unicode="F" horiz-adv-x="536" d="M201 286 Q201 276 200.5 266.5 Q200 257 199 247 L199 237 Q199 229 199.5 220.5 Q200 212 201 204 L201 193 Q202 176 201.5 159 Q201 142 199 125 Q199 122 198.5 119.5 Q198 117 198 115 Q198 91 201.5 67 Q205 43 198 20 Q197 16 194 13 Q181 -6 154 -1 L148 -1 L121 -3 L111 -3 Q99 -4 88 -3 Q77 -2 66 4 Q63 7 62 10 Q59 19 61 33 Q63 47 63 60 L63 67 Q63 99 63 136 Q63 173 62.5 207.5 Q62 242 62 269 Q62 296 62 307 L62 353 Q61 367 61.5 380 Q62 393 63 407 L63 418 Q64 445 64 472 Q64 499 66 526 L66 533 Q65 547 65.5 562.5 Q66 578 66 594 L66 615 Q67 617 67 625 Q67 633 66 636 Q66 644 65.5 653.5 Q65 663 66 672 Q67 681 70.5 688.5 Q74 696 83 700 L91 702 Q93 702 95.5 702.5 Q98 703 100 703 Q121 704 141.5 704.5 Q162 705 183 702 L382 702 Q387 701 391.5 700.5 Q396 700 401 700 L410 700 Q427 698 443.5 701 Q460 704 473 698 Q482 693 484 684.5 Q486 676 485 665 Q485 663 484.5 660 Q484 657 484 654 Q481 640 482.5 626.5 Q484 613 483 599 L483 593 Q482 587 481 582.5 Q480 578 479 574 L474 567 Q467 559 450 561.5 Q433 564 418 564 L411 564 Q385 564 356.5 564 Q328 564 300.5 563.5 Q273 563 248 563 Q223 563 204 563 Q204 553 204.5 546 Q205 539 205 537 L205 449 Q204 445 204 441.5 Q204 438 204 435 L382 435 Q387 434 391.5 433.5 Q396 433 401 433 L422 433 Q435 431 447.5 433.5 Q460 436 471 429 Q482 421 480 407 L480 400 L477 367 L477 356 Q476 351 476 346 Q476 341 476 336 L476 326 Q478 311 471.5 305 Q465 299 454.5 297.5 Q444 296 432 297 Q420 298 411 297 L399 297 Q362 297 321.5 296.5 Q281 296 247 296 L201 296 L201 286 Z " />
<glyph glyph-name="G" unicode="G" horiz-adv-x="593" d="M540 307 Q540 305 539.5 302 Q539 299 539 297 Q536 283 538 270 Q540 257 539 243 Q538 242 538 235 Q538 233 538.5 231 Q539 229 539 227 L539 217 Q539 212 538.5 207.5 Q538 203 537 198 L537 192 L532 161 Q532 159 531.5 156 Q531 153 531 151 Q528 134 520.5 119.5 Q513 105 505 91 L500 82 Q496 76 492.5 70 Q489 64 484 59 L477 52 Q460 35 442 23 L434 17 Q413 4 389.5 -1.5 Q366 -7 343 -12 L328 -12 Q294 -10 260 -10.5 Q226 -11 194 1 L181 6 Q164 14 148.5 23 Q133 32 121 46 L113 55 Q108 62 103 69 Q98 76 94 84 Q89 94 84 105 Q79 116 75 129 Q68 148 64.5 168 Q61 188 59 208 Q57 220 56 232 Q55 244 54 256 L54 265 Q53 285 53 304.5 Q53 324 51 344 L51 353 Q50 372 50.5 390 Q51 408 53 427 Q53 429 53.5 431.5 Q54 434 54 436 L56 463 Q56 465 56.5 467.5 Q57 470 57 472 L59 491 Q61 511 64.5 531 Q68 551 75 570 Q79 583 84 594 Q89 605 94 615 Q98 623 103 630 Q108 637 113 644 L121 653 Q133 667 148.5 676 Q164 685 181 693 L194 698 Q226 710 260 709.5 Q294 709 328 711 L343 711 Q366 706 389.5 700.5 Q413 695 434 682 L442 676 Q460 664 477 647 L484 640 Q500 621 507 604 Q509 600 512 595 Q515 590 517 585 Q523 575 526 565 Q529 555 531 544 L533 536 Q538 520 539 503 L539 496 Q538 480 529 473.5 Q520 467 507 466 Q494 465 480.5 466 Q467 467 456 466 L447 466 Q445 466 442 465.5 Q439 465 437 465 L423 465 Q422 464 415 464 Q411 465 407.5 465.5 Q404 466 401 469 Q396 474 395 480 Q391 492 389 506 L387 515 Q382 529 373 541 Q371 545 368.5 547.5 Q366 550 364 553 L358 558 L352 562 Q332 572 309 574 Q286 576 264 574 L254 571 Q238 567 226 553 L219 546 Q217 543 216 541 Q215 539 214 537 Q212 533 210 530 Q208 527 206 523 Q204 515 202 507 Q200 499 199 490 Q199 488 198.5 485.5 Q198 483 198 481 Q195 465 195 449 Q194 438 193.5 428.5 Q193 419 193 409 Q193 406 192.5 403.5 Q192 401 192 399 Q194 377 192.5 355 Q191 333 191 311 Q191 308 191.5 305.5 Q192 303 192 300 Q192 298 192.5 295.5 Q193 293 193 290 Q193 280 193.5 270.5 Q194 261 195 250 Q195 235 198 218 Q198 216 198.5 213.5 Q199 211 199 209 Q200 200 202 192 Q204 184 206 176 Q208 172 210 169 Q212 166 214 162 Q215 160 216 158 Q217 156 219 153 L226 146 Q238 132 254 128 L264 125 Q286 123 309 125 Q332 127 352 137 L358 141 L364 146 L368 152 L373 158 Q389 176 392 200 Q395 224 398 247 L329 247 Q322 247 320 248 Q318 248 316 248.5 Q314 249 312 249 L304 252 Q299 254 294.5 257 Q290 260 290 265 Q289 279 290 293.5 Q291 308 290 322 Q290 329 289 331 L289 341 Q284 364 302 375.5 Q320 387 340 383 Q348 383 351 382 Q366 382 381.5 382 Q397 382 412 381 Q415 380 422 380 Q434 379 446.5 378.5 Q459 378 471 380 L488 380 Q495 380 497 379 L517 379 Q518 379 524 377 Q527 375 530 372.5 Q533 370 535 365 Q538 357 540 346 Q541 344 541 337 Q543 322 540 307 Z " />
<glyph glyph-name="H" unicode="H" horiz-adv-x="597" d="M537 637 Q537 632 537 627 Q537 622 536 617 L536 609 Q536 583 536.5 562 Q537 541 537 537 L537 449 Q536 438 535.5 428.5 Q535 419 535 409 Q535 406 534.5 403.5 Q534 401 534 399 Q536 377 534.5 355 Q533 333 533 311 L533 96 Q532 91 531.5 86.5 Q531 82 531 77 L531 68 Q529 51 532 34.5 Q535 18 529 5 Q524 -4 515.5 -6 Q507 -8 496.5 -7 Q486 -6 475 -4.5 Q464 -3 453 -5 L443 -5 Q420 -7 405 -1 L398 4 Q390 11 392.5 28 Q395 45 395 60 L395 67 Q395 91 395 119 Q395 147 394.5 174.5 Q394 202 394 227 Q394 252 394 271 Q346 272 301 272.5 Q256 273 208 273 Q202 273 201 274 L201 96 Q200 91 199.5 86.5 Q199 82 199 77 L199 68 Q197 51 200 34.5 Q203 18 197 5 Q192 -4 183.5 -6 Q175 -8 164.5 -7 Q154 -6 143 -4.5 Q132 -3 121 -5 L111 -5 Q88 -7 73 -1 L66 4 Q58 11 60.5 28 Q63 45 63 60 L63 67 Q63 99 63 136 Q63 173 62.5 207.5 Q62 242 62 269 Q62 296 62 307 L62 353 Q61 375 62 396.5 Q63 418 64 440 Q64 442 64.5 444.5 Q65 447 65 449 L65 459 Q65 462 66 463 L66 651 Q63 664 64 672 Q64 675 64.5 677.5 Q65 680 65 682 Q69 692 76 696 Q83 700 91 702 Q93 702 95.5 702.5 Q98 703 100 703 Q123 704 144.5 704.5 Q166 705 189 701 Q192 700 195 697 Q198 696 200 691 Q209 675 204 656 Q205 655 205 648 L205 637 Q205 632 205 627 Q205 622 204 617 L204 609 Q204 583 204.5 562 Q205 541 205 537 L205 449 Q204 439 203.5 430.5 Q203 422 203 413 L208 413 Q256 413 301.5 412.5 Q347 412 395 411 Q395 419 395.5 425.5 Q396 432 396 440 Q396 442 396.5 444.5 Q397 447 397 449 L397 459 Q397 462 398 463 L398 651 Q395 664 396 672 Q396 675 396.5 677.5 Q397 680 397 682 Q401 692 408 696 Q415 700 423 702 Q425 702 427.5 702.5 Q430 703 432 703 Q455 704 476.5 704.5 Q498 705 521 701 Q524 700 527 697 Q530 696 532 691 Q541 675 536 656 Q537 655 537 648 L537 637 Z " />
<glyph glyph-name="I" unicode="I" horiz-adv-x="265" d="M201 96 Q200 91 199.5 86.5 Q199 82 199 77 L199 68 Q197 51 200 34.5 Q203 18 197 5 Q192 -4 183.5 -6 Q175 -8 164.5 -7 Q154 -6 143 -4.5 Q132 -3 121 -5 L111 -5 Q88 -7 73 -1 Q71 1 69.5 1.5 Q68 2 66 4 Q58 11 60.5 28 Q63 45 63 60 L63 67 Q63 99 63 136 Q63 173 62.5 207.5 Q62 242 62 269 Q62 296 62 307 L62 353 Q61 375 62 396.5 Q63 418 64 440 Q64 442 64.5 444.5 Q65 447 65 449 L65 459 Q65 462 66 463 L66 651 Q63 664 64 672 Q64 675 64.5 677.5 Q65 680 65 682 Q69 692 76 696 Q83 700 91 702 Q93 702 95.5 702.5 Q98 703 100 703 Q123 704 144.5 704.5 Q166 705 189 701 Q192 700 195 697 Q198 696 200 691 Q209 675 204 656 Q205 655 205 648 L205 637 Q205 632 205 627 Q205 622 204 617 L204 609 Q204 583 204.5 562 Q205 541 205 537 L205 449 Q204 438 203.5 428.5 Q203 419 203 409 Q203 406 202.5 403.5 Q202 401 202 399 Q204 377 202.5 355 Q201 333 201 311 L201 96 Z " />
<glyph glyph-name="J" unicode="J" horiz-adv-x="410" d="M350 637 Q350 632 350 627 Q350 622 349 617 L349 609 Q349 583 349.5 562 Q350 541 350 537 L350 449 Q349 438 348.5 428.5 Q348 419 348 409 Q348 406 347.5 403.5 Q347 401 347 399 Q349 377 347.5 355 Q346 333 346 311 L346 173 Q347 156 344.5 139.5 Q342 123 338 107 L335 97 Q330 83 323 72 Q322 68 318 64 L306 49 L299 41 Q279 24 254.5 11 Q230 -2 203 -4 L193 -4 Q185 -5 177.5 -5.5 Q170 -6 162 -6 Q160 -7 155.5 -7 Q151 -7 149 -7 Q135 -6 113 -4 Q91 -2 77 -4 Q74 -4 70.5 -3 Q67 -2 64 -2 L55 2 L47 7 L41 14 Q37 18 35 22 Q31 30 32 37 Q33 44 32 52 Q31 56 31 60 Q31 64 31 68 Q31 78 30.5 88 Q30 98 33 107 Q34 109 35 111 Q36 113 38 116 L44 122 Q47 124 51.5 126 Q56 128 62 130 Q83 135 112.5 132 Q142 129 162 133 Q168 133 174 136 L185 141 L192 147 L197 153 Q207 172 206 192.5 Q205 213 207 233 L207 353 Q206 375 207 396.5 Q208 418 209 440 Q209 442 209.5 444.5 Q210 447 210 449 L210 459 Q210 462 211 463 L211 607 Q212 626 209.5 644.5 Q207 663 210 682 Q212 687 215 690 Q219 695 224.5 697.5 Q230 700 236 702 Q238 702 240.5 702.5 Q243 703 245 703 Q268 704 289.5 704.5 Q311 705 334 701 Q337 700 340 697 Q343 696 345 691 Q354 675 349 656 Q350 655 350 648 L350 637 Z " />
<glyph glyph-name="K" unicode="K" horiz-adv-x="612" d="M353 361 Q350 358 350 356 Q347 349 350 341 Q351 338 354 335 L385 292 Q386 289 389 286 Q389 285 390 284 L393 280 Q398 271 404 262 Q410 253 417 243 L422 236 L466 177 L471 170 Q483 154 494.5 138.5 Q506 123 517 106 L524 98 Q529 90 535.5 82.5 Q542 75 548 67 Q548 66 549 65 L552 61 L561 48 Q573 39 578 23 Q581 15 575 7.5 Q569 0 561 -2 Q550 -4 540.5 -3.5 Q531 -3 520 -2 L479 -2 Q477 -2 474.5 -1.5 Q472 -1 470 -1 Q452 -3 434 2.5 Q416 8 405 23 Q403 25 402.5 26 Q402 27 400 28 L376 63 L371 71 L355 94 L350 101 L347 104 Q336 119 325.5 135 Q315 151 304 166 L299 173 L265 220 L260 227 Q241 251 231 272 L225 279 Q219 287 212.5 295.5 Q206 304 201 313 L201 96 Q200 91 199.5 86.5 Q199 82 199 77 L199 68 Q197 51 200 34.5 Q203 18 197 5 Q192 -4 183.5 -6 Q175 -8 164.5 -7 Q154 -6 143 -4.5 Q132 -3 121 -5 L111 -5 Q88 -7 73 -1 L66 4 Q58 11 60.5 28 Q63 45 63 60 L63 67 Q63 99 63 136 Q63 173 62.5 207.5 Q62 242 62 269 Q62 296 62 307 L62 353 Q61 375 62 396.5 Q63 418 64 440 Q64 442 64.5 444.5 Q65 447 65 449 L65 459 Q65 462 66 463 L66 651 Q63 664 64 672 Q64 675 64.5 677.5 Q65 680 65 682 Q69 692 76 696 Q83 700 91 702 Q93 702 95.5 702.5 Q98 703 100 703 Q123 704 144.5 704.5 Q166 705 189 701 Q192 700 195 697 Q198 696 200 691 Q209 675 204 656 Q205 655 205 648 L205 637 Q205 632 205 627 Q205 622 204 617 L204 609 Q204 583 204.5 562 Q205 541 205 537 L205 449 Q204 438 203.5 428.5 Q203 419 203 409 Q203 406 202.5 403.5 Q202 401 202 399 L202 385 Q204 387 205.5 389.5 Q207 392 209 395 L213 401 L350 598 L355 605 L371 628 L376 636 L396 665 L400 670 Q408 682 418.5 691.5 Q429 701 443 705 L548 705 Q556 706 563 706.5 Q570 707 576 702 Q585 694 580 680 Q580 678 579 676.5 Q578 675 577 673 L573 668 L567 659 L554 640 Q549 635 548 632 Q542 624 535.5 616.5 Q529 609 524 601 L517 593 L512 586 L508 578 L492 555 L486 548 L469 528 L464 522 Q456 512 449 502 Q442 492 434 481 L429 473 L404 435 Q403 431 399 427 Q388 410 374.5 395 Q361 380 353 361 Z " />
<glyph glyph-name="L" unicode="L" horiz-adv-x="424" d="M393 73 Q394 64 394 54.5 Q394 45 392 36 L392 30 Q392 16 384.5 6 Q377 -4 362 -2 L354 -2 Q349 -2 345.5 -1.5 Q342 -1 338 -1 Q329 -1 326 -2 L214 -2 Q191 -3 168 -2 Q145 -1 122 -3 L112 -3 Q100 -4 89 -3 Q78 -2 67 4 Q64 7 63 10 Q62 11 62 17 Q60 42 61.5 67 Q63 92 64 116 L64 123 Q64 151 64 180 Q64 209 63.5 234.5 Q63 260 63 279 Q63 298 63 307 L63 353 Q62 367 62.5 380 Q63 393 64 407 L64 418 Q65 445 65 472 Q65 499 67 526 L67 533 Q66 552 66.5 573 Q67 594 67 615 L67 651 Q64 664 65 672 Q65 675 65.5 677.5 Q66 680 66 682 Q70 692 77 696 Q84 700 92 702 Q94 702 96.5 702.5 Q99 703 101 703 Q110 703 118.5 703.5 Q127 704 136 704 L144 704 Q147 705 155 705 Q159 705 163 705 Q167 705 171 704 Q178 704 180 703 L187 703 L193 701 Q201 696 204 688 Q207 680 207.5 670.5 Q208 661 207 651 Q206 641 206 632 L206 623 Q208 600 208 577 Q208 554 208 531 L208 522 Q208 514 208.5 505 Q209 496 209 488 L209 478 Q207 458 206 439.5 Q205 421 203 401 L203 362 Q204 359 204 352 Q203 329 204.5 306 Q206 283 204 260 Q204 258 203.5 255.5 Q203 253 203 251 Q203 244 202.5 237.5 Q202 231 202 224 L202 137 L371 137 Q386 139 390 129 Q394 119 392 108 L392 99 Q392 87 393 82 L393 73 Z " />
<glyph glyph-name="M" unicode="M" horiz-adv-x="734" d="M671 60 Q671 45 673.5 28 Q676 11 668 4 L661 -1 Q657 -2 652.5 -3 Q648 -4 642 -5 L636 -5 L559 -8 L551 -6 Q542 -4 537 5 Q535 11 535 12 Q533 20 533.5 30 Q534 40 535 51 L535 60 Q535 69 535 78 Q535 87 533 96 L533 311 Q533 320 533 329 Q533 338 532 347 L532 354 Q531 368 532 381.5 Q533 395 534 409 Q523 391 515 373 Q507 355 494 338 Q491 335 490 332 Q488 330 486 325 L483 318 Q482 316 481.5 314.5 Q481 313 479 311 L473 297 L470 291 Q460 280 452.5 268.5 Q445 257 440 243 L437 236 Q432 224 425.5 213.5 Q419 203 413 192 Q411 190 409 185 Q405 175 397 169 L389 165 Q387 163 385 163 Q383 163 381 162 Q369 159 356 161 Q343 163 336 174 Q331 182 326 191.5 Q321 201 316 209 Q311 214 310 216 Q308 217 306 223 Q301 237 293 249 Q285 261 277 273 L272 280 Q264 297 255 313.5 Q246 330 235 345 L231 351 Q222 365 215 380 Q208 395 200 409 Q201 395 202 381.5 Q203 368 202 354 L202 341 Q201 340 201 335 Q203 301 201 266 L201 96 Q200 90 199.5 84 Q199 78 199 72 L199 66 Q196 57 196.5 46 Q197 35 197 24.5 Q197 14 194 5.5 Q191 -3 180 -7 Q178 -7 176.5 -7.5 Q175 -8 173 -8 Q160 -8 146.5 -5 Q133 -2 121 -5 L111 -5 Q88 -7 73 -1 L66 4 Q58 11 60.5 28 Q63 45 63 60 L63 67 Q63 99 63 136 Q63 173 62.5 207.5 Q62 242 62 269 Q62 296 62 307 L62 362 L65 449 L65 459 Q65 460 65.5 460.5 Q66 461 66 462 L66 642 Q66 655 64.5 668.5 Q63 682 72 692 Q73 694 80 699 L91 702 Q93 702 95.5 702.5 Q98 703 100 703 Q107 703 113.5 703.5 Q120 704 126 704 L135 704 Q148 705 160.5 704.5 Q173 704 184 699 Q187 698 190 695 L194 690 L197 685 L201 677 L206 669 Q214 653 224 638.5 Q234 624 243 609 L247 601 L253 590 L256 585 L265 571 Q266 569 266.5 567.5 Q267 566 269 564 L292 515 L295 507 Q298 499 301 492.5 Q304 486 309 479 Q312 475 314.5 471 Q317 467 319 463 L323 455 Q331 438 339 420 Q347 402 359 387 Q359 386 361 380 Q361 378 361.5 375.5 Q362 373 362 371 L365 380 L369 388 Q380 407 389 426 Q398 445 409 464 L411 467 Q412 469 413 470.5 Q414 472 415 474 Q417 479 420.5 483.5 Q424 488 426 493 L432 504 Q434 506 434.5 508 Q435 510 437 512 Q442 526 449 538.5 Q456 551 464 563 Q468 567 469 571 Q477 580 483 590.5 Q489 601 495 612 Q499 616 500 620 Q509 638 519.5 655 Q530 672 540 690 L544 695 Q547 698 550 699 Q561 704 573.5 704.5 Q586 705 599 704 L608 704 Q614 704 620.5 703.5 Q627 703 634 703 Q636 703 638.5 702.5 Q641 702 643 702 Q651 700 658 696 Q665 692 669 682 Q669 680 669.5 677.5 Q670 675 670 672 Q671 664 668 651 L668 462 Q668 460 669 459 L669 449 L672 362 L672 307 Q672 296 672 269 Q672 242 671.5 207.5 Q671 173 671 136 Q671 99 671 67 L671 60 Z " />
<glyph glyph-name="N" unicode="N" horiz-adv-x="633" d="M573 637 Q573 632 573 627 Q573 622 572 617 L572 609 Q572 583 572.5 562 Q573 541 573 537 L573 449 Q572 438 571.5 428.5 Q571 419 571 409 Q571 406 570.5 403.5 Q570 401 570 399 Q572 377 570.5 355 Q569 333 569 311 L569 96 Q568 91 567.5 86.5 Q567 82 567 77 L567 63 Q566 47 568 32 Q570 17 565 5 Q560 -4 551.5 -6 Q543 -8 532.5 -7 Q522 -6 511 -4.5 Q500 -3 489 -5 L467 -5 Q457 -7 450 -2.5 Q443 2 438 9.5 Q433 17 428.5 25.5 Q424 34 419 40 Q418 42 417 44 Q416 46 414 48 Q404 65 394.5 81.5 Q385 98 374 115 L369 123 L362 135 L358 141 Q358 146 353 154 Q339 168 330.5 185.5 Q322 203 310 219 L305 226 L301 233 Q290 253 279.5 272.5 Q269 292 255 311 Q254 316 251 318 L248 325 Q247 330 244 332 Q243 335 240 338 Q227 355 219 373 Q211 391 200 409 Q201 395 202 381.5 Q203 368 202 354 L202 347 Q201 338 201 329 Q201 320 201 311 L201 96 Q199 87 199 78 Q199 69 199 60 L199 51 Q200 38 201 26.5 Q202 15 197 5 Q192 -4 183.5 -6 Q175 -8 164.5 -7 Q154 -6 143 -4.5 Q132 -3 121 -5 L111 -5 Q88 -7 73 -1 L66 4 Q58 11 60.5 28 Q63 45 63 60 L63 67 Q63 99 63 136 Q63 173 62.5 207.5 Q62 242 62 269 Q62 296 62 307 L62 362 L65 449 L65 459 Q65 460 65.5 460.5 Q66 461 66 462 L66 651 Q63 664 64 672 Q64 675 64.5 677.5 Q65 680 65 682 Q69 692 76 696 Q83 700 91 702 Q93 702 95.5 702.5 Q98 703 100 703 Q107 703 113.5 703.5 Q120 704 126 704 L135 704 Q148 705 160.5 704.5 Q173 704 184 699 Q187 698 190 695 L194 690 L197 685 Q202 668 213 653.5 Q224 639 234 623 Q235 621 235.5 619.5 Q236 618 238 616 L243 609 L247 601 L266 570 L271 563 Q275 559 277 555 Q278 553 279 551 Q280 549 281 546 Q286 535 292.5 524.5 Q299 514 305 503 Q307 501 308 499 Q309 497 310 495 L325 464 L330 456 Q338 439 349 425 L355 417 Q367 403 375.5 387 Q384 371 392 354 L397 346 L401 339 L406 332 Q420 313 430 290 L430 363 Q430 380 430 397 Q430 414 432 431 L432 440 Q432 442 432.5 444.5 Q433 447 433 449 Q430 475 430 501 Q430 508 431 510 Q431 549 434 588 L434 651 Q431 664 432 672 Q432 675 432.5 677.5 Q433 680 433 682 Q437 692 444 696 Q451 700 459 702 Q461 702 463.5 702.5 Q466 703 468 703 Q491 704 512.5 704.5 Q534 705 557 701 Q560 700 563 697 Q566 696 568 691 Q577 675 572 656 Q573 655 573 648 L573 637 Z " />
<glyph glyph-name="O" unicode="O" horiz-adv-x="594" d="M542 344 Q543 320 543.5 295.5 Q544 271 542 246 Q541 236 540.5 226 Q540 216 538 205 Q537 202 537 198.5 Q537 195 537 192 L532 161 Q532 159 531.5 156 Q531 153 531 151 Q531 149 530.5 146.5 Q530 144 530 142 Q520 120 509.5 99 Q499 78 484 59 L477 52 Q460 35 442 23 L434 17 Q413 4 389.5 -1.5 Q366 -7 343 -12 L328 -12 Q294 -10 260 -10.5 Q226 -11 194 1 L181 6 Q164 14 148.5 23 Q133 32 121 46 L113 55 Q108 62 103 69 Q98 76 94 84 Q89 94 84 105 Q79 116 75 129 Q68 148 64.5 168 Q61 188 59 208 Q57 220 56 232 Q55 244 54 256 L54 265 Q53 285 53 304.5 Q53 324 51 344 L51 353 Q50 372 50.5 390 Q51 408 53 427 Q53 429 53.5 431.5 Q54 434 54 436 L56 463 Q56 465 56.5 467.5 Q57 470 57 472 L59 491 Q61 511 64.5 531 Q68 551 75 570 Q79 583 84 594 Q89 605 94 615 Q98 623 103 630 Q108 637 113 644 L121 653 Q133 667 148.5 676 Q164 685 181 693 L194 698 Q226 710 260 709.5 Q294 709 328 711 L343 711 Q366 706 389.5 700.5 Q413 695 434 682 L442 676 Q460 664 477 647 L484 640 Q500 621 507 604 Q509 600 512 595 Q515 590 517 585 Q529 565 531.5 543 Q534 521 538 499 L540 480 L540 473 L542 453 Q544 428 543.5 403.5 Q543 379 542 355 L542 344 Z M398 286 Q398 288 397.5 289.5 Q397 291 397 293 Q396 306 398 318.5 Q400 331 400 344 L400 353 Q400 361 399.5 367.5 Q399 374 398 381 L398 421 Q398 428 398 434.5 Q398 441 399 447 L397 458 Q397 464 396 472 Q395 480 392 486 Q390 501 386.5 515 Q383 529 373 541 Q371 545 368.5 547.5 Q366 550 364 553 L358 558 L352 562 Q332 572 309 574 Q286 576 264 574 L254 571 Q238 567 226 553 L219 546 Q217 543 216 541 Q215 539 214 537 Q212 533 210 530 Q208 527 206 523 Q204 515 202 507 Q200 499 199 490 Q199 488 198.5 485.5 Q198 483 198 481 Q195 465 195 449 Q194 438 193.5 428.5 Q193 419 193 409 Q193 406 192.5 403.5 Q192 401 192 399 Q194 377 192.5 355 Q191 333 191 311 Q191 308 191.5 305.5 Q192 303 192 300 Q192 298 192.5 295.5 Q193 293 193 290 Q193 280 193.5 270.5 Q194 261 195 250 Q195 235 198 218 Q198 216 198.5 213.5 Q199 211 199 209 Q200 200 202 192 Q204 184 206 176 Q208 172 210 169 Q212 166 214 162 Q215 160 216 158 Q217 156 219 153 L226 146 Q238 132 254 128 L264 125 Q286 123 309 125 Q332 127 352 137 L358 141 L364 146 Q366 149 368.5 151.5 Q371 154 373 158 Q383 170 386.5 184 Q390 198 392 213 Q395 219 396 227 Q397 235 397 241 L399 252 Q398 255 398 265 L398 286 Z " />
<glyph glyph-name="P" unicode="P" horiz-adv-x="585" d="M533 528 Q535 511 534 495.5 Q533 480 532 463 L530 454 Q526 422 511 392 L506 383 Q494 361 476 346 L468 339 Q463 334 456.5 330 Q450 326 444 322 Q441 320 439 319 Q437 318 435 317 L417 305 Q413 304 410 301 L403 297 Q383 288 360.5 287 Q338 286 316 281 L306 281 Q287 280 268.5 280 Q250 280 230 282 L223 282 Q217 282 211.5 282 Q206 282 200 283 Q202 271 200 259 L200 251 Q201 237 201.5 223 Q202 209 202 195 Q202 187 201 185 Q200 179 200.5 173 Q201 167 200 161 Q200 154 199 153 L199 143 Q199 129 198.5 115 Q198 101 198 87 L198 79 Q198 65 200 51 Q202 37 199 23 L197 15 Q193 2 178 -1 Q176 -1 174 -1.5 Q172 -2 170 -2 Q157 -1 142 -2 Q135 -2 133 -3 Q125 -3 115.5 -4 Q106 -5 96.5 -5 Q87 -5 79 -2 Q71 1 65 9 L62 17 Q60 26 61.5 36 Q63 46 62 54 L62 64 Q62 82 63 100 Q64 118 63 136 L63 145 Q63 156 63.5 167.5 Q64 179 63 190 L63 200 Q65 223 63 247 Q63 249 63.5 251.5 Q64 254 64 256 L64 308 Q63 310 63 318 Q65 370 60 420 Q61 422 61 427 Q61 429 61.5 430.5 Q62 432 62 434 L62 442 Q62 444 62.5 447 Q63 450 63 452 Q63 460 64 463 Q62 470 62 477 Q62 484 61 491 L61 501 Q60 518 61.5 534 Q63 550 61 567 L61 577 Q60 590 61 602.5 Q62 615 63 628 L63 649 Q62 669 69 685 L73 693 L80 699 Q100 706 120 704.5 Q140 703 160 703 L170 703 Q182 703 194 702.5 Q206 702 218 703 L228 703 Q265 708 301 703 Q303 703 305 702.5 Q307 702 309 702 Q323 703 335.5 700.5 Q348 698 361 696 Q363 696 366 695.5 Q369 695 371 695 Q394 694 415 684 Q436 674 456 663 L466 658 L475 651 L483 644 L498 626 L504 618 Q515 600 519.5 579.5 Q524 559 531 539 Q531 536 531.5 533.5 Q532 531 533 528 Z M390 472 Q392 485 389 494 Q389 496 388.5 497.5 Q388 499 388 501 L388 504 L386 513 Q384 518 381 523 Q378 528 376 532 Q373 538 370 541 Q361 558 341 564 Q321 570 302 572 Q300 571 293 571 Q273 571 254.5 572 Q236 573 217 571 L210 571 Q205 570 202 567 Q199 561 200 552 Q201 543 201 535 L201 525 Q201 513 202 501.5 Q203 490 202 478 L201 478 Q202 476 202 469 Q202 467 201.5 465 Q201 463 201 461 L201 460 L200 460 L200 452 Q199 450 199 443 Q199 435 200 433 L200 415 L223 415 Q231 415 238.5 414.5 Q246 414 254 414 L265 414 Q287 413 309 413 Q331 413 352 419 L361 423 Q377 431 381 444 Q383 446 383.5 448.5 Q384 451 385 453 L388 464 L390 472 Z " />
<glyph glyph-name="Q" unicode="Q" horiz-adv-x="594" d="M542 344 Q543 320 543.5 295.5 Q544 271 542 246 Q541 236 540.5 226 Q540 216 538 205 Q537 202 537 198.5 Q537 195 537 192 L532 161 Q532 159 531.5 156 Q531 153 531 151 Q531 149 530.5 146.5 Q530 144 530 142 Q520 120 509.5 99 Q499 78 484 59 L477 52 Q460 35 442 23 L438 20 Q449 5 459.5 -9.5 Q470 -24 480 -39 L487 -47 Q492 -55 498.5 -62.5 Q505 -70 511 -78 Q511 -79 512 -80 L515 -84 L524 -97 Q536 -106 541 -122 Q544 -130 538 -137.5 Q532 -145 524 -147 Q513 -149 503.5 -148.5 Q494 -148 483 -147 L442 -147 Q440 -147 437.5 -146.5 Q435 -146 433 -146 Q415 -148 397 -142.5 Q379 -137 368 -122 Q366 -120 365.5 -119 Q365 -118 363 -117 L339 -82 L334 -74 L318 -51 L313 -44 L310 -41 L289 -11 Q265 -11 241 -9 Q217 -7 194 1 L181 6 Q164 14 148.5 23 Q133 32 121 46 L113 55 Q108 62 103 69 Q98 76 94 84 Q89 94 84 105 Q79 116 75 129 Q68 148 64.5 168 Q61 188 59 208 Q57 220 56 232 Q55 244 54 256 L54 265 Q53 285 53 304.5 Q53 324 51 344 L51 353 Q50 372 50.5 390 Q51 408 53 427 Q53 429 53.5 431.5 Q54 434 54 436 L56 463 Q56 465 56.5 467.5 Q57 470 57 472 L59 491 Q61 511 64.5 531 Q68 551 75 570 Q79 583 84 594 Q89 605 94 615 Q98 623 103 630 Q108 637 113 644 L121 653 Q133 667 148.5 676 Q164 685 181 693 L194 698 Q226 710 260 709.5 Q294 709 328 711 L343 711 Q366 706 389.5 700.5 Q413 695 434 682 L442 676 Q460 664 477 647 L484 640 Q500 621 507 604 Q509 600 512 595 Q515 590 517 585 Q529 565 531.5 543 Q534 521 538 499 L540 480 L540 473 L542 453 Q544 428 543.5 403.5 Q543 379 542 355 L542 344 Z M400 353 Q400 361 399.5 367.5 Q399 374 398 381 L398 421 Q398 428 398 434.5 Q398 441 399 447 L397 458 Q397 464 396 472 Q395 480 392 486 Q390 501 386.5 515 Q383 529 373 541 Q371 545 368.5 547.5 Q366 550 364 553 L358 558 L352 562 Q332 572 309 574 Q286 576 264 574 L254 571 Q238 567 226 553 L219 546 Q217 543 216 541 Q215 539 214 537 Q212 533 210 530 Q208 527 206 523 Q204 515 202 507 Q200 499 199 490 Q199 488 198.5 485.5 Q198 483 198 481 Q195 465 195 449 Q194 438 193.5 428.5 Q193 419 193 409 Q193 406 192.5 403.5 Q192 401 192 399 Q194 377 192.5 355 Q191 333 191 311 Q191 308 191.5 305.5 Q192 303 192 300 Q192 298 192.5 295.5 Q193 293 193 290 Q193 280 193.5 270.5 Q194 261 195 250 Q195 235 198 218 Q198 216 198.5 213.5 Q199 211 199 209 Q200 200 202 192 Q204 184 206 176 Q208 172 210 169 Q212 166 214 162 Q215 160 216 158 Q217 156 219 153 L226 146 Q238 132 254 128 L264 125 Q286 123 309 125 Q332 127 352 137 L358 141 L364 146 Q366 149 368.5 151.5 Q371 154 373 158 Q383 170 386.5 184 Q390 198 392 213 Q395 219 396 227 Q397 235 397 241 L399 252 Q398 255 398 265 L398 286 Q398 288 397.5 289.5 Q397 291 397 293 Q396 306 398 318.5 Q400 331 400 344 L400 353 Z " />
<glyph glyph-name="R" unicode="R" horiz-adv-x="570" d="M549 24 Q552 16 546 8.5 Q540 1 532 -1 Q521 -3 511.5 -2.5 Q502 -2 491 -1 L450 -1 Q448 -1 445.5 -0.5 Q443 0 441 0 Q423 -2 405 3.5 Q387 9 376 24 Q374 26 373.5 27 Q373 28 371 29 L347 64 L342 72 L326 95 L321 102 L318 105 Q307 120 296.5 136 Q286 152 275 167 L270 174 L236 221 L231 228 Q212 252 202 273 L201 274 Q201 262 200 259 L200 251 Q201 237 201.5 223 Q202 209 202 195 Q202 187 201 185 Q200 179 200.5 173 Q201 167 200 161 Q200 154 199 153 L199 143 Q199 129 198.5 115 Q198 101 198 87 L198 79 Q198 65 200 51 Q202 37 199 23 L197 15 Q193 2 178 -1 Q176 -1 174 -1.5 Q172 -2 170 -2 Q157 -1 142 -2 Q135 -2 133 -3 Q125 -3 115.5 -4 Q106 -5 96.5 -5 Q87 -5 79 -2 Q71 1 65 9 L62 17 Q60 26 61.5 36 Q63 46 62 54 L62 64 Q62 82 63 100 Q64 118 63 136 L63 145 Q63 156 63.5 167.5 Q64 179 63 190 L63 200 Q65 223 63 247 Q63 249 63.5 251.5 Q64 254 64 256 L64 308 Q63 310 63 318 Q65 370 60 420 Q61 422 61 427 Q61 429 61.5 430.5 Q62 432 62 434 L62 442 Q62 444 62.5 447 Q63 450 63 452 Q63 460 64 463 Q62 470 62 477 Q62 484 61 491 L61 501 Q60 518 61.5 534 Q63 550 61 567 L61 577 Q60 590 61 602.5 Q62 615 63 628 L63 649 Q62 669 69 685 L73 693 L80 699 Q100 706 120 704.5 Q140 703 160 703 L170 703 Q182 703 194 702.5 Q206 702 218 703 L228 703 Q265 708 301 703 Q303 703 305 702.5 Q307 702 309 702 Q323 703 335.5 700.5 Q348 698 361 696 Q363 696 366 695.5 Q369 695 371 695 Q394 694 415 684 Q436 674 456 663 L466 658 L475 651 L483 644 L498 626 L504 618 Q515 600 519.5 579.5 Q524 559 531 539 Q531 536 531.5 533.5 Q532 531 533 528 Q535 511 534 495.5 Q533 480 532 463 L530 454 Q526 422 511 392 L506 383 Q494 361 476 346 L468 339 Q463 334 456.5 330 Q450 326 444 322 Q441 320 439 319 Q437 318 435 317 L417 305 Q413 304 410 301 L403 297 Q393 293 382 290.5 Q371 288 360 287 Q360 286 361 285 L364 281 Q369 272 375 263 Q381 254 388 244 L393 237 L437 178 L442 171 Q454 155 465.5 139.5 Q477 124 488 107 L495 99 Q500 91 506.5 83.5 Q513 76 519 68 Q519 67 520 66 L523 62 L532 49 Q544 40 549 24 Z M201 478 Q202 476 202 469 Q202 467 201.5 465 Q201 463 201 461 L201 460 L200 460 L200 452 Q199 450 199 443 Q199 435 200 433 L200 415 L223 415 Q231 415 238.5 414.5 Q246 414 254 414 L265 414 Q287 413 309 413 Q331 413 352 419 L361 423 Q377 431 381 444 Q383 446 383.5 448.5 Q384 451 385 453 L388 464 L390 472 Q392 485 389 494 Q389 496 388.5 497.5 Q388 499 388 501 L388 504 L386 513 Q384 518 381 523 Q378 528 376 532 Q373 538 370 541 Q361 558 341 564 Q321 570 302 572 Q300 571 293 571 Q273 571 254.5 572 Q236 573 217 571 L210 571 Q205 570 202 567 Q199 561 200 552 Q201 543 201 535 L201 525 Q201 513 202 501.5 Q203 490 202 478 L201 478 Z M200 282 L201 283 L200 283 L200 282 Z " />
<glyph glyph-name="S" unicode="S" horiz-adv-x="586" d="M212 537 Q210 535 208 530 Q200 516 200.5 498 Q201 480 212 468 L219 460 Q233 447 250 439 Q267 431 285 425 Q285 425 293 423 Q316 412 341 404.5 Q366 397 390 387 Q393 386 395 385 Q397 384 399 383 Q415 377 430.5 370.5 Q446 364 460 353 L469 345 L485 327 L490 321 Q522 284 525 236 Q526 233 526 226 Q530 213 530 194 Q530 191 529.5 188.5 Q529 186 529 183 Q525 161 519 139.5 Q513 118 503 98 L500 91 L496 84 Q492 76 487 69 Q482 62 477 55 L469 46 Q457 32 441.5 23 Q426 14 409 6 L396 1 Q364 -11 330 -10.5 Q296 -10 262 -12 L247 -12 Q224 -7 200.5 -1.5 Q177 4 156 17 L148 23 Q130 35 113 52 L106 59 Q97 71 85 91 Q83 93 82.5 95 Q82 97 80 99 L76 107 L73 115 Q64 132 60.5 150 Q57 168 54 187 Q53 188 53 191 L53 198 Q50 211 51 225.5 Q52 240 67 245 Q73 248 77 248 Q90 250 103.5 249.5 Q117 249 129 251 Q131 250 138 250 Q159 250 174 246 Q177 245 179.5 244 Q182 243 184 242 L190 236 L194 229 Q198 222 198 210 Q198 208 198.5 206.5 Q199 205 199 203 L201 193 Q203 184 206.5 175 Q210 166 217 158 Q219 154 221.5 151.5 Q224 149 226 146 L232 141 L238 137 Q258 127 281 125 Q304 123 326 125 L336 128 Q340 129 343.5 131 Q347 133 351 135 L358 140 Q372 152 378.5 168 Q385 184 386 202 L386 212 L384 220 L381 229 Q378 232 377 235 Q374 239 371 242.5 Q368 246 364 248 Q361 252 356 253 Q336 265 314 274.5 Q292 284 269 290 L259 293 Q236 303 212 311.5 Q188 320 166 334 L159 337 L153 340 Q124 358 100 385 L93 392 Q85 400 80 409 Q78 412 77 414 Q76 416 75 418 Q64 440 63 463.5 Q62 487 60 510 Q60 513 60.5 515.5 Q61 518 61 520 Q62 534 65 546 Q68 558 73 570 L78 586 Q82 599 92 615 Q96 623 101 630 Q106 637 111 644 L119 653 Q131 667 146.5 676 Q162 685 179 693 L192 698 Q224 710 258 709.5 Q292 709 326 711 L341 711 Q364 706 387.5 700.5 Q411 695 432 682 L440 676 Q458 664 475 647 L482 640 Q498 621 505 604 Q507 600 510 595 Q513 590 515 585 Q521 575 524 565 Q527 555 529 544 L531 536 L535 505 Q536 503 536 495 Q535 479 523.5 470 Q512 461 497 461 Q495 462 488 462 Q467 464 444.5 462.5 Q422 461 402 468 Q395 475 392 485 Q390 490 389 495.5 Q388 501 387 506 L385 515 Q380 529 371 541 Q369 545 366.5 547.5 Q364 550 362 553 L356 558 L350 562 Q330 572 307 574 Q284 576 262 574 L252 571 Q236 567 224 553 L217 546 Q215 543 214 541 Q213 539 212 537 Z " />
<glyph glyph-name="T" unicode="T" horiz-adv-x="508" d="M476 631 Q476 620 477.5 609 Q479 598 477 587 Q477 586 475 580 Q470 566 458.5 563 Q447 560 433 562 L425 562 Q420 563 414.5 563 Q409 563 404 563 L365 563 Q364 562 358 562 Q350 562 343 562 Q336 562 327 563 Q328 559 327 556 Q326 553 326 549 L326 543 Q326 493 326.5 450.5 Q327 408 327 393 L327 347 Q328 333 327.5 320 Q327 307 326 293 L326 282 Q325 255 325 228 Q325 201 323 174 L323 167 Q324 148 323.5 127 Q323 106 323 85 L323 49 Q326 36 325 28 Q325 25 324.5 22.5 Q324 20 324 18 Q320 8 313 4 Q306 0 298 -2 Q296 -2 293.5 -2.5 Q291 -3 289 -3 Q280 -3 271.5 -3.5 Q263 -4 254 -4 L246 -4 Q243 -5 235 -5 Q231 -5 227 -5 Q223 -5 219 -4 Q212 -4 210 -3 L203 -3 L197 -1 Q189 4 186 12 Q183 20 182.5 29.5 Q182 39 183 49 Q184 59 184 68 L184 77 Q182 100 182 123 Q182 146 182 169 L182 186 Q180 199 183 211 Q186 223 187 236 L187 246 Q185 266 186 287 Q187 308 187 328 L187 338 Q186 341 186 348 Q188 360 186 372 L186 449 Q185 465 185.5 481 Q186 497 188 513 L188 524 Q188 534 188 543.5 Q188 553 185 562 L182 562 Q177 562 175 563 L158 563 Q150 563 148 562 Q129 562 115.5 562 Q102 562 83 563 L76 563 Q71 563 65.5 562.5 Q60 562 55 562 L48 562 L40 566 Q38 569 37 571 Q36 573 35 575 L32 584 Q30 606 31 627 Q32 648 31 670 Q29 675 31 678 Q32 696 44 701 Q52 704 62 701 Q80 703 97.5 702.5 Q115 702 132 701 L152 701 Q157 701 161.5 701 Q166 701 171 702 L179 702 Q190 702 199.5 702 Q209 702 220 703 L244 703 Q247 702 256 702 Q271 703 287 702 L298 702 Q313 700 328.5 701 Q344 702 359 702 L398 702 Q415 701 433.5 703.5 Q452 706 467 698 Q474 694 476 687 Q478 680 478 672.5 Q478 665 477 656.5 Q476 648 477 640 Q476 638 476 631 Z " />
<glyph glyph-name="U" unicode="U" horiz-adv-x="600" d="M548 344 Q549 320 549.5 295.5 Q550 271 548 246 Q547 236 546.5 226 Q546 216 544 205 Q543 202 543 198.5 Q543 195 543 192 L538 161 Q538 159 537.5 156 Q537 153 537 151 Q537 149 536.5 146.5 Q536 144 536 142 Q526 120 515.5 99 Q505 78 490 59 L483 52 Q466 35 448 23 L440 17 Q419 4 395.5 -1.5 Q372 -7 349 -12 L334 -12 Q300 -10 266 -10.5 Q232 -11 200 1 L187 6 Q170 14 154.5 23 Q139 32 127 46 L119 55 Q114 62 109 69 Q104 76 100 84 Q95 94 90 105 Q85 116 81 129 Q74 148 70.5 168 Q67 188 65 208 Q61 245 59 282 Q58 307 57 332 Q56 357 56 382 Q56 394 55.5 406.5 Q55 419 55 431 L55 443 Q54 455 54.5 467 Q55 479 55 490 Q56 493 55.5 495.5 Q55 498 55 500 Q55 520 54 540.5 Q53 561 54 581 Q53 584 53 592 L55 600 Q54 603 54 615 Q54 623 53 626 Q54 638 52.5 650.5 Q51 663 53 675 L55 683 Q59 695 68 699 Q77 703 88 703.5 Q99 704 110.5 703 Q122 702 131 705 L179 705 Q184 705 188 701 Q193 696 194 686.5 Q195 677 196 669 L196 657 Q194 648 194 637 Q194 626 194.5 608.5 Q195 591 196 565.5 Q197 540 197 502 Q196 484 195 465.5 Q194 447 196 428 L196 418 Q198 394 195 369.5 Q192 345 196 321 Q196 313 197 311 Q197 308 197.5 305.5 Q198 303 198 300 L198 290 Q198 280 198.5 270.5 Q199 261 200 250 Q200 233 204 218 L204 209 Q205 201 206.5 193 Q208 185 212 176 Q214 172 216 169 Q218 166 220 162 Q221 160 222 158 Q223 156 225 153 L232 146 Q244 132 260 128 L270 125 Q292 123 315 125 Q338 127 358 137 L364 141 L370 146 Q372 149 374.5 151.5 Q377 154 379 158 Q392 173 397 196.5 Q402 220 403 241 L405 252 Q404 258 404.5 264.5 Q405 271 405 278 L405 286 Q404 309 406 330.5 Q408 352 409 374 L409 385 Q408 410 405 434 Q402 458 402 483 L402 488 Q402 499 401.5 508.5 Q401 518 401 529 Q400 532 400 543 Q400 547 400.5 550.5 Q401 554 401 558 L401 574 Q403 600 399 626 Q395 652 399 678 Q402 700 420 704 Q422 706 425 706 Q428 706 432 707 Q441 708 452 708.5 Q463 709 475 709 L486 709 Q494 708 503.5 708 Q513 708 521.5 706.5 Q530 705 536.5 701 Q543 697 545 687 Q550 665 548 643.5 Q546 622 545 600 Q545 594 544 593 L544 558 Q544 551 544 544 Q544 537 545 530 Q546 527 546 515 Q547 495 547 476.5 Q547 458 547 438 Q547 434 547 430.5 Q547 427 546 422 L546 394 Q547 381 547.5 369 Q548 357 548 344 Z " />
<glyph glyph-name="V" unicode="V" horiz-adv-x="633" d="M587 703 Q603 698 602.5 682 Q602 666 597 654 L594 645 Q592 639 592 637 Q590 633 589.5 630 Q589 627 587 623 Q584 612 580.5 602.5 Q577 593 574 584 L571 573 Q562 556 557 532 L555 523 Q549 501 540 478 L537 469 Q529 446 524 426 L522 417 Q520 407 517 397.5 Q514 388 511 378 L508 368 Q503 357 499 345.5 Q495 334 491 322 L485 304 Q484 301 483 298.5 Q482 296 481 294 L475 276 Q473 267 470 258.5 Q467 250 464 241 L461 232 Q459 224 456 217 Q453 210 451 203 Q450 201 449 198.5 Q448 196 447 193 Q438 169 430 145 Q422 121 413 97 L410 88 L395 49 Q393 45 392 41 Q391 37 389 32 Q384 20 379 14 Q373 5 366 -2 Q358 -4 356 -4 Q354 -5 347 -5 L338 -5 Q324 -6 310.5 -5 Q297 -4 283 -3 Q278 -2 273.5 -2 Q269 -2 264 -2 Q251 1 244 11.5 Q237 22 233 35 L230 43 Q228 54 225 62 L222 71 Q216 90 211 109 Q206 128 198 146 Q197 148 196 150 Q195 152 194 155 Q190 167 186.5 179.5 Q183 192 180 204 L177 213 Q173 226 170 238 Q167 250 162 262 L159 272 L147 302 L144 311 Q140 331 132 350 L129 360 Q127 367 124.5 373.5 Q122 380 120 388 Q118 390 117.5 393 Q117 396 116 398 Q111 412 107 424.5 Q103 437 98 451 Q96 459 96 460 Q92 472 89 483.5 Q86 495 81 506 L78 516 L63 567 L60 575 Q57 584 54.5 593 Q52 602 50 611 Q46 619 43.5 627.5 Q41 636 39 646 L33 660 Q33 661 31 669 Q30 675 30 682.5 Q30 690 34 695 Q37 698 41 700 L54 703 Q56 703 57.5 703.5 Q59 704 61 704 Q84 706 106 706 Q128 706 150 702 Q153 701 155 700 Q157 699 159 698 Q168 694 173 684 Q174 682 175 679.5 Q176 677 177 674 L180 664 Q180 663 182 655 Q182 654 184 646 Q192 628 195.5 609 Q199 590 206 572 L209 562 L222 524 L226 513 Q226 512 228 504 L231 495 Q232 494 234 487 Q237 483 237 477 Q239 473 240 469.5 Q241 466 243 461 L245 453 Q245 451 245.5 448 Q246 445 246 443 Q251 422 258 401.5 Q265 381 271 360 Q273 352 273 351 Q276 336 282 326 L285 317 Q288 308 291.5 299 Q295 290 297 280 Q299 274 299 273 Q301 265 301 263 Q303 255 303 255 L311 219 Q312 224 312.5 228 Q313 232 315 236 L318 245 Q326 265 332 285.5 Q338 306 347 326 L349 334 Q357 352 363.5 371 Q370 390 376 411 L379 422 Q381 427 382 432 Q383 437 385 442 L387 449 Q395 472 401 494.5 Q407 517 415 540 L417 549 Q422 568 429 588 Q436 608 444 628 L447 637 Q449 644 450.5 650.5 Q452 657 454 663 L457 672 Q466 691 480 699 Q486 701 488 701 Q495 702 502 702.5 Q509 703 516 703 L525 703 Q539 704 552.5 705.5 Q566 707 579 705 L587 703 Z " />
<glyph glyph-name="W" unicode="W" horiz-adv-x="914" d="M817 702 Q826 701 837 702 Q848 703 858 702.5 Q868 702 875.5 697.5 Q883 693 884 681 L884 672 Q884 671 882 663 Q875 643 869 623 Q863 603 858 583 Q858 583 856 577 L853 564 L850 555 Q846 531 838 507 L835 497 L823 449 L821 439 L819 432 L817 422 Q815 414 815 413 Q814 410 813 408 Q812 406 811 404 Q802 383 799 360 Q796 337 788 315 L786 306 L780 286 Q775 270 770.5 254.5 Q766 239 760 223 L760 218 Q758 212 756.5 205 Q755 198 753 192 L750 183 Q750 182 748 174 L745 165 Q742 150 738 135 Q734 120 730 105 L727 96 Q725 82 721.5 65 Q718 48 712 33 L707 24 Q706 22 705 20 Q704 18 702 15 Q693 6 681.5 2 Q670 -2 658 -2.5 Q646 -3 633.5 -2.5 Q621 -2 609 -3 Q607 -3 604 -2.5 Q601 -2 599 -2 Q586 0 581 3 L573 9 Q560 19 556 37 L553 45 Q551 53 551 55 L530 123 Q530 125 529.5 127.5 Q529 130 529 132 Q524 154 517.5 175.5 Q511 197 506 219 L503 227 L497 252 L494 262 Q494 262 492 270 L490 278 L481 308 L472 344 Q472 345 470 353 Q467 365 463.5 377 Q460 389 456 400 Q448 380 445 358 Q442 336 435 315 L433 306 L427 286 Q422 270 417.5 254.5 Q413 239 407 223 L407 218 Q405 212 403.5 205 Q402 198 400 192 L397 183 Q397 182 395 174 L392 165 Q389 150 385 135 Q381 120 377 105 L374 96 Q372 82 368.5 65 Q365 48 359 33 L354 24 Q353 22 352 20 Q351 18 349 15 Q340 6 328.5 2 Q317 -2 305 -2.5 Q293 -3 280.5 -2.5 Q268 -2 256 -3 Q254 -3 251 -2.5 Q248 -2 246 -2 Q233 0 228 3 L220 9 Q207 19 203 37 L200 45 Q198 53 198 55 L177 123 Q177 125 176.5 127.5 Q176 130 176 132 Q171 154 164.5 175.5 Q158 197 153 219 L150 227 L144 252 L141 262 Q141 262 139 270 L137 278 L128 308 L119 344 Q119 345 117 353 Q112 376 105 396.5 Q98 417 93 439 L91 449 L74 522 L71 533 L63 561 L60 570 Q56 584 53.5 597.5 Q51 611 46 625 L44 631 Q42 639 42 638 L39 647 Q34 658 31 670 Q28 682 34 693 Q39 701 48.5 701.5 Q58 702 66 704 L74 704 Q88 705 101 704 Q114 703 127 702 Q135 702 137 701 Q151 699 162 692 Q173 685 177 668 L180 660 L182 651 L185 640 Q190 623 193.5 607.5 Q197 592 201 575 Q201 575 203 565 Q208 540 215.5 516.5 Q223 493 228 468 L231 458 Q232 449 237 438 L240 429 Q240 427 242 419 L245 409 Q247 401 247 400 Q250 390 252.5 380 Q255 370 257 359 Q259 354 260 349 Q261 344 262 339 L265 330 Q267 322 267 321 Q270 307 272 293 Q274 279 279 265 Q285 286 289 307 Q293 328 299 349 L311 385 Q317 406 320 428 L323 437 L325 444 Q333 471 337 498 Q339 506 339 507 Q343 519 346.5 531 Q350 543 353 556 Q355 564 355 565 Q362 595 373 626 L376 636 L379 645 Q382 662 389.5 680.5 Q397 699 415 703 Q418 704 427 704 Q443 704 458.5 702.5 Q474 701 490 703 L499 701 Q510 698 518.5 690.5 Q527 683 529 669 L532 659 Q534 654 534.5 650 Q535 646 537 641 L540 632 L543 622 L554 575 Q554 575 556 565 Q561 540 568.5 516.5 Q576 493 581 468 L584 458 Q585 449 590 438 L593 429 Q593 427 595 419 L598 409 Q600 401 600 400 Q603 390 605.5 380 Q608 370 610 359 Q612 354 613 349 Q614 344 615 339 L618 330 Q620 322 620 321 Q623 307 625 293 Q627 279 632 265 Q638 286 642 307 Q646 328 652 349 L664 385 Q670 406 673 428 L676 437 L678 444 Q686 471 690 498 Q692 506 692 507 Q696 519 699.5 531 Q703 543 706 556 Q708 564 708 565 Q713 586 719.5 606 Q726 626 732 646 L735 656 Q740 672 748 686 Q756 700 773 702 L782 702 Q789 703 795.5 703 Q802 703 809 703 Q815 703 817 702 Z " />
<glyph glyph-name="X" unicode="X" horiz-adv-x="554" d="M522 23 Q524 15 524 14 Q523 6 517.5 2.5 Q512 -1 505.5 -2 Q499 -3 491.5 -3 Q484 -3 478 -4 Q476 -4 473.5 -4.5 Q471 -5 469 -5 Q453 -5 438 -4 Q423 -3 407 -1 Q399 -1 397 0 Q377 4 366.5 24 Q356 44 346 61 L343 67 L339 74 Q334 81 330.5 88 Q327 95 325 103 Q323 105 322.5 108 Q322 111 321 113 Q313 136 300.5 157 Q288 178 280 201 L277 208 Q277 208 275 216 Q266 194 254 171 Q253 169 252 167 Q251 165 250 162 L245 153 Q239 139 233 124.5 Q227 110 222 96 L195 42 L192 37 Q188 30 183 24 Q178 18 173 13 L165 7 Q161 3 156 1 Q154 0 151.5 -1 Q149 -2 147 -2 Q141 -4 136 -4 Q125 -4 113 -5 Q101 -6 89 -7 L79 -7 Q65 -7 53 -4 Q51 -3 49 -3 Q47 -3 45 -1 Q36 1 33 7 Q30 13 30.5 20.5 Q31 28 34 35.5 Q37 43 40 48 L44 56 Q49 65 54.5 74 Q60 83 64 92 L70 103 L89 141 Q99 161 111 180 Q123 199 133 219 L142 237 Q156 260 165.5 283.5 Q175 307 186 330 Q188 335 190 337 L197 352 L194 358 Q183 377 174.5 396.5 Q166 416 157 436 Q155 438 155 440 Q155 442 154 444 Q151 447 149 453 Q148 454 148 457 Q148 457 143 467.5 Q138 478 129.5 494 Q121 510 110 531 Q99 552 88 573 Q87 575 86 576.5 Q85 578 84 580 Q74 603 60 624 Q46 645 36 669 Q36 669 34 675 Q32 687 37 693 Q42 698 46 700 Q51 703 56 703 Q78 704 100 706 Q122 708 144 706 L153 706 Q162 704 170.5 700 Q179 696 185 687 L190 680 Q192 675 195 670 Q198 665 200 658 L204 651 Q209 642 213 633.5 Q217 625 222 617 L227 607 Q235 587 245.5 568 Q256 549 266 529 Q266 528 268 522 L275 508 Q282 520 286.5 532.5 Q291 545 297 557 L300 563 Q304 572 309 579 L312 586 L321 602 Q325 610 330 619 Q335 628 340 639 L343 645 Q348 652 352 661 Q356 670 361.5 678.5 Q367 687 373.5 693 Q380 699 390 701 Q398 703 401 703 Q419 701 437.5 702 Q456 703 474 701 Q476 701 479 700.5 Q482 700 484 700 L491 700 Q495 700 499.5 700 Q504 700 507 697 Q515 689 513.5 678 Q512 667 507 658 L503 649 Q498 640 492.5 631.5 Q487 623 483 615 L480 609 Q478 604 475.5 599.5 Q473 595 470 590 L467 583 Q455 556 441.5 530.5 Q428 505 413 479 Q412 475 409 472 Q407 468 406 465.5 Q405 463 404 461 L400 453 Q399 451 398.5 448.5 Q398 446 396 444 Q395 442 395 440 Q395 438 393 436 L388 426 L384 416 Q372 385 356 358 L353 352 L353 351 Q353 350 354 349 L359 340 Q366 320 375.5 301.5 Q385 283 396 266 L400 258 L413 230 L417 221 Q420 213 423.5 206.5 Q427 200 431 193 Q432 191 433 189 Q434 187 436 184 Q446 163 457.5 143 Q469 123 480 103 L489 85 L491 82 L494 76 L497 67 Q499 61 502 58 L506 49 Q509 44 514 37 Q519 30 522 23 Z " />
<glyph glyph-name="Y" unicode="Y" horiz-adv-x="572" d="M535 699 Q543 691 541.5 680 Q540 669 535 660 L531 651 Q526 642 520.5 633.5 Q515 625 511 617 L508 611 Q506 606 503.5 601.5 Q501 597 498 592 L495 585 Q489 571 479.5 553.5 Q470 536 459.5 517.5 Q449 499 439 482 Q429 465 422 451 Q421 447 418 444 Q416 440 415 437.5 Q414 435 413 433 L409 425 Q408 423 407.5 420.5 Q407 418 405 416 Q404 414 404 412 Q404 410 402 408 L397 398 L387 373 Q385 371 383 366 L380 358 L376 351 L373 342 L368 333 Q362 315 352 298 L350 255 Q350 253 349.5 250.5 Q349 248 349 246 Q349 243 348.5 240.5 Q348 238 348 236 L348 48 Q351 35 350 27 Q350 24 349.5 21.5 Q349 19 349 17 Q345 7 338 3 Q331 -1 323 -3 Q321 -3 318.5 -3.5 Q316 -4 314 -4 Q291 -5 269.5 -5.5 Q248 -6 225 -2 Q222 -1 219 2 Q216 3 214 8 Q205 24 210 43 Q209 44 209 51 L209 62 Q209 67 209 72 Q209 77 210 82 L210 90 Q210 116 209.5 135 Q209 154 209 158 L209 246 Q210 257 210.5 266.5 Q211 276 211 286 Q211 289 211.5 291.5 Q212 294 212 296 L212 304 Q208 314 206 324 L203 330 Q200 335 197.5 339.5 Q195 344 193 349 Q186 362 180.5 374.5 Q175 387 169 400 L166 408 L132 477 L129 483 Q121 497 113 513 Q105 529 97 545 Q96 547 95 548.5 Q94 550 93 552 Q88 564 80 579 Q72 594 63.5 609.5 Q55 625 46.5 640.5 Q38 656 33 668 Q33 668 31 674 Q29 686 34 692 Q39 697 43 699 Q48 702 53 702 Q75 703 97 705 Q119 707 141 705 L150 705 Q159 703 167.5 699 Q176 695 182 686 L187 679 Q189 674 192 669 Q195 664 197 657 L201 650 Q203 645 207 637 Q211 629 215.5 620 Q220 611 224 603.5 Q228 596 230 592 L235 582 Q239 572 244 562 Q249 552 254 542 L258 534 Q260 529 263 524 Q266 519 268 512 Q269 510 270 508.5 Q271 507 272 505 Q275 497 278.5 490 Q282 483 285 475 Q291 486 294 498 L297 505 Q302 523 311 538.5 Q320 554 328 571 Q329 573 330 574 Q331 575 332 577 Q333 578 333 580 L345 600 Q350 609 356.5 619.5 Q363 630 368 641 L371 647 Q376 654 380 663 Q384 672 389.5 680.5 Q395 689 401.5 695 Q408 701 418 703 Q426 705 429 705 Q447 703 465.5 704 Q484 705 502 703 Q504 703 507 702.5 Q510 702 512 702 L519 702 Q523 702 527.5 702 Q532 702 535 699 Z " />
<glyph glyph-name="Z" unicode="Z" horiz-adv-x="539" d="M502 112 Q500 89 502 65 Q504 41 497 17 L495 11 L490 4 Q485 -1 474 -1 L466 -1 Q441 -2 416.5 -1.5 Q392 -1 367 -1 Q360 -1 357 -2 L348 -2 Q336 -3 324 -3.5 Q312 -4 300 -2 Q297 -2 294.5 -2.5 Q292 -3 289 -3 Q259 -3 229 0 L219 0 Q204 -1 189 -1.5 Q174 -2 159 0 Q153 0 151 -1 Q146 -1 142.5 -1.5 Q139 -2 134 -1 Q124 0 114.5 -0.5 Q105 -1 94 -2 Q93 -3 86 -3 Q77 -2 64 -2.5 Q51 -3 41 1 Q37 2 35 6 Q31 9 31 14 Q30 16 30 23 Q32 43 44 60 Q56 77 62 97 Q62 99 64 101 Q65 102 65 103 L84 141 Q91 155 99 168 Q107 181 115 195 L120 203 Q121 206 122 208 Q123 210 124 212 L128 221 L172 310 Q173 312 174 314 Q175 316 176 319 Q181 328 184.5 337 Q188 346 192 355 Q193 358 194 360.5 Q195 363 196 365 Q206 387 216.5 407.5 Q227 428 237 450 L242 459 Q248 470 253.5 480.5 Q259 491 266 502 Q267 504 268 505.5 Q269 507 270 509 Q275 517 278.5 525.5 Q282 534 286 543 L292 557 L295 563 Q252 563 205 563.5 Q158 564 122 564 L115 564 Q100 564 81.5 561.5 Q63 559 56 567 L51 574 Q49 582 49 583 Q47 591 47 593 Q45 613 46.5 634 Q48 655 48 675 Q48 677 48.5 679.5 Q49 682 49 684 Q50 689 53 692 Q61 702 74.5 701 Q88 700 99 700 L109 700 Q128 700 144 702 Q160 704 179 702 L388 702 Q390 702 392 702.5 Q394 703 396 703 Q399 702 410 702 L413 702 Q427 701 441 701.5 Q455 702 469 701 Q471 701 474 700.5 Q477 700 479 700 L486 700 Q490 700 494.5 700 Q499 700 502 697 Q510 689 508.5 678 Q507 667 502 658 L498 649 Q493 640 487.5 631.5 Q482 623 478 615 L475 609 Q473 604 470.5 599.5 Q468 595 465 590 L462 583 Q450 556 436.5 530.5 Q423 505 408 479 Q407 475 404 472 Q402 468 401 465.5 Q400 463 399 461 L395 453 Q394 451 393.5 448.5 Q393 446 391 444 L378 418 L374 409 Q372 407 371.5 405 Q371 403 369 401 Q368 398 367 396 Q366 394 365 392 Q352 370 341.5 347 Q331 324 320 301 Q318 299 317.5 297 Q317 295 315 293 L308 281 Q307 278 304 275 Q294 256 285 237.5 Q276 219 265 201 L257 183 L239 147 Q237 145 236.5 143 Q236 141 234 139 L386 139 Q393 139 396 138 Q417 136 438.5 138 Q460 140 481 138 L489 135 Q498 130 500 122 L502 112 Z " />
<glyph glyph-name="bracketleft" unicode="&#x5b;" horiz-adv-x="326" d="M55 -186 Q53 -178 53 -178 Q52 -177 52 -173 L52 -138 Q52 -117 52 -90.5 Q52 -64 51.5 -34.5 Q51 -5 51 25 Q51 55 51 83 L52 83 Q51 95 50.5 107 Q50 119 50 132 L50 162 Q51 175 51 188 Q51 201 51 215 L50 215 L50 373 Q50 411 50.5 447 Q51 483 51 507 Q51 521 51.5 529 Q52 537 52 539 L52 849 Q54 870 67 885 Q68 887 69 887.5 Q70 888 71 889 Q82 898 95.5 899.5 Q109 901 122 901 L269 901 Q271 901 273.5 900.5 Q276 900 278 900 Q316 903 319 860 Q319 857 319.5 854.5 Q320 852 320 849 Q321 839 320.5 829 Q320 819 316 809 Q315 804 312 801 Q305 789 291 786 Q290 786 284 784 Q276 782 273.5 781.5 Q271 781 263 782 L191 782 L191 636 Q189 614 189.5 593 Q190 572 190 550 L188 453 L190 400 L190 215 Q190 202 190.5 186.5 Q191 171 191 157 L191 146 Q190 132 191.5 117.5 Q193 103 191 89 L191 -80 L264 -80 Q272 -79 276.5 -79.5 Q281 -80 289 -82 Q295 -84 296 -84 Q304 -86 306.5 -90 Q309 -94 312 -99 Q315 -102 316 -107 Q320 -117 320.5 -127 Q321 -137 320 -147 Q320 -150 319.5 -152.5 Q319 -155 319 -158 Q317 -178 306.5 -189.5 Q296 -201 277 -199 Q275 -199 272.5 -199.5 Q270 -200 268 -200 L204 -200 Q177 -200 147.5 -199.5 Q118 -199 95 -199 L83 -199 Q78 -199 77 -198 Q72 -197 67.5 -194 Q63 -191 58 -189 L55 -186 Z " />
<glyph glyph-name="backslash" unicode="&#x5c;" horiz-adv-x="456" d="M256 177 Q251 187 246.5 197 Q242 207 236 216 L229 230 Q221 244 214 258 Q207 272 201 284 Q197 291 194 297.5 Q191 304 188 311 L167 355 L162 364 Q153 388 139 409.5 Q125 431 114 454 L110 462 L90 506 L87 512 Q85 517 83 521.5 Q81 526 79 530 L76 537 Q74 540 66.5 555 Q59 570 50 590 L47 596 Q45 601 43 606.5 Q41 612 37 617 Q32 623 28 633 L25 641 L13 666 L11 675 Q8 691 16 696.5 Q24 702 37 702.5 Q50 703 64.5 701 Q79 699 89 701 Q88 701 88 700.5 Q88 700 87 700 Q95 700 97 699 Q102 699 106 696 Q117 690 123 681 Q129 672 133.5 661.5 Q138 651 142.5 640 Q147 629 153 619 L156 613 L164 595 L170 585 L216 493 Q221 482 226.5 471 Q232 460 239 449 L242 443 L245 438 Q256 414 269 391.5 Q282 369 290 344 L295 337 Q300 328 301 326 L331 264 L336 254 L357 209 L362 200 L400 118 Q400 118 402 112 Q407 99 413 86 Q419 73 426 60 L430 51 L436 43 Q441 35 444 26.5 Q447 18 444 9 Q441 0 432.5 -2.5 Q424 -5 416 -6 Q414 -5 408 -5 Q398 -5 387 -5.5 Q376 -6 366 -4.5 Q356 -3 348 1.5 Q340 6 335 17 L326 35 L323 43 L278 130 L272 142 L260 165 L258 171 Q257 174 257 176 Q256 176 256 177 Z " />
<glyph glyph-name="bracketright" unicode="&#x5d;" horiz-adv-x="326" d="M268 -189 Q263 -191 258.5 -194 Q254 -197 249 -198 Q248 -199 243 -199 L231 -199 Q208 -199 178.5 -199.5 Q149 -200 122 -200 L58 -200 Q56 -200 53.5 -199.5 Q51 -199 49 -199 Q30 -201 19.5 -189.5 Q9 -178 7 -158 Q7 -155 6.5 -152.5 Q6 -150 6 -147 Q5 -137 5.5 -127 Q6 -117 10 -107 Q11 -102 14 -99 Q17 -94 19.5 -90 Q22 -86 30 -84 Q31 -84 37 -82 Q45 -80 49.5 -79.5 Q54 -79 62 -80 L135 -80 L135 89 Q133 103 134.5 117.5 Q136 132 135 146 L135 157 Q135 171 135.5 186.5 Q136 202 136 215 L136 400 L138 453 L136 550 Q136 572 136.5 593 Q137 614 135 636 L135 782 L63 782 Q55 781 52.5 781.5 Q50 782 42 784 Q36 786 35 786 Q22 789 14 801 Q11 804 10 809 Q6 819 5.5 829 Q5 839 6 849 Q6 852 6.5 854.5 Q7 857 7 860 Q10 903 48 900 Q50 900 52.5 900.5 Q55 901 57 901 L204 901 Q217 901 230.5 899.5 Q244 898 255 889 Q256 888 257 887.5 Q258 887 259 885 Q273 870 274 849 L274 539 Q274 537 274.5 529 Q275 521 275 507 Q275 483 275.5 447 Q276 411 276 373 L276 215 L275 215 Q275 201 275 188 Q275 175 276 162 L276 132 Q276 119 275.5 107 Q275 95 274 83 L275 83 Q275 55 275 25 Q275 -5 274.5 -34.5 Q274 -64 274 -90.5 Q274 -117 274 -138 L274 -173 Q274 -177 273 -178 Q273 -178 271 -186 L268 -189 Z " />
<glyph glyph-name="asciicircum" unicode="&#x5e;" horiz-adv-x="533" d="M437 372 Q434 374 430.5 375.5 Q427 377 425 380 Q424 381 423 381.5 Q422 382 421 384 Q414 392 408.5 401 Q403 410 395 418 L389 425 Q386 429 382 432 L369 446 Q358 459 347.5 472 Q337 485 325 497 L318 505 Q303 520 291 537 Q279 554 265 570 L237 535 L231 528 Q229 526 228.5 524.5 Q228 523 226 521 Q212 503 196.5 487 Q181 471 167 453 Q166 451 165 450 Q164 449 163 447 Q158 441 154 436 Q150 431 146 427 L138 418 L134 413 Q126 403 118 391 Q110 379 102 374 Q96 372 95 372 Q83 370 73.5 374.5 Q64 379 56 387 Q53 391 49 394 Q42 400 34.5 407 Q27 414 23 422 Q19 430 20 438.5 Q21 447 31 455 L37 461 Q42 467 48 473 Q54 479 59 486 L65 493 Q69 497 76 509 L79 512 Q86 520 93 528.5 Q100 537 107 546 Q108 547 109 548 Q110 549 111 551 L115 555 Q120 561 124.5 567.5 Q129 574 134 580 Q135 582 136 582.5 Q137 583 138 585 Q141 589 143.5 592.5 Q146 596 148 598 L153 603 L156 607 L165 617 Q171 623 172 625 L186 639 L201 658 L206 664 L214 672 Q225 686 239.5 698.5 Q254 711 274 707 L283 704 Q295 700 305 690 L309 685 Q320 672 330 661 L337 652 L343 643 Q345 641 346.5 638.5 Q348 636 350 634 Q353 631 356 628 Q359 625 361 621 L373 607 Q381 596 390 586.5 Q399 577 407 566 Q410 562 413 558.5 Q416 555 420 550 Q426 542 432.5 534.5 Q439 527 446 519 L455 508 Q459 503 462 498.5 Q465 494 469 491 Q474 486 475 484 L479 479 Q483 474 487.5 469.5 Q492 465 497 460 Q499 459 499.5 458 Q500 457 502 456 Q508 449 511.5 439.5 Q515 430 508 421 Q507 419 506 418.5 Q505 418 504 416 L500 411 L478 390 L473 386 Q459 372 443 371 Q442 371 440.5 371.5 Q439 372 437 372 Z " />
<glyph glyph-name="underscore" unicode="&#x5f;" horiz-adv-x="428" d="M93 -1 Q119 -1 140 -0.5 Q161 0 165 0 L323 -1 Q328 -2 332.5 -2.5 Q337 -3 342 -3 L351 -3 Q368 -5 384.5 -2 Q401 1 414 -5 Q423 -10 425.5 -13.5 Q428 -17 427.5 -21 Q427 -25 426 -31 Q425 -37 427 -47 Q426 -61 420 -67.5 Q414 -74 404.5 -76 Q395 -78 383 -77.5 Q371 -77 359 -77 L352 -77 Q243 -78 181 -78 Q119 -78 87 -77 Q56 -80 37 -79 Q18 -78 9 -70 Q4 -65 3 -54 Q3 -55 2.5 -51.5 Q2 -48 1 -42 Q-1 -31 4 -16 Q5 -13 8 -10 Q9 -8 9 -7 Q9 -6 11 -5 Q27 4 46 -1 Q47 0 54 0 L65 0 Q70 0 75 0 Q80 0 85 -1 L93 -1 Z " />
<glyph glyph-name="grave" unicode="&#x60;" horiz-adv-x="172" d="M171 787 Q172 780 166.5 776 Q161 772 155 771 L145 771 Q141 770 137 770 Q133 770 129 770 L103 770 Q92 770 82.5 777.5 Q73 785 69 792 L65 797 L32 842 L28 847 L26 851 L22 856 L19 859 Q18 861 18 862 Q17 863 17 863 Q15 864 14.5 865 Q14 866 12 868 L6 878 Q4 880 4 883 Q2 885 2 887 Q-1 895 2 901.5 Q5 908 11 913 Q12 914 13 915 Q14 916 16 917 Q18 917 19 917.5 Q20 918 22 918 Q36 921 50 921 Q64 921 78 921 Q80 921 83.5 921 Q87 921 89 920 Q99 920 110 909 L113 905 Q120 892 126.5 880 Q133 868 139 855 Q142 852 143 849 L147 840 L152 832 L164 808 L167 803 Q169 799 170.5 795.5 Q172 792 171 787 Z " />
<glyph glyph-name="a" unicode="a" horiz-adv-x="600" d="M548 361 Q548 348 547.5 336 Q547 324 546 311 L546 283 Q547 278 547 274.5 Q547 271 547 267 Q547 247 547 228.5 Q547 210 546 190 Q546 178 545 175 Q544 168 544 161 Q544 154 544 147 L544 112 Q545 111 545 105 Q546 83 548 61.5 Q550 40 545 18 Q543 8 536.5 3.5 Q530 -1 521.5 -2.5 Q513 -4 503.5 -3.5 Q494 -3 486 -4 L475 -4 Q463 -4 452 -3.5 Q441 -3 432 -2 Q428 -1 425 -1 Q422 -1 420 1 Q402 5 399 27 Q395 53 399 79 Q403 105 401 131 L401 147 Q401 151 400.5 154.5 Q400 158 400 162 Q400 173 401 176 Q401 187 401.5 197 Q402 207 402 218 L402 225 Q391 226 380 227 Q369 228 358 228 L294 228 Q269 228 245 228.5 Q221 229 196 229 Q196 225 197 224 Q196 200 196.5 175.5 Q197 151 197 127 Q196 125 196 117 Q195 109 194.5 101.5 Q194 94 194 86 L194 70 Q192 59 194 48 L194 36 Q193 28 192 18.5 Q191 9 186 4 Q182 0 177 0 Q163 1 150 -0.5 Q137 -2 124 -3 Q116 -3 113 -4 Q99 -3 82 -2.5 Q65 -2 57 12 Q48 28 51 45 Q54 62 53 79 Q54 82 54 90 Q54 102 55 105 L55 113 Q57 134 57 154.5 Q57 175 57 196 Q57 203 56 205 Q55 219 54.5 233.5 Q54 248 55 262 L55 274 Q55 286 55.5 298.5 Q56 311 56 323 Q56 348 57 373 Q58 398 59 423 Q61 460 65 497 Q67 517 70.5 537 Q74 557 81 576 Q85 589 90 600 Q95 611 100 621 Q104 629 109 636 Q114 643 119 650 L127 659 Q139 673 154.5 682 Q170 691 187 699 L200 704 Q232 716 266 715.5 Q300 715 334 717 L349 717 Q379 714 409 707 Q439 700 463 680 L468 676 Q485 659 500 639.5 Q515 620 526 598 L530 587 Q532 579 534 571 Q536 563 537 554 Q537 552 537.5 549 Q538 546 538 544 L543 513 Q543 510 543 506.5 Q543 503 544 500 Q546 489 546.5 479 Q547 469 548 459 Q550 434 549.5 409.5 Q549 385 548 361 Z M359 368 Q371 368 383 367 Q395 366 407 365 Q407 372 406.5 378 Q406 384 406 391 Q406 393 405.5 396 Q405 399 405 401 Q404 428 405 453 L403 464 Q403 470 402 478 Q401 486 398 492 Q396 507 392.5 521 Q389 535 379 547 Q377 551 374.5 553.5 Q372 556 370 559 L364 564 L358 568 Q338 578 315 580 Q292 582 270 580 L260 577 Q244 573 232 559 L225 552 Q223 549 222 547 Q221 545 220 543 Q218 539 216 536 Q214 533 212 529 Q210 521 208 513 Q206 505 205 496 Q205 494 204.5 491.5 Q204 489 204 487 Q201 471 201 455 Q199 433 198.5 412 Q198 391 197 369 Q221 369 245.5 368.5 Q270 368 294 368 Q311 368 327 368.5 Q343 369 359 368 Z " />
<glyph glyph-name="b" unicode="b" horiz-adv-x="586" d="M535 209 Q536 207 536 199 L536 190 Q535 153 521 121 L516 112 Q506 87 486 66 L479 59 Q468 48 456 39 L448 33 Q425 15 397 9 Q369 3 341 -2 L320 -2 Q310 -3 300.5 -3.5 Q291 -4 280 -4 L248 -4 Q226 -6 204 -4.5 Q182 -3 160 -2 L109 -2 Q85 -7 74.5 8 Q64 23 62 43 L62 54 Q62 74 63 95 Q64 116 63 136 L63 145 Q63 156 63.5 167.5 Q64 179 63 190 L63 200 Q65 223 63 247 Q63 249 63.5 251.5 Q64 254 64 256 L64 308 Q63 310 63 318 Q65 370 60 420 Q61 422 61 427 Q61 429 61.5 430.5 Q62 432 62 434 L62 442 Q62 444 62.5 447 Q63 450 63 452 Q63 460 64 463 Q62 470 62 477 Q62 484 61 491 L61 501 Q60 518 61.5 534 Q63 550 61 567 L61 577 Q60 590 61 602.5 Q62 615 63 628 L63 649 Q62 669 69 685 L73 693 L80 699 Q100 706 120 704.5 Q140 703 160 703 L170 703 Q182 703 194 702.5 Q206 702 218 703 L228 703 Q265 708 301 703 Q303 703 305 702.5 Q307 702 309 702 Q323 703 335.5 700.5 Q348 698 361 696 Q363 696 366 695.5 Q369 695 371 695 Q394 694 415 684 Q436 674 456 663 L466 658 L475 651 L483 644 Q511 615 523 573 L525 563 L527 556 Q527 554 528 553 Q535 528 536 502.5 Q537 477 525 453 L521 443 L518 437 Q517 436 517 434 Q515 429 512.5 425 Q510 421 507 416 Q502 409 500 408 Q492 397 483 387.5 Q474 378 464 370 L456 364 Q451 361 445.5 358 Q440 355 434 353 L427 350 L433 347 Q456 337 476 321 Q496 305 508 283 L514 275 Q517 271 519 265 Q531 243 534 219 Q535 216 535 209 Z M201 478 Q202 476 202 469 Q202 467 201.5 465 Q201 463 201 461 L201 460 L200 460 L200 452 Q199 450 199 443 Q199 435 200 433 L200 415 L223 415 Q231 415 238.5 414.5 Q246 414 254 414 L265 414 Q287 413 309 413 Q331 413 352 419 L361 423 Q377 431 381 444 Q383 446 383.5 448.5 Q384 451 385 453 L388 464 L390 472 Q392 485 389 494 Q389 496 388.5 497.5 Q388 499 388 501 L388 504 L386 513 Q384 518 381 523 Q378 528 376 532 Q373 538 370 541 Q361 558 341 564 Q321 570 302 572 Q300 571 293 571 Q273 571 254.5 572 Q236 573 217 571 L210 571 Q205 570 202 567 Q199 561 200 552 Q201 543 201 535 L201 525 Q201 513 202 501.5 Q203 490 202 478 L201 478 Z M391 212 L388 232 L386 241 L382 249 L379 256 Q370 268 356 273.5 Q342 279 326 281 Q319 281 317 282 L274 282 Q255 283 237 282 Q219 281 200 283 Q202 267 199.5 251.5 Q197 236 199 219 Q199 213 200 212 L200 176 Q201 169 200 161.5 Q199 154 201 149 Q201 146 204 144 Q226 134 251 136 Q276 138 299 137 Q306 137 308 138 Q322 140 334 144 L344 147 Q364 155 376 170 Q378 175 381 178 L385 185 Q386 187 387 189 Q388 191 389 194 L391 210 L391 212 Z " />
<glyph glyph-name="c" unicode="c" horiz-adv-x="590" d="M534 241 Q540 234 539.5 221.5 Q539 209 537 198 L537 192 L532 161 Q532 159 531.5 156 Q531 153 531 151 Q531 149 530.5 146.5 Q530 144 530 142 Q520 120 509.5 99 Q499 78 484 59 L477 52 Q460 35 442 23 L434 17 Q413 4 389.5 -1.5 Q366 -7 343 -12 L328 -12 Q294 -10 260 -10.5 Q226 -11 194 1 L181 6 Q164 14 148.5 23 Q133 32 121 46 L113 55 Q108 62 103 69 Q98 76 94 84 Q89 94 84 105 Q79 116 75 129 Q68 148 64.5 168 Q61 188 59 208 Q57 220 56 232 Q55 244 54 256 L54 265 Q53 285 53 304.5 Q53 324 51 344 L51 353 Q50 372 50.5 390 Q51 408 53 427 Q53 429 53.5 431.5 Q54 434 54 436 L56 463 Q56 465 56.5 467.5 Q57 470 57 472 L59 491 Q61 511 64.5 531 Q68 551 75 570 Q79 583 84 594 Q89 605 94 615 Q98 623 103 630 Q108 637 113 644 L121 653 Q133 667 148.5 676 Q164 685 181 693 L194 698 Q226 710 260 709.5 Q294 709 328 711 L343 711 Q366 706 389.5 700.5 Q413 695 434 682 L442 676 Q460 664 477 647 L484 640 Q500 621 507 604 Q509 600 512 595 Q515 590 517 585 Q523 575 526 565 Q529 555 531 544 L533 536 Q535 521 537.5 505 Q540 489 532 475 Q531 474 531 470 Q516 462 499.5 461.5 Q483 461 466 465 L432 465 Q424 465 415 464.5 Q406 464 401 469 Q395 476 393 486 Q391 496 389 506 L387 515 Q382 529 373 541 Q371 545 368.5 547.5 Q366 550 364 553 L358 558 L352 562 Q332 572 309 574 Q286 576 264 574 L254 571 Q238 567 226 553 L219 546 Q217 543 216 541 Q215 539 214 537 Q212 533 210 530 Q208 527 206 523 Q204 515 202 507 Q200 499 199 490 Q199 488 198.5 485.5 Q198 483 198 481 Q195 465 195 449 Q194 438 193.5 428.5 Q193 419 193 409 Q193 406 192.5 403.5 Q192 401 192 399 Q194 377 192.5 355 Q191 333 191 311 Q191 308 191.5 305.5 Q192 303 192 300 Q192 298 192.5 295.5 Q193 293 193 290 Q193 280 193.5 270.5 Q194 261 195 250 Q195 235 198 218 Q198 216 198.5 213.5 Q199 211 199 209 Q200 200 202 192 Q204 184 206 176 Q208 172 210 169 Q212 166 214 162 Q215 160 216 158 Q217 156 219 153 L226 146 Q238 132 254 128 L264 125 Q286 123 309 125 Q332 127 352 137 L358 141 L364 146 Q366 149 368.5 151.5 Q371 154 373 158 Q380 166 383.5 175 Q387 184 389 193 L391 203 Q391 205 391.5 206.5 Q392 208 392 210 Q392 222 396 229 Q400 238 406 242 Q418 248 430.5 249 Q443 250 456 249 Q469 248 482 247 Q495 246 508 248 Q520 248 523 247 Q531 244 534 241 Z " />
<glyph glyph-name="d" unicode="d" horiz-adv-x="596" d="M544 344 Q545 320 545.5 301 Q546 282 544 257 Q543 247 542.5 237 Q542 227 540 216 Q539 213 539 209.5 Q539 206 539 203 L534 172 Q534 170 533.5 167 Q533 164 533 162 Q533 160 532.5 157.5 Q532 155 532 153 Q522 131 511.5 110 Q501 89 486 70 L479 63 Q462 46 444 34 L436 28 Q415 15 391.5 9.5 Q368 4 345 -1 L320 -1 Q310 -2 300.5 -2.5 Q291 -3 280 -3 L270 -3 Q243 -5 215.5 -3 Q188 -1 160 -1 L109 -1 Q95 -4 86 0 Q77 4 71.5 12.5 Q66 21 64 32 Q62 43 62 55 L62 66 Q62 92 62 124.5 Q62 157 61.5 190 Q61 223 61 254 Q61 285 61 307 L61 316 Q62 339 60.5 362 Q59 385 61 408 L61 418 Q61 420 61.5 422.5 Q62 425 62 427 Q62 429 62.5 431.5 Q63 434 63 436 L65 463 Q65 464 65 483.5 Q65 503 65.5 531 Q66 559 66 590 Q66 621 66 645 L66 651 Q65 671 72 687 L76 695 L83 701 Q107 709 132.5 706 Q158 703 183 706 L193 706 Q217 705 240.5 708 Q264 711 288 706 Q290 705 296 705 L304 705 Q306 705 308 704.5 Q310 704 312 704 Q334 705 354 700 Q374 695 395 694 L405 690 Q422 684 436.5 674.5 Q451 665 468 657 Q470 656 470.5 655 Q471 654 473 652 L479 647 L486 640 Q502 621 509 604 Q511 600 514 595 Q517 590 519 585 Q531 565 533.5 543 Q536 521 540 499 L542 480 L542 473 L544 453 Q546 428 545.5 403.5 Q545 379 544 355 L544 344 Z M400 286 Q398 300 399.5 314 Q401 328 403 342 L402 351 L402 361 Q401 374 400 386 Q399 398 400 411 L400 421 Q400 428 400 434.5 Q400 441 401 447 L399 458 Q399 464 398 472 Q397 480 394 486 L391 506 L389 515 Q381 534 366 551 Q351 568 328 567 Q326 568 318 568 Q301 570 280 570.5 Q259 571 236 573 L236 574 L233 574 Q232 573 226 573 Q220 573 213.5 572.5 Q207 572 205 569 Q202 563 203 554 Q204 545 204 537 L204 449 Q203 438 202.5 428.5 Q202 419 202 409 Q202 406 201.5 403.5 Q201 401 201 399 Q203 377 201.5 355 Q200 333 200 311 L200 177 Q201 168 200 158 Q199 148 204 145 Q210 140 218.5 140 Q227 140 236 140 L236 141 L303 144 L314 144 Q337 142 356 154 Q375 166 385 186 Q386 188 387 190 Q388 192 389 195 Q391 202 392 209 Q393 216 394 224 Q397 230 398 238 Q399 246 399 252 L401 263 Q400 266 400 276 L400 286 Z " />
<glyph glyph-name="e" unicode="e" horiz-adv-x="537" d="M486 110 Q484 87 486 63 Q488 39 481 15 L479 9 L474 2 Q467 -6 450 -3.5 Q433 -1 418 -1 L411 -1 Q369 -1 321 -1.5 Q273 -2 235 -2 L213 -2 Q190 -3 167 -2 Q144 -1 121 -3 L111 -3 Q99 -4 88 -3 Q77 -2 66 4 Q63 7 62 10 Q59 19 61 33 Q63 47 63 60 L63 67 Q63 99 63 136 Q63 173 62.5 207.5 Q62 242 62 269 Q62 296 62 307 L62 353 Q61 367 61.5 380 Q62 393 63 407 L63 418 Q64 445 64 472 Q64 499 66 526 L66 533 Q65 552 65.5 573 Q66 594 66 615 L66 651 Q63 664 64 672 Q64 675 64.5 677.5 Q65 680 65 682 Q69 692 76 696 Q83 700 91 702 Q93 702 95.5 702.5 Q98 703 100 703 Q121 704 141.5 704.5 Q162 705 183 702 L382 702 Q387 701 391.5 700.5 Q396 700 401 700 L410 700 Q427 698 443.5 701 Q460 704 473 698 Q482 693 484 684.5 Q486 676 485 665 Q485 663 484.5 660 Q484 657 484 654 Q481 640 482.5 626.5 Q484 613 483 599 L483 593 Q482 587 481 582.5 Q480 578 479 574 L474 567 Q467 559 450 561.5 Q433 564 418 564 L411 564 Q385 564 356.5 564 Q328 564 300.5 563.5 Q273 563 248 563 Q223 563 204 563 Q204 553 204.5 546 Q205 539 205 537 L205 449 Q204 445 204 441.5 Q204 438 204 435 L382 435 Q387 434 391.5 433.5 Q396 433 401 433 L422 433 Q435 431 447.5 433.5 Q460 436 471 429 Q482 421 480 407 L480 400 L477 367 L477 356 Q476 351 476 346 Q476 341 476 336 L476 326 Q478 311 471.5 305 Q465 299 454.5 297.5 Q444 296 432 297 Q420 298 411 297 L399 297 Q373 297 345.5 297 Q318 297 291.5 296.5 Q265 296 241.5 296 Q218 296 201 296 L201 287 Q202 264 201.5 242 Q201 220 201 197 L201 137 L382 137 Q387 136 391.5 135.5 Q396 135 401 135 L410 135 Q427 133 443.5 136 Q460 139 473 133 Q482 128 484 120 L486 110 Z " />
<glyph glyph-name="f" unicode="f" horiz-adv-x="536" d="M201 286 Q201 276 200.5 266.5 Q200 257 199 247 L199 237 Q199 229 199.5 220.5 Q200 212 201 204 L201 193 Q202 176 201.5 159 Q201 142 199 125 Q199 122 198.5 119.5 Q198 117 198 115 Q198 91 201.5 67 Q205 43 198 20 Q197 16 194 13 Q181 -6 154 -1 L148 -1 L121 -3 L111 -3 Q99 -4 88 -3 Q77 -2 66 4 Q63 7 62 10 Q59 19 61 33 Q63 47 63 60 L63 67 Q63 99 63 136 Q63 173 62.5 207.5 Q62 242 62 269 Q62 296 62 307 L62 353 Q61 367 61.5 380 Q62 393 63 407 L63 418 Q64 445 64 472 Q64 499 66 526 L66 533 Q65 547 65.5 562.5 Q66 578 66 594 L66 615 Q67 617 67 625 Q67 633 66 636 Q66 644 65.5 653.5 Q65 663 66 672 Q67 681 70.5 688.5 Q74 696 83 700 L91 702 Q93 702 95.5 702.5 Q98 703 100 703 Q121 704 141.5 704.5 Q162 705 183 702 L382 702 Q387 701 391.5 700.5 Q396 700 401 700 L410 700 Q427 698 443.5 701 Q460 704 473 698 Q482 693 484 684.5 Q486 676 485 665 Q485 663 484.5 660 Q484 657 484 654 Q481 640 482.5 626.5 Q484 613 483 599 L483 593 Q482 587 481 582.5 Q480 578 479 574 L474 567 Q467 559 450 561.5 Q433 564 418 564 L411 564 Q385 564 356.5 564 Q328 564 300.5 563.5 Q273 563 248 563 Q223 563 204 563 Q204 553 204.5 546 Q205 539 205 537 L205 449 Q204 445 204 441.5 Q204 438 204 435 L382 435 Q387 434 391.5 433.5 Q396 433 401 433 L422 433 Q435 431 447.5 433.5 Q460 436 471 429 Q482 421 480 407 L480 400 L477 367 L477 356 Q476 351 476 346 Q476 341 476 336 L476 326 Q478 311 471.5 305 Q465 299 454.5 297.5 Q444 296 432 297 Q420 298 411 297 L399 297 Q362 297 321.5 296.5 Q281 296 247 296 L201 296 L201 286 Z " />
<glyph glyph-name="g" unicode="g" horiz-adv-x="593" d="M540 307 Q540 305 539.5 302 Q539 299 539 297 Q536 283 538 270 Q540 257 539 243 Q538 242 538 235 Q538 233 538.5 231 Q539 229 539 227 L539 217 Q539 212 538.5 207.5 Q538 203 537 198 L537 192 L532 161 Q532 159 531.5 156 Q531 153 531 151 Q528 134 520.5 119.5 Q513 105 505 91 L500 82 Q496 76 492.5 70 Q489 64 484 59 L477 52 Q460 35 442 23 L434 17 Q413 4 389.5 -1.5 Q366 -7 343 -12 L328 -12 Q294 -10 260 -10.5 Q226 -11 194 1 L181 6 Q164 14 148.5 23 Q133 32 121 46 L113 55 Q108 62 103 69 Q98 76 94 84 Q89 94 84 105 Q79 116 75 129 Q68 148 64.5 168 Q61 188 59 208 Q57 220 56 232 Q55 244 54 256 L54 265 Q53 285 53 304.5 Q53 324 51 344 L51 353 Q50 372 50.5 390 Q51 408 53 427 Q53 429 53.5 431.5 Q54 434 54 436 L56 463 Q56 465 56.5 467.5 Q57 470 57 472 L59 491 Q61 511 64.5 531 Q68 551 75 570 Q79 583 84 594 Q89 605 94 615 Q98 623 103 630 Q108 637 113 644 L121 653 Q133 667 148.5 676 Q164 685 181 693 L194 698 Q226 710 260 709.5 Q294 709 328 711 L343 711 Q366 706 389.5 700.5 Q413 695 434 682 L442 676 Q460 664 477 647 L484 640 Q500 621 507 604 Q509 600 512 595 Q515 590 517 585 Q523 575 526 565 Q529 555 531 544 L533 536 Q538 520 539 503 L539 496 Q538 480 529 473.5 Q520 467 507 466 Q494 465 480.5 466 Q467 467 456 466 L447 466 Q445 466 442 465.5 Q439 465 437 465 L423 465 Q422 464 415 464 Q411 465 407.5 465.5 Q404 466 401 469 Q396 474 395 480 Q391 492 389 506 L387 515 Q382 529 373 541 Q371 545 368.5 547.5 Q366 550 364 553 L358 558 L352 562 Q332 572 309 574 Q286 576 264 574 L254 571 Q238 567 226 553 L219 546 Q217 543 216 541 Q215 539 214 537 Q212 533 210 530 Q208 527 206 523 Q204 515 202 507 Q200 499 199 490 Q199 488 198.5 485.5 Q198 483 198 481 Q195 465 195 449 Q194 438 193.5 428.5 Q193 419 193 409 Q193 406 192.5 403.5 Q192 401 192 399 Q194 377 192.5 355 Q191 333 191 311 Q191 308 191.5 305.5 Q192 303 192 300 Q192 298 192.5 295.5 Q193 293 193 290 Q193 280 193.5 270.5 Q194 261 195 250 Q195 235 198 218 Q198 216 198.5 213.5 Q199 211 199 209 Q200 200 202 192 Q204 184 206 176 Q208 172 210 169 Q212 166 214 162 Q215 160 216 158 Q217 156 219 153 L226 146 Q238 132 254 128 L264 125 Q286 123 309 125 Q332 127 352 137 L358 141 L364 146 L368 152 L373 158 Q389 176 392 200 Q395 224 398 247 L329 247 Q322 247 320 248 Q318 248 316 248.5 Q314 249 312 249 L304 252 Q299 254 294.5 257 Q290 260 290 265 Q289 279 290 293.5 Q291 308 290 322 Q290 329 289 331 L289 341 Q284 364 302 375.5 Q320 387 340 383 Q348 383 351 382 Q366 382 381.5 382 Q397 382 412 381 Q415 380 422 380 Q434 379 446.5 378.5 Q459 378 471 380 L488 380 Q495 380 497 379 L517 379 Q518 379 524 377 Q527 375 530 372.5 Q533 370 535 365 Q538 357 540 346 Q541 344 541 337 Q543 322 540 307 Z " />
<glyph glyph-name="h" unicode="h" horiz-adv-x="597" d="M537 637 Q537 632 537 627 Q537 622 536 617 L536 609 Q536 583 536.5 562 Q537 541 537 537 L537 449 Q536 438 535.5 428.5 Q535 419 535 409 Q535 406 534.5 403.5 Q534 401 534 399 Q536 377 534.5 355 Q533 333 533 311 L533 96 Q532 91 531.5 86.5 Q531 82 531 77 L531 68 Q529 51 532 34.5 Q535 18 529 5 Q524 -4 515.5 -6 Q507 -8 496.5 -7 Q486 -6 475 -4.5 Q464 -3 453 -5 L443 -5 Q420 -7 405 -1 L398 4 Q390 11 392.5 28 Q395 45 395 60 L395 67 Q395 91 395 119 Q395 147 394.5 174.5 Q394 202 394 227 Q394 252 394 271 Q346 272 301 272.5 Q256 273 208 273 Q202 273 201 274 L201 96 Q200 91 199.5 86.5 Q199 82 199 77 L199 68 Q197 51 200 34.5 Q203 18 197 5 Q192 -4 183.5 -6 Q175 -8 164.5 -7 Q154 -6 143 -4.5 Q132 -3 121 -5 L111 -5 Q88 -7 73 -1 L66 4 Q58 11 60.5 28 Q63 45 63 60 L63 67 Q63 99 63 136 Q63 173 62.5 207.5 Q62 242 62 269 Q62 296 62 307 L62 353 Q61 375 62 396.5 Q63 418 64 440 Q64 442 64.5 444.5 Q65 447 65 449 L65 459 Q65 462 66 463 L66 651 Q63 664 64 672 Q64 675 64.5 677.5 Q65 680 65 682 Q69 692 76 696 Q83 700 91 702 Q93 702 95.5 702.5 Q98 703 100 703 Q123 704 144.5 704.5 Q166 705 189 701 Q192 700 195 697 Q198 696 200 691 Q209 675 204 656 Q205 655 205 648 L205 637 Q205 632 205 627 Q205 622 204 617 L204 609 Q204 583 204.5 562 Q205 541 205 537 L205 449 Q204 439 203.5 430.5 Q203 422 203 413 L208 413 Q256 413 301.5 412.5 Q347 412 395 411 Q395 419 395.5 425.5 Q396 432 396 440 Q396 442 396.5 444.5 Q397 447 397 449 L397 459 Q397 462 398 463 L398 651 Q395 664 396 672 Q396 675 396.5 677.5 Q397 680 397 682 Q401 692 408 696 Q415 700 423 702 Q425 702 427.5 702.5 Q430 703 432 703 Q455 704 476.5 704.5 Q498 705 521 701 Q524 700 527 697 Q530 696 532 691 Q541 675 536 656 Q537 655 537 648 L537 637 Z " />
<glyph glyph-name="i" unicode="i" horiz-adv-x="265" d="M201 96 Q200 91 199.5 86.5 Q199 82 199 77 L199 68 Q197 51 200 34.5 Q203 18 197 5 Q192 -4 183.5 -6 Q175 -8 164.5 -7 Q154 -6 143 -4.5 Q132 -3 121 -5 L111 -5 Q88 -7 73 -1 Q71 1 69.5 1.5 Q68 2 66 4 Q58 11 60.5 28 Q63 45 63 60 L63 67 Q63 99 63 136 Q63 173 62.5 207.5 Q62 242 62 269 Q62 296 62 307 L62 353 Q61 375 62 396.5 Q63 418 64 440 Q64 442 64.5 444.5 Q65 447 65 449 L65 459 Q65 462 66 463 L66 651 Q63 664 64 672 Q64 675 64.5 677.5 Q65 680 65 682 Q69 692 76 696 Q83 700 91 702 Q93 702 95.5 702.5 Q98 703 100 703 Q123 704 144.5 704.5 Q166 705 189 701 Q192 700 195 697 Q198 696 200 691 Q209 675 204 656 Q205 655 205 648 L205 637 Q205 632 205 627 Q205 622 204 617 L204 609 Q204 583 204.5 562 Q205 541 205 537 L205 449 Q204 438 203.5 428.5 Q203 419 203 409 Q203 406 202.5 403.5 Q202 401 202 399 Q204 377 202.5 355 Q201 333 201 311 L201 96 Z " />
<glyph glyph-name="j" unicode="j" horiz-adv-x="410" d="M350 637 Q350 632 350 627 Q350 622 349 617 L349 609 Q349 583 349.5 562 Q350 541 350 537 L350 449 Q349 438 348.5 428.5 Q348 419 348 409 Q348 406 347.5 403.5 Q347 401 347 399 Q349 377 347.5 355 Q346 333 346 311 L346 173 Q347 156 344.5 139.5 Q342 123 338 107 L335 97 Q330 83 323 72 Q322 68 318 64 L306 49 L299 41 Q279 24 254.5 11 Q230 -2 203 -4 L193 -4 Q185 -5 177.5 -5.5 Q170 -6 162 -6 Q160 -7 155.5 -7 Q151 -7 149 -7 Q135 -6 113 -4 Q91 -2 77 -4 Q74 -4 70.5 -3 Q67 -2 64 -2 L55 2 L47 7 L41 14 Q37 18 35 22 Q31 30 32 37 Q33 44 32 52 Q31 56 31 60 Q31 64 31 68 Q31 78 30.5 88 Q30 98 33 107 Q34 109 35 111 Q36 113 38 116 L44 122 Q47 124 51.5 126 Q56 128 62 130 Q83 135 112.5 132 Q142 129 162 133 Q168 133 174 136 L185 141 L192 147 L197 153 Q207 172 206 192.5 Q205 213 207 233 L207 353 Q206 375 207 396.5 Q208 418 209 440 Q209 442 209.5 444.5 Q210 447 210 449 L210 459 Q210 462 211 463 L211 607 Q212 626 209.5 644.5 Q207 663 210 682 Q212 687 215 690 Q219 695 224.5 697.5 Q230 700 236 702 Q238 702 240.5 702.5 Q243 703 245 703 Q268 704 289.5 704.5 Q311 705 334 701 Q337 700 340 697 Q343 696 345 691 Q354 675 349 656 Q350 655 350 648 L350 637 Z " />
<glyph glyph-name="k" unicode="k" horiz-adv-x="612" d="M353 361 Q350 358 350 356 Q347 349 350 341 Q351 338 354 335 L385 292 Q386 289 389 286 Q389 285 390 284 L393 280 Q398 271 404 262 Q410 253 417 243 L422 236 L466 177 L471 170 Q483 154 494.5 138.5 Q506 123 517 106 L524 98 Q529 90 535.5 82.5 Q542 75 548 67 Q548 66 549 65 L552 61 L561 48 Q573 39 578 23 Q581 15 575 7.5 Q569 0 561 -2 Q550 -4 540.5 -3.5 Q531 -3 520 -2 L479 -2 Q477 -2 474.5 -1.5 Q472 -1 470 -1 Q452 -3 434 2.5 Q416 8 405 23 Q403 25 402.5 26 Q402 27 400 28 L376 63 L371 71 L355 94 L350 101 L347 104 Q336 119 325.5 135 Q315 151 304 166 L299 173 L265 220 L260 227 Q241 251 231 272 L225 279 Q219 287 212.5 295.5 Q206 304 201 313 L201 96 Q200 91 199.5 86.5 Q199 82 199 77 L199 68 Q197 51 200 34.5 Q203 18 197 5 Q192 -4 183.5 -6 Q175 -8 164.5 -7 Q154 -6 143 -4.5 Q132 -3 121 -5 L111 -5 Q88 -7 73 -1 L66 4 Q58 11 60.5 28 Q63 45 63 60 L63 67 Q63 99 63 136 Q63 173 62.5 207.5 Q62 242 62 269 Q62 296 62 307 L62 353 Q61 375 62 396.5 Q63 418 64 440 Q64 442 64.5 444.5 Q65 447 65 449 L65 459 Q65 462 66 463 L66 651 Q63 664 64 672 Q64 675 64.5 677.5 Q65 680 65 682 Q69 692 76 696 Q83 700 91 702 Q93 702 95.5 702.5 Q98 703 100 703 Q123 704 144.5 704.5 Q166 705 189 701 Q192 700 195 697 Q198 696 200 691 Q209 675 204 656 Q205 655 205 648 L205 637 Q205 632 205 627 Q205 622 204 617 L204 609 Q204 583 204.5 562 Q205 541 205 537 L205 449 Q204 438 203.5 428.5 Q203 419 203 409 Q203 406 202.5 403.5 Q202 401 202 399 L202 385 Q204 387 205.5 389.5 Q207 392 209 395 L213 401 L350 598 L355 605 L371 628 L376 636 L396 665 L400 670 Q408 682 418.5 691.5 Q429 701 443 705 L548 705 Q556 706 563 706.5 Q570 707 576 702 Q585 694 580 680 Q580 678 579 676.5 Q578 675 577 673 L573 668 L567 659 L554 640 Q549 635 548 632 Q542 624 535.5 616.5 Q529 609 524 601 L517 593 L512 586 L508 578 L492 555 L486 548 L469 528 L464 522 Q456 512 449 502 Q442 492 434 481 L429 473 L404 435 Q403 431 399 427 Q388 410 374.5 395 Q361 380 353 361 Z " />
<glyph glyph-name="l" unicode="l" horiz-adv-x="424" d="M393 73 Q394 64 394 54.5 Q394 45 392 36 L392 30 Q392 16 384.5 6 Q377 -4 362 -2 L354 -2 Q349 -2 345.5 -1.5 Q342 -1 338 -1 Q329 -1 326 -2 L214 -2 Q191 -3 168 -2 Q145 -1 122 -3 L112 -3 Q100 -4 89 -3 Q78 -2 67 4 Q64 7 63 10 Q62 11 62 17 Q60 42 61.5 67 Q63 92 64 116 L64 123 Q64 151 64 180 Q64 209 63.5 234.5 Q63 260 63 279 Q63 298 63 307 L63 353 Q62 367 62.5 380 Q63 393 64 407 L64 418 Q65 445 65 472 Q65 499 67 526 L67 533 Q66 552 66.5 573 Q67 594 67 615 L67 651 Q64 664 65 672 Q65 675 65.5 677.5 Q66 680 66 682 Q70 692 77 696 Q84 700 92 702 Q94 702 96.5 702.5 Q99 703 101 703 Q110 703 118.5 703.5 Q127 704 136 704 L144 704 Q147 705 155 705 Q159 705 163 705 Q167 705 171 704 Q178 704 180 703 L187 703 L193 701 Q201 696 204 688 Q207 680 207.5 670.5 Q208 661 207 651 Q206 641 206 632 L206 623 Q208 600 208 577 Q208 554 208 531 L208 522 Q208 514 208.5 505 Q209 496 209 488 L209 478 Q207 458 206 439.5 Q205 421 203 401 L203 362 Q204 359 204 352 Q203 329 204.5 306 Q206 283 204 260 Q204 258 203.5 255.5 Q203 253 203 251 Q203 244 202.5 237.5 Q202 231 202 224 L202 137 L371 137 Q386 139 390 129 Q394 119 392 108 L392 99 Q392 87 393 82 L393 73 Z " />
<glyph glyph-name="m" unicode="m" horiz-adv-x="734" d="M671 60 Q671 45 673.5 28 Q676 11 668 4 L661 -1 Q657 -2 652.5 -3 Q648 -4 642 -5 L636 -5 L559 -8 L551 -6 Q542 -4 537 5 Q535 11 535 12 Q533 20 533.5 30 Q534 40 535 51 L535 60 Q535 69 535 78 Q535 87 533 96 L533 311 Q533 320 533 329 Q533 338 532 347 L532 354 Q531 368 532 381.5 Q533 395 534 409 Q523 391 515 373 Q507 355 494 338 Q491 335 490 332 Q488 330 486 325 L483 318 Q482 316 481.5 314.5 Q481 313 479 311 L473 297 L470 291 Q460 280 452.5 268.5 Q445 257 440 243 L437 236 Q432 224 425.5 213.5 Q419 203 413 192 Q411 190 409 185 Q405 175 397 169 L389 165 Q387 163 385 163 Q383 163 381 162 Q369 159 356 161 Q343 163 336 174 Q331 182 326 191.5 Q321 201 316 209 Q311 214 310 216 Q308 217 306 223 Q301 237 293 249 Q285 261 277 273 L272 280 Q264 297 255 313.5 Q246 330 235 345 L231 351 Q222 365 215 380 Q208 395 200 409 Q201 395 202 381.5 Q203 368 202 354 L202 341 Q201 340 201 335 Q203 301 201 266 L201 96 Q200 90 199.5 84 Q199 78 199 72 L199 66 Q196 57 196.5 46 Q197 35 197 24.5 Q197 14 194 5.5 Q191 -3 180 -7 Q178 -7 176.5 -7.5 Q175 -8 173 -8 Q160 -8 146.5 -5 Q133 -2 121 -5 L111 -5 Q88 -7 73 -1 L66 4 Q58 11 60.5 28 Q63 45 63 60 L63 67 Q63 99 63 136 Q63 173 62.5 207.5 Q62 242 62 269 Q62 296 62 307 L62 362 L65 449 L65 459 Q65 460 65.5 460.5 Q66 461 66 462 L66 642 Q66 655 64.5 668.5 Q63 682 72 692 Q73 694 80 699 L91 702 Q93 702 95.5 702.5 Q98 703 100 703 Q107 703 113.5 703.5 Q120 704 126 704 L135 704 Q148 705 160.5 704.5 Q173 704 184 699 Q187 698 190 695 L194 690 L197 685 L201 677 L206 669 Q214 653 224 638.5 Q234 624 243 609 L247 601 L253 590 L256 585 L265 571 Q266 569 266.5 567.5 Q267 566 269 564 L292 515 L295 507 Q298 499 301 492.5 Q304 486 309 479 Q312 475 314.5 471 Q317 467 319 463 L323 455 Q331 438 339 420 Q347 402 359 387 Q359 386 361 380 Q361 378 361.5 375.5 Q362 373 362 371 L365 380 L369 388 Q380 407 389 426 Q398 445 409 464 L411 467 Q412 469 413 470.5 Q414 472 415 474 Q417 479 420.5 483.5 Q424 488 426 493 L432 504 Q434 506 434.5 508 Q435 510 437 512 Q442 526 449 538.5 Q456 551 464 563 Q468 567 469 571 Q477 580 483 590.5 Q489 601 495 612 Q499 616 500 620 Q509 638 519.5 655 Q530 672 540 690 L544 695 Q547 698 550 699 Q561 704 573.5 704.5 Q586 705 599 704 L608 704 Q614 704 620.5 703.5 Q627 703 634 703 Q636 703 638.5 702.5 Q641 702 643 702 Q651 700 658 696 Q665 692 669 682 Q669 680 669.5 677.5 Q670 675 670 672 Q671 664 668 651 L668 462 Q668 460 669 459 L669 449 L672 362 L672 307 Q672 296 672 269 Q672 242 671.5 207.5 Q671 173 671 136 Q671 99 671 67 L671 60 Z " />
<glyph glyph-name="n" unicode="n" horiz-adv-x="633" d="M573 637 Q573 632 573 627 Q573 622 572 617 L572 609 Q572 583 572.5 562 Q573 541 573 537 L573 449 Q572 438 571.5 428.5 Q571 419 571 409 Q571 406 570.5 403.5 Q570 401 570 399 Q572 377 570.5 355 Q569 333 569 311 L569 96 Q568 91 567.5 86.5 Q567 82 567 77 L567 63 Q566 47 568 32 Q570 17 565 5 Q560 -4 551.5 -6 Q543 -8 532.5 -7 Q522 -6 511 -4.5 Q500 -3 489 -5 L467 -5 Q457 -7 450 -2.5 Q443 2 438 9.5 Q433 17 428.5 25.5 Q424 34 419 40 Q418 42 417 44 Q416 46 414 48 Q404 65 394.5 81.5 Q385 98 374 115 L369 123 L362 135 L358 141 Q358 146 353 154 Q339 168 330.5 185.5 Q322 203 310 219 L305 226 L301 233 Q290 253 279.5 272.5 Q269 292 255 311 Q254 316 251 318 L248 325 Q247 330 244 332 Q243 335 240 338 Q227 355 219 373 Q211 391 200 409 Q201 395 202 381.5 Q203 368 202 354 L202 347 Q201 338 201 329 Q201 320 201 311 L201 96 Q199 87 199 78 Q199 69 199 60 L199 51 Q200 38 201 26.5 Q202 15 197 5 Q192 -4 183.5 -6 Q175 -8 164.5 -7 Q154 -6 143 -4.5 Q132 -3 121 -5 L111 -5 Q88 -7 73 -1 L66 4 Q58 11 60.5 28 Q63 45 63 60 L63 67 Q63 99 63 136 Q63 173 62.5 207.5 Q62 242 62 269 Q62 296 62 307 L62 362 L65 449 L65 459 Q65 460 65.5 460.5 Q66 461 66 462 L66 651 Q63 664 64 672 Q64 675 64.5 677.5 Q65 680 65 682 Q69 692 76 696 Q83 700 91 702 Q93 702 95.5 702.5 Q98 703 100 703 Q107 703 113.5 703.5 Q120 704 126 704 L135 704 Q148 705 160.5 704.5 Q173 704 184 699 Q187 698 190 695 L194 690 L197 685 Q202 668 213 653.5 Q224 639 234 623 Q235 621 235.5 619.5 Q236 618 238 616 L243 609 L247 601 L266 570 L271 563 Q275 559 277 555 Q278 553 279 551 Q280 549 281 546 Q286 535 292.5 524.5 Q299 514 305 503 Q307 501 308 499 Q309 497 310 495 L325 464 L330 456 Q338 439 349 425 L355 417 Q367 403 375.5 387 Q384 371 392 354 L397 346 L401 339 L406 332 Q420 313 430 290 L430 363 Q430 380 430 397 Q430 414 432 431 L432 440 Q432 442 432.5 444.5 Q433 447 433 449 Q430 475 430 501 Q430 508 431 510 Q431 549 434 588 L434 651 Q431 664 432 672 Q432 675 432.5 677.5 Q433 680 433 682 Q437 692 444 696 Q451 700 459 702 Q461 702 463.5 702.5 Q466 703 468 703 Q491 704 512.5 704.5 Q534 705 557 701 Q560 700 563 697 Q566 696 568 691 Q577 675 572 656 Q573 655 573 648 L573 637 Z " />
<glyph glyph-name="o" unicode="o" horiz-adv-x="594" d="M542 344 Q543 320 543.5 295.5 Q544 271 542 246 Q541 236 540.5 226 Q540 216 538 205 Q537 202 537 198.5 Q537 195 537 192 L532 161 Q532 159 531.5 156 Q531 153 531 151 Q531 149 530.5 146.5 Q530 144 530 142 Q520 120 509.5 99 Q499 78 484 59 L477 52 Q460 35 442 23 L434 17 Q413 4 389.5 -1.5 Q366 -7 343 -12 L328 -12 Q294 -10 260 -10.5 Q226 -11 194 1 L181 6 Q164 14 148.5 23 Q133 32 121 46 L113 55 Q108 62 103 69 Q98 76 94 84 Q89 94 84 105 Q79 116 75 129 Q68 148 64.5 168 Q61 188 59 208 Q57 220 56 232 Q55 244 54 256 L54 265 Q53 285 53 304.5 Q53 324 51 344 L51 353 Q50 372 50.5 390 Q51 408 53 427 Q53 429 53.5 431.5 Q54 434 54 436 L56 463 Q56 465 56.5 467.5 Q57 470 57 472 L59 491 Q61 511 64.5 531 Q68 551 75 570 Q79 583 84 594 Q89 605 94 615 Q98 623 103 630 Q108 637 113 644 L121 653 Q133 667 148.5 676 Q164 685 181 693 L194 698 Q226 710 260 709.5 Q294 709 328 711 L343 711 Q366 706 389.5 700.5 Q413 695 434 682 L442 676 Q460 664 477 647 L484 640 Q500 621 507 604 Q509 600 512 595 Q515 590 517 585 Q529 565 531.5 543 Q534 521 538 499 L540 480 L540 473 L542 453 Q544 428 543.5 403.5 Q543 379 542 355 L542 344 Z M398 286 Q398 288 397.5 289.5 Q397 291 397 293 Q396 306 398 318.5 Q400 331 400 344 L400 353 Q400 361 399.5 367.5 Q399 374 398 381 L398 421 Q398 428 398 434.5 Q398 441 399 447 L397 458 Q397 464 396 472 Q395 480 392 486 Q390 501 386.5 515 Q383 529 373 541 Q371 545 368.5 547.5 Q366 550 364 553 L358 558 L352 562 Q332 572 309 574 Q286 576 264 574 L254 571 Q238 567 226 553 L219 546 Q217 543 216 541 Q215 539 214 537 Q212 533 210 530 Q208 527 206 523 Q204 515 202 507 Q200 499 199 490 Q199 488 198.5 485.5 Q198 483 198 481 Q195 465 195 449 Q194 438 193.5 428.5 Q193 419 193 409 Q193 406 192.5 403.5 Q192 401 192 399 Q194 377 192.5 355 Q191 333 191 311 Q191 308 191.5 305.5 Q192 303 192 300 Q192 298 192.5 295.5 Q193 293 193 290 Q193 280 193.5 270.5 Q194 261 195 250 Q195 235 198 218 Q198 216 198.5 213.5 Q199 211 199 209 Q200 200 202 192 Q204 184 206 176 Q208 172 210 169 Q212 166 214 162 Q215 160 216 158 Q217 156 219 153 L226 146 Q238 132 254 128 L264 125 Q286 123 309 125 Q332 127 352 137 L358 141 L364 146 Q366 149 368.5 151.5 Q371 154 373 158 Q383 170 386.5 184 Q390 198 392 213 Q395 219 396 227 Q397 235 397 241 L399 252 Q398 255 398 265 L398 286 Z " />
<glyph glyph-name="p" unicode="p" horiz-adv-x="585" d="M533 528 Q535 511 534 495.5 Q533 480 532 463 L530 454 Q526 422 511 392 L506 383 Q494 361 476 346 L468 339 Q463 334 456.5 330 Q450 326 444 322 Q441 320 439 319 Q437 318 435 317 L417 305 Q413 304 410 301 L403 297 Q383 288 360.5 287 Q338 286 316 281 L306 281 Q287 280 268.5 280 Q250 280 230 282 L223 282 Q217 282 211.5 282 Q206 282 200 283 Q202 271 200 259 L200 251 Q201 237 201.5 223 Q202 209 202 195 Q202 187 201 185 Q200 179 200.5 173 Q201 167 200 161 Q200 154 199 153 L199 143 Q199 129 198.5 115 Q198 101 198 87 L198 79 Q198 65 200 51 Q202 37 199 23 L197 15 Q193 2 178 -1 Q176 -1 174 -1.5 Q172 -2 170 -2 Q157 -1 142 -2 Q135 -2 133 -3 Q125 -3 115.5 -4 Q106 -5 96.5 -5 Q87 -5 79 -2 Q71 1 65 9 L62 17 Q60 26 61.5 36 Q63 46 62 54 L62 64 Q62 82 63 100 Q64 118 63 136 L63 145 Q63 156 63.5 167.5 Q64 179 63 190 L63 200 Q65 223 63 247 Q63 249 63.5 251.5 Q64 254 64 256 L64 308 Q63 310 63 318 Q65 370 60 420 Q61 422 61 427 Q61 429 61.5 430.5 Q62 432 62 434 L62 442 Q62 444 62.5 447 Q63 450 63 452 Q63 460 64 463 Q62 470 62 477 Q62 484 61 491 L61 501 Q60 518 61.5 534 Q63 550 61 567 L61 577 Q60 590 61 602.5 Q62 615 63 628 L63 649 Q62 669 69 685 L73 693 L80 699 Q100 706 120 704.5 Q140 703 160 703 L170 703 Q182 703 194 702.5 Q206 702 218 703 L228 703 Q265 708 301 703 Q303 703 305 702.5 Q307 702 309 702 Q323 703 335.5 700.5 Q348 698 361 696 Q363 696 366 695.5 Q369 695 371 695 Q394 694 415 684 Q436 674 456 663 L466 658 L475 651 L483 644 L498 626 L504 618 Q515 600 519.5 579.5 Q524 559 531 539 Q531 536 531.5 533.5 Q532 531 533 528 Z M390 472 Q392 485 389 494 Q389 496 388.5 497.5 Q388 499 388 501 L388 504 L386 513 Q384 518 381 523 Q378 528 376 532 Q373 538 370 541 Q361 558 341 564 Q321 570 302 572 Q300 571 293 571 Q273 571 254.5 572 Q236 573 217 571 L210 571 Q205 570 202 567 Q199 561 200 552 Q201 543 201 535 L201 525 Q201 513 202 501.5 Q203 490 202 478 L201 478 Q202 476 202 469 Q202 467 201.5 465 Q201 463 201 461 L201 460 L200 460 L200 452 Q199 450 199 443 Q199 435 200 433 L200 415 L223 415 Q231 415 238.5 414.5 Q246 414 254 414 L265 414 Q287 413 309 413 Q331 413 352 419 L361 423 Q377 431 381 444 Q383 446 383.5 448.5 Q384 451 385 453 L388 464 L390 472 Z " />
<glyph glyph-name="q" unicode="q" horiz-adv-x="594" d="M400 353 Q400 361 399.5 367.5 Q399 374 398 381 L398 421 Q398 428 398 434.5 Q398 441 399 447 L397 458 Q397 464 396 472 Q395 480 392 486 Q390 501 386.5 515 Q383 529 373 541 Q371 545 368.5 547.5 Q366 550 364 553 L358 558 L352 562 Q332 572 309 574 Q286 576 264 574 L254 571 Q238 567 226 553 L219 546 Q217 543 216 541 Q215 539 214 537 Q212 533 210 530 Q208 527 206 523 Q204 515 202 507 Q200 499 199 490 Q199 488 198.5 485.5 Q198 483 198 481 Q195 465 195 449 Q194 438 193.5 428.5 Q193 419 193 409 Q193 406 192.5 403.5 Q192 401 192 399 Q194 377 192.5 355 Q191 333 191 311 Q191 308 191.5 305.5 Q192 303 192 300 Q192 298 192.5 295.5 Q193 293 193 290 Q193 280 193.5 270.5 Q194 261 195 250 Q195 235 198 218 Q198 216 198.5 213.5 Q199 211 199 209 Q200 200 202 192 Q204 184 206 176 Q208 172 210 169 Q212 166 214 162 Q215 160 216 158 Q217 156 219 153 L226 146 Q238 132 254 128 L264 125 Q286 123 309 125 Q332 127 352 137 L358 141 L364 146 Q366 149 368.5 151.5 Q371 154 373 158 Q383 170 386.5 184 Q390 198 392 213 Q395 219 396 227 Q397 235 397 241 L399 252 Q398 255 398 265 L398 286 Q398 288 397.5 289.5 Q397 291 397 293 Q396 306 398 318.5 Q400 331 400 344 L400 353 Z M542 344 Q543 320 543.5 295.5 Q544 271 542 246 Q541 236 540.5 226 Q540 216 538 205 Q537 202 537 198.5 Q537 195 537 192 L532 161 Q532 159 531.5 156 Q531 153 531 151 Q531 149 530.5 146.5 Q530 144 530 142 Q520 120 509.5 99 Q499 78 484 59 L477 52 Q460 35 442 23 L434 17 Q415 6 394.5 0.5 Q374 -5 353 -10 Q354 -24 359 -38 Q360 -44 363 -47 Q369 -61 384 -68 Q392 -70 395 -70 L403 -70 Q405 -71 411 -71 Q413 -71 414 -71.5 Q415 -72 417 -72 L426 -72 Q432 -71 437.5 -74 Q443 -77 449 -78 L454 -81 L459 -88 L462 -96 Q465 -115 462 -139 Q459 -163 439 -174 Q433 -176 431 -176 Q411 -178 390 -178.5 Q369 -179 348 -176 Q340 -175 331 -171 L320 -166 L313 -162 Q297 -153 284.5 -140.5 Q272 -128 265 -111 L262 -102 L257 -81 Q254 -60 254 -39 Q254 -32 253 -30 L251 -10 Q237 -9 222.5 -6.5 Q208 -4 194 1 L181 6 Q164 14 148.5 23 Q133 32 121 46 L113 55 Q108 62 103 69 Q98 76 94 84 Q89 94 84 105 Q79 116 75 129 Q68 148 64.5 168 Q61 188 59 208 Q57 220 56 232 Q55 244 54 256 L54 265 Q53 285 53 304.5 Q53 324 51 344 L51 353 Q50 372 50.5 390 Q51 408 53 427 Q53 429 53.5 431.5 Q54 434 54 436 L56 463 Q56 465 56.5 467.5 Q57 470 57 472 L59 491 Q61 511 64.5 531 Q68 551 75 570 Q79 583 84 594 Q89 605 94 615 Q98 623 103 630 Q108 637 113 644 L121 653 Q133 667 148.5 676 Q164 685 181 693 L194 698 Q226 710 260 709.5 Q294 709 328 711 L343 711 Q366 706 389.5 700.5 Q413 695 434 682 L442 676 Q460 664 477 647 L484 640 Q500 621 507 604 Q509 600 512 595 Q515 590 517 585 Q529 565 531.5 543 Q534 521 538 499 L540 480 L540 473 L542 453 Q544 428 543.5 403.5 Q543 379 542 355 L542 344 Z " />
<glyph glyph-name="r" unicode="r" horiz-adv-x="583" d="M552 69 Q553 67 553 61 Q553 57 553 53 Q553 49 552 45 Q552 45 550 35 Q543 14 527 5 L517 1 Q511 -1 511 -1 L505 -3 Q495 -5 485 -5.5 Q475 -6 465 -7 L455 -7 Q435 -6 416 0 Q397 6 381 19 L374 24 Q368 28 364 34 L359 38 Q332 67 313 104 Q312 106 311 108 Q310 110 309 113 Q308 115 307 117 Q306 119 305 122 L297 138 L294 147 L276 189 Q275 191 274 193.5 Q273 196 272 199 Q271 201 270 203.5 Q269 206 268 209 Q265 212 264 217 Q257 231 250.5 245 Q244 259 236 273 L233 281 Q232 281 231.5 281.5 Q231 282 230 282 L223 282 Q217 282 211.5 282 Q206 282 200 283 Q202 271 200 259 L200 251 Q201 237 201.5 223 Q202 209 202 195 Q202 187 201 185 Q200 179 200.5 173 Q201 167 200 161 Q200 154 199 153 L199 143 Q199 129 198.5 115 Q198 101 198 87 L198 79 Q198 65 200 51 Q202 37 199 23 L197 15 Q193 2 178 -1 Q176 -1 174 -1.5 Q172 -2 170 -2 Q157 -1 142 -2 Q135 -2 133 -3 Q125 -3 115.5 -4 Q106 -5 96.5 -5 Q87 -5 79 -2 Q71 1 65 9 L62 17 Q60 26 61.5 36 Q63 46 62 54 L62 64 Q62 82 63 100 Q64 118 63 136 L63 145 Q63 156 63.5 167.5 Q64 179 63 190 L63 200 Q65 223 63 247 Q63 249 63.5 251.5 Q64 254 64 256 L64 308 Q63 310 63 318 Q65 370 60 420 Q61 422 61 427 Q61 429 61.5 430.5 Q62 432 62 434 L62 442 Q62 444 62.5 447 Q63 450 63 452 Q63 460 64 463 Q62 470 62 477 Q62 484 61 491 L61 501 Q60 518 61.5 534 Q63 550 61 567 L61 577 Q60 590 61 602.5 Q62 615 63 628 L63 649 Q62 669 69 685 L73 693 L80 699 Q100 706 120 704.5 Q140 703 160 703 L170 703 Q182 703 194 702.5 Q206 702 218 703 L228 703 Q265 708 301 703 Q303 703 305 702.5 Q307 702 309 702 Q323 703 335.5 700.5 Q348 698 361 696 Q363 696 366 695.5 Q369 695 371 695 Q394 694 415 684 Q436 674 456 663 L466 658 L475 651 L483 644 L498 626 L504 618 Q515 600 519.5 579.5 Q524 559 531 539 Q531 536 531.5 533.5 Q532 531 533 528 Q535 511 534 495.5 Q533 480 532 463 L530 454 Q526 422 511 392 L506 383 Q494 361 476 346 L468 339 Q463 334 456.5 330 Q450 326 444 322 Q441 320 439 319 Q437 318 435 317 L417 305 Q413 304 410 301 L403 297 Q395 293 387.5 291.5 Q380 290 372 288 Q382 264 392.5 241 Q403 218 416 196 Q417 193 418 191 Q419 189 420 187 Q424 179 427 172.5 Q430 166 435 160 Q437 154 440 152 L446 144 L452 137 L460 131 Q464 128 468 126 Q473 124 480 122 Q487 120 495 119 Q497 119 499 118.5 Q501 118 503 118 Q512 116 521.5 116.5 Q531 117 537 110 L541 106 Q552 89 552 69 Z M265 414 Q287 413 309 413 Q331 413 352 419 L361 423 Q377 431 381 444 Q383 446 383.5 448.5 Q384 451 385 453 L388 464 L390 472 Q392 485 389 494 Q389 496 388.5 497.5 Q388 499 388 501 L388 504 L386 513 Q384 518 381 523 Q378 528 376 532 Q373 538 370 541 Q361 558 341 564 Q321 570 302 572 Q300 571 293 571 Q273 571 254.5 572 Q236 573 217 571 L210 571 Q205 570 202 567 Q199 561 200 552 Q201 543 201 535 L201 525 Q201 513 202 501.5 Q203 490 202 478 L201 478 Q202 476 202 469 Q202 467 201.5 465 Q201 463 201 461 L201 460 L200 460 L200 452 Q199 450 199 443 Q199 435 200 433 L200 415 L223 415 Q231 415 238.5 414.5 Q246 414 254 414 L265 414 Z " />
<glyph glyph-name="s" unicode="s" horiz-adv-x="586" d="M212 537 Q210 535 208 530 Q200 516 200.5 498 Q201 480 212 468 L219 460 Q233 447 250 439 Q267 431 285 425 Q285 425 293 423 Q316 412 341 404.5 Q366 397 390 387 Q393 386 395 385 Q397 384 399 383 Q415 377 430.5 370.5 Q446 364 460 353 L469 345 L485 327 L490 321 Q522 284 525 236 Q526 233 526 226 Q530 213 530 194 Q530 191 529.5 188.5 Q529 186 529 183 Q525 161 519 139.5 Q513 118 503 98 L500 91 L496 84 Q492 76 487 69 Q482 62 477 55 L469 46 Q457 32 441.5 23 Q426 14 409 6 L396 1 Q364 -11 330 -10.5 Q296 -10 262 -12 L247 -12 Q224 -7 200.5 -1.5 Q177 4 156 17 L148 23 Q130 35 113 52 L106 59 Q97 71 85 91 Q83 93 82.5 95 Q82 97 80 99 L76 107 L73 115 Q64 132 60.5 150 Q57 168 54 187 Q53 188 53 191 L53 198 Q50 211 51 225.5 Q52 240 67 245 Q73 248 77 248 Q90 250 103.5 249.5 Q117 249 129 251 Q131 250 138 250 Q159 250 174 246 Q177 245 179.5 244 Q182 243 184 242 L190 236 L194 229 Q198 222 198 210 Q198 208 198.5 206.5 Q199 205 199 203 L201 193 Q203 184 206.5 175 Q210 166 217 158 Q219 154 221.5 151.5 Q224 149 226 146 L232 141 L238 137 Q258 127 281 125 Q304 123 326 125 L336 128 Q340 129 343.5 131 Q347 133 351 135 L358 140 Q372 152 378.5 168 Q385 184 386 202 L386 212 L384 220 L381 229 Q378 232 377 235 Q374 239 371 242.5 Q368 246 364 248 Q361 252 356 253 Q336 265 314 274.5 Q292 284 269 290 L259 293 Q236 303 212 311.5 Q188 320 166 334 L159 337 L153 340 Q124 358 100 385 L93 392 Q85 400 80 409 Q78 412 77 414 Q76 416 75 418 Q64 440 63 463.5 Q62 487 60 510 Q60 513 60.5 515.5 Q61 518 61 520 Q62 534 65 546 Q68 558 73 570 L78 586 Q82 599 92 615 Q96 623 101 630 Q106 637 111 644 L119 653 Q131 667 146.5 676 Q162 685 179 693 L192 698 Q224 710 258 709.5 Q292 709 326 711 L341 711 Q364 706 387.5 700.5 Q411 695 432 682 L440 676 Q458 664 475 647 L482 640 Q498 621 505 604 Q507 600 510 595 Q513 590 515 585 Q521 575 524 565 Q527 555 529 544 L531 536 L535 505 Q536 503 536 495 Q535 479 523.5 470 Q512 461 497 461 Q495 462 488 462 Q467 464 444.5 462.5 Q422 461 402 468 Q395 475 392 485 Q390 490 389 495.5 Q388 501 387 506 L385 515 Q380 529 371 541 Q369 545 366.5 547.5 Q364 550 362 553 L356 558 L350 562 Q330 572 307 574 Q284 576 262 574 L252 571 Q236 567 224 553 L217 546 Q215 543 214 541 Q213 539 212 537 Z " />
<glyph glyph-name="t" unicode="t" horiz-adv-x="508" d="M476 631 Q476 620 477.5 609 Q479 598 477 587 Q477 586 475 580 Q470 566 458.5 563 Q447 560 433 562 L425 562 Q420 563 414.5 563 Q409 563 404 563 L365 563 Q364 562 358 562 Q350 562 343 562 Q336 562 327 563 Q328 559 327 556 Q326 553 326 549 L326 543 Q326 493 326.5 450.5 Q327 408 327 393 L327 347 Q328 333 327.5 320 Q327 307 326 293 L326 282 Q325 255 325 228 Q325 201 323 174 L323 167 Q324 148 323.5 127 Q323 106 323 85 L323 49 Q326 36 325 28 Q325 25 324.5 22.5 Q324 20 324 18 Q320 8 313 4 Q306 0 298 -2 Q296 -2 293.5 -2.5 Q291 -3 289 -3 Q280 -3 271.5 -3.5 Q263 -4 254 -4 L246 -4 Q243 -5 235 -5 Q231 -5 227 -5 Q223 -5 219 -4 Q212 -4 210 -3 L203 -3 L197 -1 Q189 4 186 12 Q183 20 182.5 29.5 Q182 39 183 49 Q184 59 184 68 L184 77 Q182 100 182 123 Q182 146 182 169 L182 186 Q180 199 183 211 Q186 223 187 236 L187 246 Q185 266 186 287 Q187 308 187 328 L187 338 Q186 341 186 348 Q188 360 186 372 L186 449 Q185 465 185.5 481 Q186 497 188 513 L188 524 Q188 534 188 543.5 Q188 553 185 562 L182 562 Q177 562 175 563 L158 563 Q150 563 148 562 Q129 562 115.5 562 Q102 562 83 563 L76 563 Q71 563 65.5 562.5 Q60 562 55 562 L48 562 L40 566 Q38 569 37 571 Q36 573 35 575 L32 584 Q30 606 31 627 Q32 648 31 670 Q29 675 31 678 Q32 696 44 701 Q52 704 62 701 Q80 703 97.5 702.5 Q115 702 132 701 L152 701 Q157 701 161.5 701 Q166 701 171 702 L179 702 Q190 702 199.5 702 Q209 702 220 703 L244 703 Q247 702 256 702 Q271 703 287 702 L298 702 Q313 700 328.5 701 Q344 702 359 702 L398 702 Q415 701 433.5 703.5 Q452 706 467 698 Q474 694 476 687 Q478 680 478 672.5 Q478 665 477 656.5 Q476 648 477 640 Q476 638 476 631 Z " />
<glyph glyph-name="u" unicode="u" horiz-adv-x="600" d="M548 344 Q549 320 549.5 295.5 Q550 271 548 246 Q547 236 546.5 226 Q546 216 544 205 Q543 202 543 198.5 Q543 195 543 192 L538 161 Q538 159 537.5 156 Q537 153 537 151 Q537 149 536.5 146.5 Q536 144 536 142 Q526 120 515.5 99 Q505 78 490 59 L483 52 Q466 35 448 23 L440 17 Q419 4 395.5 -1.5 Q372 -7 349 -12 L334 -12 Q300 -10 266 -10.5 Q232 -11 200 1 L187 6 Q170 14 154.5 23 Q139 32 127 46 L119 55 Q114 62 109 69 Q104 76 100 84 Q95 94 90 105 Q85 116 81 129 Q74 148 70.5 168 Q67 188 65 208 Q61 245 59 282 Q58 307 57 332 Q56 357 56 382 Q56 394 55.5 406.5 Q55 419 55 431 L55 443 Q54 455 54.5 467 Q55 479 55 490 Q56 493 55.5 495.5 Q55 498 55 500 Q55 520 54 540.5 Q53 561 54 581 Q53 584 53 592 L55 600 Q54 603 54 615 Q54 623 53 626 Q54 638 52.5 650.5 Q51 663 53 675 L55 683 Q59 695 68 699 Q77 703 88 703.5 Q99 704 110.5 703 Q122 702 131 705 L179 705 Q184 705 188 701 Q193 696 194 686.5 Q195 677 196 669 L196 657 Q194 648 194 637 Q194 626 194.5 608.5 Q195 591 196 565.5 Q197 540 197 502 Q196 484 195 465.5 Q194 447 196 428 L196 418 Q198 394 195 369.5 Q192 345 196 321 Q196 313 197 311 Q197 308 197.5 305.5 Q198 303 198 300 L198 290 Q198 280 198.5 270.5 Q199 261 200 250 Q200 233 204 218 L204 209 Q205 201 206.5 193 Q208 185 212 176 Q214 172 216 169 Q218 166 220 162 Q221 160 222 158 Q223 156 225 153 L232 146 Q244 132 260 128 L270 125 Q292 123 315 125 Q338 127 358 137 L364 141 L370 146 Q372 149 374.5 151.5 Q377 154 379 158 Q392 173 397 196.5 Q402 220 403 241 L405 252 Q404 258 404.5 264.5 Q405 271 405 278 L405 286 Q404 309 406 330.5 Q408 352 409 374 L409 385 Q408 410 405 434 Q402 458 402 483 L402 488 Q402 499 401.5 508.5 Q401 518 401 529 Q400 532 400 543 Q400 547 400.5 550.5 Q401 554 401 558 L401 574 Q403 600 399 626 Q395 652 399 678 Q402 700 420 704 Q422 706 425 706 Q428 706 432 707 Q441 708 452 708.5 Q463 709 475 709 L486 709 Q494 708 503.5 708 Q513 708 521.5 706.5 Q530 705 536.5 701 Q543 697 545 687 Q550 665 548 643.5 Q546 622 545 600 Q545 594 544 593 L544 558 Q544 551 544 544 Q544 537 545 530 Q546 527 546 515 Q547 495 547 476.5 Q547 458 547 438 Q547 434 547 430.5 Q547 427 546 422 L546 394 Q547 381 547.5 369 Q548 357 548 344 Z " />
<glyph glyph-name="v" unicode="v" horiz-adv-x="633" d="M587 703 Q603 698 602.5 682 Q602 666 597 654 L594 645 Q592 639 592 637 Q590 633 589.5 630 Q589 627 587 623 Q584 612 580.5 602.5 Q577 593 574 584 L571 573 Q562 556 557 532 L555 523 Q549 501 540 478 L537 469 Q529 446 524 426 L522 417 Q520 407 517 397.5 Q514 388 511 378 L508 368 Q503 357 499 345.5 Q495 334 491 322 L485 304 Q484 301 483 298.5 Q482 296 481 294 L475 276 Q473 267 470 258.5 Q467 250 464 241 L461 232 Q459 224 456 217 Q453 210 451 203 Q450 201 449 198.5 Q448 196 447 193 Q438 169 430 145 Q422 121 413 97 L410 88 L395 49 Q393 45 392 41 Q391 37 389 32 Q384 20 379 14 Q373 5 366 -2 Q358 -4 356 -4 Q354 -5 347 -5 L338 -5 Q324 -6 310.5 -5 Q297 -4 283 -3 Q278 -2 273.5 -2 Q269 -2 264 -2 Q251 1 244 11.5 Q237 22 233 35 L230 43 Q228 54 225 62 L222 71 Q216 90 211 109 Q206 128 198 146 Q197 148 196 150 Q195 152 194 155 Q190 167 186.5 179.5 Q183 192 180 204 L177 213 Q173 226 170 238 Q167 250 162 262 L159 272 L147 302 L144 311 Q140 331 132 350 L129 360 Q127 367 124.5 373.5 Q122 380 120 388 Q118 390 117.5 393 Q117 396 116 398 Q111 412 107 424.5 Q103 437 98 451 Q96 459 96 460 Q92 472 89 483.5 Q86 495 81 506 L78 516 L63 567 L60 575 Q57 584 54.5 593 Q52 602 50 611 Q46 619 43.5 627.5 Q41 636 39 646 L33 660 Q33 661 31 669 Q30 675 30 682.5 Q30 690 34 695 Q37 698 41 700 L54 703 Q56 703 57.5 703.5 Q59 704 61 704 Q84 706 106 706 Q128 706 150 702 Q153 701 155 700 Q157 699 159 698 Q168 694 173 684 Q174 682 175 679.5 Q176 677 177 674 L180 664 Q180 663 182 655 Q182 654 184 646 Q192 628 195.5 609 Q199 590 206 572 L209 562 L222 524 L226 513 Q226 512 228 504 L231 495 Q232 494 234 487 Q237 483 237 477 Q239 473 240 469.5 Q241 466 243 461 L245 453 Q245 451 245.5 448 Q246 445 246 443 Q251 422 258 401.5 Q265 381 271 360 Q273 352 273 351 Q276 336 282 326 L285 317 Q288 308 291.5 299 Q295 290 297 280 Q299 274 299 273 Q301 265 301 263 Q303 255 303 255 L311 219 Q312 224 312.5 228 Q313 232 315 236 L318 245 Q326 265 332 285.5 Q338 306 347 326 L349 334 Q357 352 363.5 371 Q370 390 376 411 L379 422 Q381 427 382 432 Q383 437 385 442 L387 449 Q395 472 401 494.5 Q407 517 415 540 L417 549 Q422 568 429 588 Q436 608 444 628 L447 637 Q449 644 450.5 650.5 Q452 657 454 663 L457 672 Q466 691 480 699 Q486 701 488 701 Q495 702 502 702.5 Q509 703 516 703 L525 703 Q539 704 552.5 705.5 Q566 707 579 705 L587 703 Z " />
<glyph glyph-name="w" unicode="w" horiz-adv-x="914" d="M817 702 Q826 701 837 702 Q848 703 858 702.5 Q868 702 875.5 697.5 Q883 693 884 681 L884 672 Q884 671 882 663 Q875 643 869 623 Q863 603 858 583 Q858 583 856 577 L853 564 L850 555 Q846 531 838 507 L835 497 L823 449 L821 439 L819 432 L817 422 Q815 414 815 413 Q814 410 813 408 Q812 406 811 404 Q802 383 799 360 Q796 337 788 315 L786 306 L780 286 Q775 270 770.5 254.5 Q766 239 760 223 L760 218 Q758 212 756.5 205 Q755 198 753 192 L750 183 Q750 182 748 174 L745 165 Q742 150 738 135 Q734 120 730 105 L727 96 Q725 82 721.5 65 Q718 48 712 33 L707 24 Q706 22 705 20 Q704 18 702 15 Q693 6 681.5 2 Q670 -2 658 -2.5 Q646 -3 633.5 -2.5 Q621 -2 609 -3 Q607 -3 604 -2.5 Q601 -2 599 -2 Q586 0 581 3 L573 9 Q560 19 556 37 L553 45 Q551 53 551 55 L530 123 Q530 125 529.5 127.5 Q529 130 529 132 Q524 154 517.5 175.5 Q511 197 506 219 L503 227 L497 252 L494 262 Q494 262 492 270 L490 278 L481 308 L472 344 Q472 345 470 353 Q467 365 463.5 377 Q460 389 456 400 Q448 380 445 358 Q442 336 435 315 L433 306 L427 286 Q422 270 417.5 254.5 Q413 239 407 223 L407 218 Q405 212 403.5 205 Q402 198 400 192 L397 183 Q397 182 395 174 L392 165 Q389 150 385 135 Q381 120 377 105 L374 96 Q372 82 368.5 65 Q365 48 359 33 L354 24 Q353 22 352 20 Q351 18 349 15 Q340 6 328.5 2 Q317 -2 305 -2.5 Q293 -3 280.5 -2.5 Q268 -2 256 -3 Q254 -3 251 -2.5 Q248 -2 246 -2 Q233 0 228 3 L220 9 Q207 19 203 37 L200 45 Q198 53 198 55 L177 123 Q177 125 176.5 127.5 Q176 130 176 132 Q171 154 164.5 175.5 Q158 197 153 219 L150 227 L144 252 L141 262 Q141 262 139 270 L137 278 L128 308 L119 344 Q119 345 117 353 Q112 376 105 396.5 Q98 417 93 439 L91 449 L74 522 L71 533 L63 561 L60 570 Q56 584 53.5 597.5 Q51 611 46 625 L44 631 Q42 639 42 638 L39 647 Q34 658 31 670 Q28 682 34 693 Q39 701 48.5 701.5 Q58 702 66 704 L74 704 Q88 705 101 704 Q114 703 127 702 Q135 702 137 701 Q151 699 162 692 Q173 685 177 668 L180 660 L182 651 L185 640 Q190 623 193.5 607.5 Q197 592 201 575 Q201 575 203 565 Q208 540 215.5 516.5 Q223 493 228 468 L231 458 Q232 449 237 438 L240 429 Q240 427 242 419 L245 409 Q247 401 247 400 Q250 390 252.5 380 Q255 370 257 359 Q259 354 260 349 Q261 344 262 339 L265 330 Q267 322 267 321 Q270 307 272 293 Q274 279 279 265 Q285 286 289 307 Q293 328 299 349 L311 385 Q317 406 320 428 L323 437 L325 444 Q333 471 337 498 Q339 506 339 507 Q343 519 346.5 531 Q350 543 353 556 Q355 564 355 565 Q362 595 373 626 L376 636 L379 645 Q382 662 389.5 680.5 Q397 699 415 703 Q418 704 427 704 Q443 704 458.5 702.5 Q474 701 490 703 L499 701 Q510 698 518.5 690.5 Q527 683 529 669 L532 659 Q534 654 534.5 650 Q535 646 537 641 L540 632 L543 622 L554 575 Q554 575 556 565 Q561 540 568.5 516.5 Q576 493 581 468 L584 458 Q585 449 590 438 L593 429 Q593 427 595 419 L598 409 Q600 401 600 400 Q603 390 605.5 380 Q608 370 610 359 Q612 354 613 349 Q614 344 615 339 L618 330 Q620 322 620 321 Q623 307 625 293 Q627 279 632 265 Q638 286 642 307 Q646 328 652 349 L664 385 Q670 406 673 428 L676 437 L678 444 Q686 471 690 498 Q692 506 692 507 Q696 519 699.5 531 Q703 543 706 556 Q708 564 708 565 Q713 586 719.5 606 Q726 626 732 646 L735 656 Q740 672 748 686 Q756 700 773 702 L782 702 Q789 703 795.5 703 Q802 703 809 703 Q815 703 817 702 Z " />
<glyph glyph-name="x" unicode="x" horiz-adv-x="554" d="M522 23 Q524 15 524 14 Q523 6 517.5 2.5 Q512 -1 505.5 -2 Q499 -3 491.5 -3 Q484 -3 478 -4 Q476 -4 473.5 -4.5 Q471 -5 469 -5 Q453 -5 438 -4 Q423 -3 407 -1 Q399 -1 397 0 Q377 4 366.5 24 Q356 44 346 61 L343 67 L339 74 Q334 81 330.5 88 Q327 95 325 103 Q323 105 322.5 108 Q322 111 321 113 Q313 136 300.5 157 Q288 178 280 201 L277 208 Q277 208 275 216 Q266 194 254 171 Q253 169 252 167 Q251 165 250 162 L245 153 Q239 139 233 124.5 Q227 110 222 96 L195 42 L192 37 Q188 30 183 24 Q178 18 173 13 L165 7 Q161 3 156 1 Q154 0 151.5 -1 Q149 -2 147 -2 Q141 -4 136 -4 Q125 -4 113 -5 Q101 -6 89 -7 L79 -7 Q65 -7 53 -4 Q51 -3 49 -3 Q47 -3 45 -1 Q36 1 33 7 Q30 13 30.5 20.5 Q31 28 34 35.5 Q37 43 40 48 L44 56 Q49 65 54.5 74 Q60 83 64 92 L70 103 L89 141 Q99 161 111 180 Q123 199 133 219 L142 237 Q156 260 165.5 283.5 Q175 307 186 330 Q188 335 190 337 L197 352 L194 358 Q183 377 174.5 396.5 Q166 416 157 436 Q155 438 155 440 Q155 442 154 444 Q151 447 149 453 Q148 454 148 457 Q148 457 143 467.5 Q138 478 129.5 494 Q121 510 110 531 Q99 552 88 573 Q87 575 86 576.5 Q85 578 84 580 Q74 603 60 624 Q46 645 36 669 Q36 669 34 675 Q32 687 37 693 Q42 698 46 700 Q51 703 56 703 Q78 704 100 706 Q122 708 144 706 L153 706 Q162 704 170.5 700 Q179 696 185 687 L190 680 Q192 675 195 670 Q198 665 200 658 L204 651 Q209 642 213 633.5 Q217 625 222 617 L227 607 Q235 587 245.5 568 Q256 549 266 529 Q266 528 268 522 L275 508 Q282 520 286.5 532.5 Q291 545 297 557 L300 563 Q304 572 309 579 L312 586 L321 602 Q325 610 330 619 Q335 628 340 639 L343 645 Q348 652 352 661 Q356 670 361.5 678.5 Q367 687 373.5 693 Q380 699 390 701 Q398 703 401 703 Q419 701 437.5 702 Q456 703 474 701 Q476 701 479 700.5 Q482 700 484 700 L491 700 Q495 700 499.5 700 Q504 700 507 697 Q515 689 513.5 678 Q512 667 507 658 L503 649 Q498 640 492.5 631.5 Q487 623 483 615 L480 609 Q478 604 475.5 599.5 Q473 595 470 590 L467 583 Q455 556 441.5 530.5 Q428 505 413 479 Q412 475 409 472 Q407 468 406 465.5 Q405 463 404 461 L400 453 Q399 451 398.5 448.5 Q398 446 396 444 Q395 442 395 440 Q395 438 393 436 L388 426 L384 416 Q372 385 356 358 L353 352 L353 351 Q353 350 354 349 L359 340 Q366 320 375.5 301.5 Q385 283 396 266 L400 258 L413 230 L417 221 Q420 213 423.5 206.5 Q427 200 431 193 Q432 191 433 189 Q434 187 436 184 Q446 163 457.5 143 Q469 123 480 103 L489 85 L491 82 L494 76 L497 67 Q499 61 502 58 L506 49 Q509 44 514 37 Q519 30 522 23 Z " />
<glyph glyph-name="y" unicode="y" horiz-adv-x="596" d="M544 584 Q545 560 545.5 535.5 Q546 511 544 486 Q543 476 542.5 466 Q542 456 540 445 Q539 442 539 438.5 Q539 435 539 432 L539 431 Q539 430 538.5 429 Q538 428 538 427 Q538 426 536 416 Q536 409 535 407 Q535 405 533 397 Q531 387 527.5 378 Q524 369 520 361 L516 352 Q511 341 505 330 Q499 319 491 308 L485 300 Q454 260 409 244 L400 241 Q385 234 361 231 L361 78 Q359 68 360.5 54.5 Q362 41 361.5 29 Q361 17 356 8 Q351 -1 336 -3 Q334 -3 331.5 -3.5 Q329 -4 327 -4 Q304 -5 282.5 -5.5 Q261 -6 238 -2 Q235 -1 232 2 Q229 3 227 8 Q218 24 223 43 Q222 44 222 51 L222 62 Q222 67 222 72 Q222 77 223 82 L223 90 Q223 116 222.5 135 Q222 154 222 158 L222 233 Q215 235 208.5 237 Q202 239 196 241 L183 246 Q166 254 150.5 263 Q135 272 123 286 L115 295 Q110 302 105 309 Q100 316 96 324 Q91 334 86 345 Q81 356 77 369 Q70 388 66.5 408 Q63 428 61 448 Q57 485 55 522 L52 603 L52 612 Q52 621 52.5 630 Q53 639 52 649 Q52 651 51.5 652.5 Q51 654 51 656 Q51 667 52.5 679 Q54 691 66 696 Q67 697 73 697 Q76 698 78.5 698.5 Q81 699 84 699 Q86 699 89 699.5 Q92 700 94 700 Q96 700 98.5 700.5 Q101 701 103 701 Q123 703 145 703.5 Q167 704 184 691 Q185 690 186 689 Q187 688 188 686 L191 678 Q191 676 191.5 673.5 Q192 671 192 668 Q194 656 192.5 643.5 Q191 631 192 619 Q192 617 191.5 614.5 Q191 612 191 609 Q190 597 190 585 Q190 573 192 561 Q192 553 193 551 Q193 548 193.5 545.5 Q194 543 194 540 L194 530 Q194 520 194.5 510.5 Q195 501 196 490 Q196 473 200 458 L200 449 Q201 441 202.5 433 Q204 425 208 416 Q210 412 212 409 Q214 406 216 402 Q217 400 218 398 Q219 396 221 393 L228 386 Q240 372 256 368 L266 365 Q288 363 311 365 Q334 367 354 377 L360 381 L366 386 Q368 389 370.5 391.5 Q373 394 375 398 Q388 413 393 436.5 Q398 460 399 481 L401 492 Q400 498 400.5 504.5 Q401 511 401 518 L401 526 Q400 542 401 557 Q402 572 403 588 Q404 590 404 597 Q405 602 405 606.5 Q405 611 405 616 L405 625 Q405 634 404 645 Q403 656 403.5 666.5 Q404 677 407.5 686.5 Q411 696 421 702 Q423 702 425.5 702.5 Q428 703 430 703 Q432 704 439 704 L449 704 Q466 702 484 702.5 Q502 703 519 703 L528 700 L537 694 Q545 688 544.5 678 Q544 668 542 659 L542 634 Q543 621 543.5 609 Q544 597 544 584 Z " />
<glyph glyph-name="z" unicode="z" horiz-adv-x="539" d="M502 112 Q500 89 502 65 Q504 41 497 17 L495 11 L490 4 Q485 -1 474 -1 L466 -1 Q441 -2 416.5 -1.5 Q392 -1 367 -1 Q360 -1 357 -2 L348 -2 Q336 -3 324 -3.5 Q312 -4 300 -2 Q297 -2 294.5 -2.5 Q292 -3 289 -3 Q259 -3 229 0 L219 0 Q204 -1 189 -1.5 Q174 -2 159 0 Q153 0 151 -1 Q146 -1 142.5 -1.5 Q139 -2 134 -1 Q124 0 114.5 -0.5 Q105 -1 94 -2 Q93 -3 86 -3 Q77 -2 64 -2.5 Q51 -3 41 1 Q37 2 35 6 Q31 9 31 14 Q30 16 30 23 Q32 43 44 60 Q56 77 62 97 Q62 99 64 101 Q65 102 65 103 L84 141 Q91 155 99 168 Q107 181 115 195 L120 203 Q121 206 122 208 Q123 210 124 212 L128 221 L172 310 Q173 312 174 314 Q175 316 176 319 Q181 328 184.5 337 Q188 346 192 355 Q193 358 194 360.5 Q195 363 196 365 Q206 387 216.5 407.5 Q227 428 237 450 L242 459 Q248 470 253.5 480.5 Q259 491 266 502 Q267 504 268 505.5 Q269 507 270 509 Q275 517 278.5 525.5 Q282 534 286 543 L292 557 L295 563 Q252 563 203.5 563.5 Q155 564 119 564 L112 564 Q97 564 78.5 561.5 Q60 559 53 567 L48 574 Q46 582 46 583 Q44 591 44 593 Q42 613 43.5 634 Q45 655 45 675 Q45 677 45.5 679.5 Q46 682 46 684 Q47 689 50 692 Q58 702 71.5 701 Q85 700 96 700 L106 700 Q125 700 136 702 Q147 704 166 702 L388 702 Q390 702 392 702.5 Q394 703 396 703 Q399 702 410 702 L413 702 Q427 701 441 701.5 Q455 702 469 701 Q471 701 474 700.5 Q477 700 479 700 L486 700 Q490 700 494.5 700 Q499 700 502 697 Q510 689 508.5 678 Q507 667 502 658 L498 649 Q493 640 487.5 631.5 Q482 623 478 615 L475 609 Q473 604 470.5 599.5 Q468 595 465 590 L462 583 Q450 556 436.5 530.5 Q423 505 408 479 Q407 475 404 472 Q402 468 401 465.5 Q400 463 399 461 L395 453 Q394 451 393.5 448.5 Q393 446 391 444 L378 418 L374 409 Q372 407 371.5 405 Q371 403 369 401 Q368 398 367 396 Q366 394 365 392 Q352 370 341.5 347 Q331 324 320 301 Q318 299 317.5 297 Q317 295 315 293 L308 281 Q307 278 304 275 Q294 256 285 237.5 Q276 219 265 201 L257 183 L239 147 Q237 145 236.5 143 Q236 141 234 139 L386 139 Q393 139 396 138 Q417 136 438.5 138 Q460 140 481 138 L489 135 Q498 130 500 122 L502 112 Z " />
<glyph glyph-name="braceleft" unicode="&#x7b;" horiz-adv-x="401" d="M383 -93 Q388 -98 389 -100 Q394 -118 395 -140 Q396 -162 387 -181 Q384 -185 380 -188 L372 -194 L363 -198 Q340 -201 321 -201 Q302 -201 280 -199 L270 -199 Q243 -197 218.5 -184.5 Q194 -172 174 -155 L167 -147 L155 -132 Q152 -130 150 -124 Q149 -121 146 -118 Q139 -97 134 -75.5 Q129 -54 127 -32 L127 66 Q127 83 126 99 Q125 115 125 132 L125 162 Q126 183 126.5 204.5 Q127 226 125 247 L125 256 Q123 270 119 282 L116 290 Q106 301 91 308 L81 311 Q72 312 62 313.5 Q52 315 43.5 318.5 Q35 322 29 328.5 Q23 335 22 347 L20 356 Q20 362 20 369.5 Q20 377 21 385 Q21 385 23 395 Q28 414 44 418 Q58 420 70.5 421.5 Q83 423 94 430 L100 435 Q109 441 116 451 Q117 452 119 459 Q126 477 125 499 Q124 521 126 539 Q126 566 126 577 Q126 588 126.5 596 Q127 604 127 616 Q127 628 127 657 L127 725 Q126 742 128.5 758.5 Q131 775 135 791 L138 801 Q143 816 150 826 Q152 831 155 834 L167 849 L174 857 Q194 874 218.5 886.5 Q243 899 270 901 L280 901 Q294 903 306.5 903.5 Q319 904 333 903 Q335 903 337.5 902.5 Q340 902 342 902 Q361 904 376.5 893 Q392 882 394 862 Q394 859 394.5 856.5 Q395 854 395 851 Q396 841 395.5 831 Q395 821 391 811 Q390 806 387 803 Q380 791 366 788 Q365 788 359 786 Q338 783 326 784 Q324 784 321.5 783.5 Q319 783 317 783 Q308 783 299 779 L288 774 L281 768 L276 762 Q266 743 267 718.5 Q268 694 266 674 L266 636 Q264 614 264.5 593 Q265 572 265 550 L265 469 Q265 467 264.5 465.5 Q264 464 264 462 Q264 456 263 455 Q263 449 262 447 Q259 419 243 400 Q241 398 240 396 Q239 394 237 392 Q225 380 216 375 Q214 373 212 372.5 Q210 372 208 370 Q200 365 192 364 Q197 362 203 360 Q209 358 214 355 Q216 354 217 353 Q218 352 220 351 L228 343 Q248 324 255 299 Q262 274 265 248 L265 223 Q265 210 265.5 192 Q266 174 266 157 L266 146 Q265 132 266.5 117.5 Q268 103 266 89 L266 28 Q268 8 267 -16.5 Q266 -41 276 -60 L281 -66 L288 -72 L299 -77 Q305 -80 311 -80 Q320 -82 329.5 -82 Q339 -82 348 -83 L357 -83 Q373 -86 383 -93 Z " />
<glyph glyph-name="bar" unicode="&#x7c;" horiz-adv-x="213" d="M159 -6 Q158 -11 157.5 -15.5 Q157 -20 157 -25 L157 -34 Q155 -51 158 -67.5 Q161 -84 155 -97 Q150 -106 144.5 -108 Q139 -110 132.5 -109 Q126 -108 117.5 -106.5 Q109 -105 99 -107 L89 -107 Q79 -108 75.5 -107 Q72 -106 63 -103 Q61 -101 59.5 -100.5 Q58 -100 56 -98 Q48 -91 50.5 -74 Q53 -57 53 -42 L53 -35 Q53 -4 53 49.5 Q53 103 52.5 156.5 Q52 210 52 253 Q52 296 52 307 L52 353 Q51 375 52 396.5 Q53 418 54 440 Q54 442 54.5 444.5 Q55 447 55 449 L55 459 Q55 462 56 463 L56 736 Q53 749 54 757 Q54 760 54.5 762.5 Q55 765 55 767 Q59 777 65 781 Q71 785 79 787 Q81 787 83.5 787.5 Q86 788 88 788 Q99 788 105.5 788.5 Q112 789 117.5 789 Q123 789 129.5 788.5 Q136 788 147 786 Q150 785 153 782 Q156 781 158 776 Q167 760 162 741 Q163 740 163 733 L163 722 Q163 717 163 712 Q163 707 162 702 L162 694 Q162 668 162.5 647 Q163 626 163 622 L163 449 Q162 438 161.5 428.5 Q161 419 161 409 Q161 406 160.5 403.5 Q160 401 160 399 Q162 377 160.5 355 Q159 333 159 311 L159 -6 Z " />
<glyph glyph-name="braceright" unicode="&#x7d;" horiz-adv-x="401" d="M18 -93 Q28 -86 44 -83 L53 -83 Q62 -82 71.5 -82 Q81 -82 90 -80 Q96 -80 102 -77 L113 -72 L120 -66 L125 -60 Q135 -41 134 -16.5 Q133 8 135 28 L135 89 Q133 103 134.5 117.5 Q136 132 135 146 L135 157 Q135 174 135.5 192 Q136 210 136 223 L136 248 Q139 274 146 299 Q153 324 173 343 L181 351 Q183 352 184 353 Q185 354 187 355 Q192 358 198 360 Q204 362 209 364 Q201 365 193 370 Q191 372 189 372.5 Q187 373 185 375 Q176 380 164 392 Q162 394 161 396 Q160 398 158 400 Q142 419 139 447 Q138 449 138 455 Q137 456 137 462 Q137 464 136.5 465.5 Q136 467 136 469 L136 550 Q136 572 136.5 593 Q137 614 135 636 L135 674 Q133 694 134 718.5 Q135 743 125 762 L120 768 L113 774 L102 779 Q93 783 84 783 Q82 783 79.5 783.5 Q77 784 75 784 Q63 783 42 786 Q36 788 35 788 Q22 791 14 803 Q11 806 10 811 Q6 821 5.5 831 Q5 841 6 851 Q6 854 6.5 856.5 Q7 859 7 862 Q9 882 24.5 893 Q40 904 59 902 Q61 902 63.5 902.5 Q66 903 68 903 Q82 904 94.5 903.5 Q107 903 121 901 L131 901 Q158 899 182.5 886.5 Q207 874 227 857 L234 849 L246 834 Q248 832 249 830 Q250 828 251 826 Q258 816 263 801 L266 791 Q270 775 272.5 758.5 Q275 742 274 725 L274 657 Q274 628 274 616 Q274 604 274.5 596 Q275 588 275 577 Q275 566 275 539 Q277 521 276 499 Q275 477 282 459 Q284 452 285 451 Q292 441 301 435 L307 430 Q318 423 330.5 421.5 Q343 420 357 418 Q373 414 378 395 Q380 385 380 385 Q381 377 381 369.5 Q381 362 381 356 L379 347 Q378 335 372 328.5 Q366 322 357.5 318.5 Q349 315 339 313.5 Q329 312 320 311 L310 308 Q295 301 285 290 L282 282 Q278 270 276 256 L276 247 Q274 226 274.5 204.5 Q275 183 276 162 L276 132 Q276 115 275 99 Q274 83 274 66 L274 -32 Q272 -54 267 -75.5 Q262 -97 255 -118 Q252 -121 251 -124 Q250 -129 246 -132 L234 -147 L227 -155 Q207 -172 182.5 -184.5 Q158 -197 131 -199 L121 -199 Q99 -201 80 -201 Q61 -201 38 -198 L29 -194 L21 -188 Q17 -185 14 -181 Q5 -162 6 -140 Q7 -118 12 -100 Q13 -98 18 -93 Z " />
<glyph glyph-name="asciitilde" unicode="&#x7e;" horiz-adv-x="618" d="M577 287 Q577 279 578 277 Q576 269 576 262 Q576 255 574 247 Q574 245 573.5 242.5 Q573 240 573 238 Q564 207 546 180 L539 174 Q526 160 510 149 Q494 138 476 129 Q469 127 467 128 Q459 126 459 126 Q435 123 411.5 122.5 Q388 122 365 128 L354 131 Q349 133 343.5 134.5 Q338 136 333 138 L324 142 Q322 144 320.5 144.5 Q319 145 317 147 L309 153 Q307 155 305.5 155.5 Q304 156 302 158 L295 165 L289 172 L282 179 Q279 184 275.5 187 Q272 190 268 194 Q262 200 261 202 Q253 209 246.5 220.5 Q240 232 232.5 241.5 Q225 251 215.5 255.5 Q206 260 192 254 Q188 251 185 247 Q182 244 180 240 Q177 227 182.5 215.5 Q188 204 190 193 Q191 191 191 183 Q196 171 189 159.5 Q182 148 171 143 Q169 141 167 140.5 Q165 140 163 138 Q163 138 155 136 Q145 133 131.5 128.5 Q118 124 105 123 Q92 122 81 127 Q70 132 65 147 Q61 151 60 154 L51 178 L48 187 Q35 227 45 269 L45 276 Q46 281 47.5 285.5 Q49 290 51 295 Q53 302 56.5 308.5 Q60 315 63 321 Q68 326 69 330 Q88 354 115 370 Q142 386 171 393 Q174 394 176.5 394.5 Q179 395 182 395 Q185 396 187.5 395.5 Q190 395 193 396 L202 396 Q209 396 212 395 Q214 396 222 396 Q232 395 241.5 393 Q251 391 261 389 Q264 387 266 386 Q268 385 270 384 Q285 377 299.5 367.5 Q314 358 326 346 L334 338 Q337 335 340 329 L348 322 Q357 307 372.5 289 Q388 271 408 273 Q411 274 413 275 Q415 276 417 277 Q425 284 427.5 294.5 Q430 305 427 315 Q425 317 424.5 318.5 Q424 320 423 322 Q421 329 420 330 Q418 343 423.5 354 Q429 365 445 367 Q452 369 453 370 Q458 371 462 372 Q466 373 469 374 Q471 375 473 374.5 Q475 374 477 375 Q478 375 486 377 Q488 377 490.5 377.5 Q493 378 496 378 Q504 380 514.5 382 Q525 384 534.5 384 Q544 384 552 380 Q560 376 563 365 Q565 362 566 360 Q567 358 568 356 Q573 344 574 331 Q575 318 576 306 Q576 306 578 298 Q578 295 577.5 292.5 Q577 290 577 287 Z " />
<glyph glyph-name="exclamdown" unicode="&#xa1;" horiz-adv-x="264" d="M125 578 Q116 578 113 579 L103 582 Q84 590 72.5 608 Q61 626 62 646 Q62 648 62.5 650.5 Q63 653 63 655 Q68 670 75 682 L79 687 L94 699 L101 702 L110 705 L120 705 Q125 705 130 705 Q135 705 140 703 Q141 703 149 701 Q172 694 182 677 Q184 675 185 672.5 Q186 670 188 668 Q196 652 193 638 Q193 636 192.5 634.5 Q192 633 192 631 L190 619 Q182 605 173 597 L165 591 Q148 578 125 578 Z M190 412 Q190 386 191.5 361.5 Q193 337 194 312 Q195 310 195 303 Q195 296 196 294 Q196 285 197 283 L197 253 Q197 246 198 243 Q197 241 197 234 L197 225 L199 193 Q200 192 200 187 Q199 165 199.5 143 Q200 121 203 99 L203 84 Q204 79 204 74 Q204 69 204 64 L204 53 Q204 46 203 45 Q208 26 199 10 Q197 5 194 4 Q191 1 188 0 Q165 -4 143.5 -3.5 Q122 -3 99 -2 Q97 -2 94.5 -1.5 Q92 -1 90 -1 L82 1 Q71 5 66.5 13.5 Q62 22 60.5 32.5 Q59 43 60.5 54 Q62 65 63 74 L63 169 Q63 174 63 178.5 Q63 183 64 188 L64 202 Q63 206 63 209.5 Q63 213 63 216 Q65 238 65 259.5 Q65 281 66 303 L66 340 Q67 366 67.5 392.5 Q68 419 68 445 L68 481 Q68 488 69 490 Q69 501 74 506.5 Q79 512 86 516 L94 518 Q110 520 125.5 520.5 Q141 521 157 520 Q159 520 167 518 Q183 512 187 492.5 Q191 473 190 457 L190 412 Z " />
<glyph glyph-name="cent" unicode="&#xa2;" horiz-adv-x="587" d="M536 271 Q537 260 535 249 Q533 238 531 227 Q530 226 530 222 Q529 217 528.5 213 Q528 209 528 207 L525 195 Q524 193 523 190 Q522 187 520 183 Q520 181 518 179 Q517 176 516 173.5 Q515 171 514 169 L511 163 Q504 150 497 139 Q490 128 482 117 L475 110 Q458 93 440 81 L432 75 Q412 63 391 57.5 Q370 52 349 47 L349 16 Q349 10 348 3.5 Q347 -3 342 -8 Q338 -12 331.5 -11.5 Q325 -11 319 -13 L284 -13 Q269 -14 255 -7 Q241 0 243 18 L243 48 Q230 49 217.5 51.5 Q205 54 192 59 L179 64 Q162 72 146.5 81 Q131 90 119 104 L111 113 Q106 120 101 127 Q96 134 92 142 Q87 152 82 163 Q77 174 73 187 Q66 206 62.5 226 Q59 246 57 266 L54 290 Q54 295 53 296 L53 301 Q53 303 52.5 304 Q52 305 52 307 Q50 321 50.5 334 Q51 347 50 361 Q50 366 51 367 L51 373 L54 405 Q54 407 54.5 409.5 Q55 412 55 414 L57 433 Q59 453 62.5 473 Q66 493 73 512 Q77 525 82 536 Q87 547 92 557 Q96 565 101 572 Q106 579 111 586 L119 595 Q131 609 146.5 618 Q162 627 179 635 L192 640 Q205 645 218 647 Q231 649 245 651 Q245 659 245 666 Q245 673 246 680 L246 685 Q242 699 250 707 Q258 715 272 715 L278 715 Q303 717 317 714 L323 714 Q333 713 341 709 L345 706 Q351 701 353 692 Q353 690 352.5 689 Q352 688 352 686 L352 651 Q372 646 392.5 640.5 Q413 635 432 624 L440 618 Q458 606 475 589 L482 582 Q498 563 505 546 Q507 542 510 537 Q513 532 515 527 Q524 512 527 496 Q527 495 527.5 494 Q528 493 528 491 Q528 488 528.5 485 Q529 482 529 479 L531 473 Q533 465 532 455.5 Q531 446 524 438 L521 435 Q507 434 492.5 433 Q478 432 464 433 L458 433 Q449 433 447 432 L440 432 Q432 431 425 431.5 Q418 432 410 434 Q408 434 407.5 434.5 Q407 435 405 435 Q403 437 401 437.5 Q399 438 397 440 Q393 442 388 449 L381 466 L377 475 L371 483 Q369 487 366.5 489.5 Q364 492 362 495 L356 500 L353 502 L353 449 Q352 438 351.5 428.5 Q351 419 351 409 Q351 406 350.5 403.5 Q350 401 350 399 Q352 377 350.5 355 Q349 333 349 311 L349 194 L350 195 L356 199 L362 204 Q364 207 366.5 209.5 Q369 212 371 216 Q382 231 386 246 Q386 248 386.5 248.5 Q387 249 387 251 Q387 252 387.5 253 Q388 254 388 256 Q388 258 388.5 259 Q389 260 389 261 Q390 269 393 277.5 Q396 286 405 287 L411 287 Q435 290 457 290 Q462 290 463 289 Q465 289 465.5 289.5 Q466 290 468 290 Q474 290 480 290 Q486 290 492 288 Q494 288 495 288.5 Q496 289 498 289 Q510 290 520.5 289 Q531 288 536 277 L536 271 Z M245 459 Q245 462 246 463 Q245 468 245 478 L245 511 Q231 505 224 495 L217 488 Q215 485 214 483 Q213 481 212 479 Q210 475 208 472 Q206 469 204 465 Q202 457 200 449 Q198 441 197 432 Q197 430 196.5 427.5 Q196 425 196 423 Q193 407 193 391 Q190 351 193 308 Q193 293 196 276 Q196 274 196.5 271.5 Q197 269 197 267 Q198 258 200 250 Q202 242 204 234 Q206 230 208 227 Q210 224 212 220 Q213 218 214 216 Q215 214 217 211 L224 204 Q228 199 232.5 195.5 Q237 192 242 189 L242 353 Q241 375 242 396.5 Q243 418 244 440 Q244 442 244.5 444.5 Q245 447 245 449 L245 459 Z " />
<glyph glyph-name="sterling" unicode="&#xa3;" horiz-adv-x="656" d="M512 138 Q517 137 521.5 136.5 Q526 136 531 136 L540 136 Q557 134 573.5 137 Q590 140 603 134 Q612 129 614 120.5 Q616 112 615 101.5 Q614 91 612.5 80 Q611 69 613 58 L613 48 Q615 25 609 10 L604 3 Q597 -5 580 -2.5 Q563 0 548 0 L390 0 L390 -1 L352 -1 Q341 -1 335 -0.5 Q329 0 323.5 0 Q318 0 312 0.5 Q306 1 295 1 Q293 1 290.5 1.5 Q288 2 286 2 L276 2 Q273 2 272 3 L84 3 Q71 0 63 1 Q60 1 57.5 1.5 Q55 2 53 2 Q43 6 39 13 Q35 20 33 28 Q33 30 32.5 32.5 Q32 35 32 37 Q31 60 30.5 81.5 Q30 103 34 126 Q35 129 38 132 Q39 135 44 137 Q60 146 79 141 Q80 142 87 142 L98 142 Q103 142 108 142 Q113 142 118 141 L122 141 L121 253 L93 253 Q80 250 72 251 Q69 251 66.5 251.5 Q64 252 62 252 Q52 256 48 263 Q44 270 42 278 Q42 280 41.5 282.5 Q41 285 41 287 Q40 310 39.5 331.5 Q39 353 43 376 Q44 379 47 382 Q48 385 53 387 Q69 396 88 391 Q89 392 96 392 L121 392 Q121 400 121.5 409 Q122 418 123 427 Q123 429 123.5 431.5 Q124 434 124 436 L126 463 Q126 465 126.5 467.5 Q127 470 127 472 L129 491 Q131 511 134.5 531 Q138 551 145 570 Q149 583 154 594 Q159 605 164 615 Q168 623 173 630 Q178 637 183 644 L191 653 Q203 667 218.5 676 Q234 685 251 693 L264 698 Q296 710 330 709.5 Q364 709 398 711 L413 711 Q436 706 459.5 700.5 Q483 695 504 682 L512 676 Q530 664 547 647 L554 640 Q570 621 577 604 Q579 600 582 595 Q585 590 587 585 Q593 575 596 565 Q599 555 601 544 L603 536 Q605 521 607.5 505 Q610 489 602 475 Q601 474 601 470 Q586 462 569.5 461.5 Q553 461 536 465 L502 465 Q494 465 485 464.5 Q476 464 471 469 Q465 476 463 486 Q461 496 459 506 L457 515 Q452 529 443 541 Q441 545 438.5 547.5 Q436 550 434 553 L428 558 L422 562 Q402 572 379 574 Q356 576 334 574 L324 571 Q308 567 296 553 L289 546 Q287 543 286 541 Q285 539 284 537 Q282 533 280 530 Q278 527 276 523 Q274 515 272 507 Q270 499 269 490 Q269 488 268.5 485.5 Q268 483 268 481 Q265 465 265 449 Q264 438 263.5 428.5 Q263 419 263 409 Q263 406 262.5 403.5 Q262 401 262 399 L262 391 Q271 391 278.5 391 Q286 391 301 390.5 Q316 390 342.5 390 Q369 390 416 390 Q421 389 425.5 388.5 Q430 388 435 388 L444 388 Q461 386 477.5 389 Q494 392 507 386 Q516 381 518 372.5 Q520 364 519 353.5 Q518 343 516.5 332 Q515 321 517 310 L517 300 Q519 277 513 262 L508 255 Q501 247 484 249.5 Q467 252 452 252 L262 252 Q261 223 261 194 Q261 165 261 142 L286 142 Q297 141 306.5 140.5 Q316 140 326 140 Q329 140 331.5 139.5 Q334 139 336 139 Q354 141 361.5 139.5 Q369 138 384 138 L512 138 Z " />
<glyph glyph-name="yen" unicode="&#xa5;" horiz-adv-x="572" d="M535 699 Q543 691 541.5 680 Q540 669 535 660 L531 651 Q526 642 520.5 633.5 Q515 625 511 617 L508 611 Q506 606 503.5 601.5 Q501 597 498 592 L495 585 Q489 571 479.5 553.5 Q470 536 459.5 517.5 Q449 499 439 482 Q429 465 422 451 Q421 447 418 444 Q416 440 415 437.5 Q414 435 413 433 L409 425 Q408 423 407.5 420.5 Q407 418 405 416 Q404 414 404 412 Q404 410 402 408 L401 406 L419 406 Q436 404 452.5 407 Q469 410 482 404 Q491 399 493 393.5 Q495 388 494 381.5 Q493 375 491.5 366.5 Q490 358 492 348 L492 338 Q493 328 492 324.5 Q491 321 488 312 L483 305 Q476 297 459 299.5 Q442 302 427 302 L354 302 L352 298 L350 255 Q350 253 349.5 250.5 Q349 248 349 246 Q349 243 348.5 240.5 Q348 238 348 236 L348 226 L391 226 Q396 225 400.5 224.5 Q405 224 410 224 L419 224 Q436 222 452.5 225 Q469 228 482 222 Q491 217 493 211.5 Q495 206 494 199.5 Q493 193 491.5 184.5 Q490 176 492 166 L492 156 Q493 146 492 142.5 Q491 139 488 130 L483 123 Q476 115 459 117.5 Q442 120 427 120 L348 120 L348 48 Q351 35 350 27 Q350 24 349.5 21.5 Q349 19 349 17 Q345 7 338 3 Q331 -1 323 -3 Q321 -3 318.5 -3.5 Q316 -4 314 -4 Q291 -5 269.5 -5.5 Q248 -6 225 -2 Q222 -1 219 2 Q216 3 214 8 Q205 24 210 43 Q209 44 209 51 L209 62 Q209 67 209 72 Q209 77 210 82 L210 119 Q194 119 180 119.5 Q166 120 155 120 Q113 116 92.5 119.5 Q72 123 68 143 Q68 145 67.5 147.5 Q67 150 67 152 Q67 163 66.5 169.5 Q66 176 66 181.5 Q66 187 66.5 193.5 Q67 200 69 211 Q70 214 73 217 Q74 220 79 222 Q95 231 114 226 Q115 227 122 227 L133 227 Q138 227 143 227 Q148 227 153 226 L209 226 L209 246 Q210 257 210.5 266.5 Q211 276 211 286 Q211 289 211.5 291.5 Q212 294 212 296 L212 301 Q195 301 180.5 301.5 Q166 302 155 302 Q113 298 92.5 301.5 Q72 305 68 325 Q68 327 67.5 329.5 Q67 332 67 334 Q67 345 66.5 351.5 Q66 358 66 363.5 Q66 369 66.5 375.5 Q67 382 69 393 Q70 396 73 399 Q74 402 79 404 Q95 413 114 408 Q115 409 122 409 L133 409 Q138 409 143 409 Q148 409 153 408 L166 408 L132 477 L129 483 L97 545 Q96 547 95 548.5 Q94 550 93 552 Q88 564 80 579 Q72 594 63.5 609.5 Q55 625 46.5 640.5 Q38 656 33 668 Q33 668 31 674 Q29 686 34 692 Q39 697 43 699 Q48 702 53 702 Q75 703 97 705 Q119 707 141 705 L150 705 Q159 703 167.5 699 Q176 695 182 686 L187 679 Q189 674 192 669 Q195 664 197 657 L201 650 Q203 645 207 637 Q211 629 215.5 620 Q220 611 224 603.5 Q228 596 230 592 L235 582 Q239 572 244 562 Q249 552 254 542 L258 534 Q260 529 263 524 Q266 519 268 512 Q269 510 270 508.5 Q271 507 272 505 L285 475 Q291 486 294 498 L297 505 Q302 523 311 538.5 Q320 554 328 571 Q329 573 330 574 Q331 575 332 577 Q333 578 333 580 L345 600 Q350 609 356.5 619.5 Q363 630 368 641 L371 647 Q376 654 380 663 Q384 672 389.5 680.5 Q395 689 401.5 695 Q408 701 418 703 Q426 705 429 705 Q447 703 465.5 704 Q484 705 502 703 Q504 703 507 702.5 Q510 702 512 702 L519 702 Q523 702 527.5 702 Q532 702 535 699 Z " />
<glyph glyph-name="brokenbar" unicode="&#xa6;" horiz-adv-x="213" d="M158 -6 Q157 -11 156.5 -15.5 Q156 -20 156 -25 L156 -34 Q155 -42 155.5 -50.5 Q156 -59 157 -67 Q157 -73 158 -74 Q158 -81 155 -89 Q152 -97 147 -102 Q146 -104 145 -104.5 Q144 -105 143 -106 Q129 -108 116 -108.5 Q103 -109 89 -111 Q89 -111 84 -109 Q84 -109 78 -107 Q73 -107 71 -106 Q57 -104 54 -91.5 Q51 -79 50 -68 Q50 -66 50.5 -64.5 Q51 -63 51 -61 Q51 -56 51.5 -51.5 Q52 -47 52 -42 L52 -35 Q52 -16 52 17.5 Q52 51 51.5 89 Q51 127 51 165.5 Q51 204 51 233 L51 258 Q52 270 51 282.5 Q50 295 53 307 L56 312 L59 316 Q67 325 78.5 324 Q90 323 101 325 Q102 326 108 326 Q116 326 123 325.5 Q130 325 137 323 L142 321 Q158 315 158 300 Q158 285 158 271 L158 -6 Z M87 392 Q84 390 81 391 Q78 392 75 392 Q75 392 69 394 Q61 397 57 407 Q57 407 55 413 Q53 419 53 426 Q53 433 54 439 Q54 440 54.5 440.5 Q55 441 55 442 L55 715 Q55 728 53.5 741 Q52 754 54 767 L57 773 Q61 780 66 782.5 Q71 785 78 787 Q80 787 82.5 787.5 Q85 788 87 788 Q98 788 104.5 788.5 Q111 789 116.5 789 Q122 789 128.5 788.5 Q135 788 146 786 Q149 785 152 782 Q155 781 157 776 Q166 760 161 741 Q162 740 162 733 L162 722 Q162 717 162 712 Q162 707 161 702 L161 694 Q161 668 161.5 647 Q162 626 162 622 L162 445 Q163 440 163 436 Q163 432 163 428 Q163 414 157 403 L152 397 Q145 393 138 391 Q136 391 135 390.5 Q134 390 133 390 Q122 389 110 389 Q98 389 87 391 L87 392 Z " />
<glyph glyph-name="section" unicode="&#xa7;" horiz-adv-x="586" d="M496 84 L492 76 Q522 40 525 -6 Q526 -9 526 -16 Q530 -29 530 -48 Q530 -51 529.5 -53.5 Q529 -56 529 -59 Q525 -81 519 -102.5 Q513 -124 503 -144 L500 -151 L496 -158 Q492 -166 487 -173 Q482 -180 477 -187 L469 -196 Q457 -210 441.5 -219 Q426 -228 409 -236 L396 -241 Q364 -253 330 -252.5 Q296 -252 262 -254 L247 -254 Q224 -249 200.5 -243.5 Q177 -238 156 -225 L148 -219 Q130 -207 113 -190 L106 -183 Q97 -171 85 -151 Q83 -149 82.5 -147 Q82 -145 80 -143 L76 -135 L73 -127 Q64 -110 60.5 -92 Q57 -74 54 -55 Q53 -54 53 -51 L53 -44 Q50 -31 51 -16.5 Q52 -2 67 3 Q73 6 77 6 Q90 8 103.5 7.5 Q117 7 129 9 Q131 8 138 8 Q159 8 174 4 Q177 3 179.5 2 Q182 1 184 0 L190 -6 L194 -13 Q198 -20 198 -32 Q198 -34 198.5 -35.5 Q199 -37 199 -39 L201 -49 Q203 -58 206.5 -67 Q210 -76 217 -84 Q219 -88 221.5 -90.5 Q224 -93 226 -96 L232 -101 L238 -105 Q258 -115 281 -117 Q304 -119 326 -117 L336 -114 Q340 -113 343.5 -111 Q347 -109 351 -107 L358 -102 Q372 -90 378.5 -74 Q385 -58 386 -40 L386 -30 L384 -22 L381 -13 Q378 -10 377 -7 Q374 -3 371 0.5 Q368 4 364 6 Q361 10 356 11 Q336 23 314 32.5 Q292 42 269 48 L259 51 Q236 61 212 69.5 Q188 78 166 92 L159 95 L153 98 Q124 116 100 143 L93 150 Q85 158 80 167 Q78 170 77 172 Q76 174 75 176 Q64 198 63 221.5 Q62 245 60 268 Q60 271 60.5 273.5 Q61 276 61 278 Q62 292 65 304 Q68 316 73 328 L78 344 Q82 357 92 373 L99 385 L93 392 Q85 400 80 409 Q78 412 77 414 Q76 416 75 418 Q64 440 63 463.5 Q62 487 60 510 Q60 513 60.5 515.5 Q61 518 61 520 Q62 534 65 546 Q68 558 73 570 L78 586 Q82 599 92 615 Q96 623 101 630 Q106 637 111 644 L119 653 Q131 667 146.5 676 Q162 685 179 693 L192 698 Q224 710 258 709.5 Q292 709 326 711 L341 711 Q364 706 387.5 700.5 Q411 695 432 682 L440 676 Q458 664 475 647 L482 640 Q498 621 505 604 Q507 600 510 595 Q513 590 515 585 Q521 575 524 565 Q527 555 529 544 L531 536 L535 505 Q536 503 536 495 Q535 479 523.5 470 Q512 461 497 461 Q495 462 488 462 Q467 464 444.5 462.5 Q422 461 402 468 Q395 475 392 485 Q390 490 389 495.5 Q388 501 387 506 L385 515 Q380 529 371 541 Q369 545 366.5 547.5 Q364 550 362 553 L356 558 L350 562 Q330 572 307 574 Q284 576 262 574 L252 571 Q236 567 224 553 L217 546 Q215 543 214 541 Q213 539 212 537 Q210 535 208 530 Q200 516 200.5 498 Q201 480 212 468 L219 460 Q233 447 250 439 Q267 431 285 425 Q285 425 293 423 Q316 412 341 404.5 Q366 397 390 387 Q393 386 395 385 Q397 384 399 383 Q415 377 430.5 370.5 Q446 364 460 353 L469 345 L485 327 L490 321 Q522 284 525 236 Q526 233 526 226 Q530 213 530 194 Q530 191 529.5 188.5 Q529 186 529 183 Q525 161 519 139.5 Q513 118 503 98 L500 91 L496 84 Z M386 212 L384 220 L381 229 Q378 232 377 235 Q374 239 371 242.5 Q368 246 364 248 Q361 252 356 253 Q336 265 314 274.5 Q292 284 269 290 L259 293 L220 308 L217 304 Q215 301 214 299 Q213 297 212 295 Q210 293 208 288 Q200 274 200.5 256 Q201 238 212 226 L219 218 Q233 205 250 197 Q267 189 285 183 Q285 183 293 181 Q311 173 330.5 166.5 Q350 160 370 153 Q385 174 386 202 L386 212 Z " />
<glyph glyph-name="dieresis" unicode="&#xa8;" horiz-adv-x="321" d="M64 896 Q87 896 104 883 L112 877 Q121 869 129 855 L131 843 Q131 841 131.5 839.5 Q132 838 132 836 Q135 822 127 806 Q125 804 124 801.5 Q123 799 121 797 Q111 781 88 773 Q80 771 79 771 Q74 769 69 769 Q64 769 59 769 L49 769 L40 772 L33 775 L18 787 L14 792 Q7 804 2 819 Q2 821 1.5 823.5 Q1 826 1 828 Q0 848 11.5 866 Q23 884 42 892 L52 895 Q55 896 64 896 Z M230 892 Q248 899 272 894 L282 891 Q296 885 306 876 L312 865 Q312 863 313 862 Q314 861 315 859 Q323 843 320 829 Q320 823 318 819 Q312 799 295 785 Q292 782 287 780 Q278 774 269 771 L260 768 L250 767 L243 768 L225 774 L219 777 Q208 787 199 799 L195 807 Q187 826 191.5 846.5 Q196 867 211 881 L220 887 L230 892 Z " />
<glyph glyph-name="copyright" unicode="&#xa9;" horiz-adv-x="524" d="M495 537 Q498 523 501 506.5 Q504 490 504 473 L504 462 Q503 451 501 438 Q499 425 496 411 L493 400 L487 383 L483 375 Q475 361 466.5 346 Q458 331 446 317 L440 309 Q429 292 413 280.5 Q397 269 385 262 L376 258 Q356 246 331.5 239.5 Q307 233 282 231 L234 231 Q226 232 218 234 Q210 236 202 238 Q201 238 193 240 Q177 245 157.5 253.5 Q138 262 121 276 L115 280 Q100 293 84 308.5 Q68 324 56 344 Q55 347 52 350 L47 360 Q20 413 21 456 Q21 458 20.5 460 Q20 462 20 464 L20 472 Q21 477 21.5 482.5 Q22 488 22 493 L24 504 Q25 519 27.5 532 Q30 545 34 557 Q35 560 36 562.5 Q37 565 38 567 L42 576 L48 586 L53 595 Q64 614 77.5 629 Q91 644 107 659 L113 664 Q120 669 126.5 673.5 Q133 678 140 680 L148 684 Q167 694 186 699 L196 702 Q201 704 206.5 705 Q212 706 217 707 L227 709 Q234 709 240 709.5 Q246 710 252 710 L258 711 Q260 711 262.5 710.5 Q265 710 267 710 L278 710 Q280 710 283 709.5 Q286 709 288 709 Q291 709 293.5 708.5 Q296 708 299 708 L309 705 Q317 703 319 703 L319 702 Q322 702 324.5 701.5 Q327 701 330 700 L340 697 Q345 696 349 695.5 Q353 695 358 693 Q361 692 363 691 Q365 690 367 689 Q394 679 420 656 L428 649 Q471 604 484 566 L487 561 L490 551 Q492 545 492 544 L495 537 Z M446 448 Q448 469 445.5 492.5 Q443 516 434 542 L430 550 Q423 567 412 580.5 Q401 594 389 607 L388 607 L382 614 Q363 630 344 638 L337 641 L329 644 L322 647 Q317 649 313.5 650 Q310 651 306 652 L298 654 Q296 654 293.5 654.5 Q291 655 289 655 Q259 660 230 655 Q220 653 219 653 L191 645 L183 642 Q173 637 164.5 632.5 Q156 628 148 622 L142 618 Q131 609 123.5 597.5 Q116 586 108 575 L99 562 L95 554 L87 539 L84 531 Q79 515 77 491 L77 482 Q76 480 76 472 L76 464 L78 455 Q79 451 79.5 447.5 Q80 444 80 439 Q82 427 84.5 415 Q87 403 93 392 L97 384 Q118 338 169 310 L177 306 Q198 294 221 291 L231 289 L257 286 L280 286 Q327 289 357 310 L365 315 Q368 318 372 320 L379 326 L391 338 Q401 349 410 361.5 Q419 374 426 388 L430 396 L437 414 L443 432 Q443 434 443.5 435.5 Q444 437 444 439 L446 448 Z M364 439 Q366 436 366 431 Q366 426 365 421 L365 419 L363 406 Q363 404 362.5 403.5 Q362 403 362 402 L362 398 Q357 389 353 380 Q349 371 343 363 L340 360 Q336 357 332.5 353.5 Q329 350 325 348 L322 346 Q313 340 303.5 337.5 Q294 335 284 333 L278 333 Q267 334 257.5 333.5 Q248 333 238 335 Q233 335 232 336 Q217 338 204.5 346.5 Q192 355 183 367 L180 374 Q177 378 175.5 382.5 Q174 387 172 392 Q171 396 170 400 Q169 404 168 409 Q164 430 162 452 Q160 474 163 496 L164 507 L164 511 L165 519 Q166 528 168 536 Q170 544 172 552 Q174 562 180 571 Q181 574 188 583 L191 587 Q201 597 216 603 L222 605 Q235 610 249.5 610 Q264 610 278 611 L284 611 Q292 609 300.5 607 Q309 605 317 601 L322 599 Q339 587 349 571 L352 567 Q353 565 353.5 564.5 Q354 564 355 562 Q355 561 355.5 560.5 Q356 560 356 558 Q360 553 362 541 L363 538 Q363 536 363.5 533.5 Q364 531 364 529 Q365 528 365 525 Q366 520 364.5 514 Q363 508 358 507 Q349 505 339.5 506.5 Q330 508 321 507 Q317 507 316 508 Q308 510 305 517 Q304 518 304 521 Q303 522 303 525 L302 529 Q301 531 296 540 Q295 542 294.5 542.5 Q294 543 293 545 L290 547 L288 548 Q279 553 269.5 554 Q260 555 251 554 L247 552 Q240 550 235 545 L232 542 Q230 540 230 538 Q229 536 228 535 Q227 534 227 532 Q224 526 224 518 Q224 517 223.5 516.5 Q223 516 223 515 Q222 511 222 507.5 Q222 504 222 501 Q222 496 221.5 492.5 Q221 489 221 485 L221 466 L220 466 Q221 465 221 464 L221 460 Q221 455 221.5 451.5 Q222 448 222 443 L222 436 Q222 434 222.5 433 Q223 432 223 430 Q225 419 230 407.5 Q235 396 247 392 L251 391 Q270 388 288 396 L290 397 L293 399 Q294 401 294.5 401.5 Q295 402 296 404 Q298 408 300 411.5 Q302 415 303 419 L304 423 L304 426 Q304 428 306 434 Q307 437 310 440 Q320 445 331 442.5 Q342 440 353 442 L359 442 Q361 441 361.5 440.5 Q362 440 364 439 Z " />
</font>
</svg>
